{"glyphs":{":":{"x_min":0,"x_max":242,"ha":242,"o":"m 235 4 l 235 10 l 208 10 l 235 10 l 235 24 l 202 24 l 241 24 l 241 30 l 194 30 l 221 30 l 221 43 l 148 43 l 235 43 l 235 57 l 235 51 l 235 57 l 188 57 l 214 57 b 215 57 216 57 217 58 b 220 59 221 60 221 63 l 214 63 l 188 63 b 201 66 212 68 221 69 b 224 70 229 70 235 70 l 235 77 l 181 77 l 227 77 l 227 90 l 167 90 l 235 90 l 235 104 l 161 104 l 227 104 l 227 110 l 155 117 l 227 117 l 227 129 l 227 137 l 141 137 b 164 140 187 141 206 142 b 217 143 226 143 235 143 l 235 150 l 175 150 l 235 156 l 235 164 l 175 164 b 191 164 204 165 213 167 l 227 170 l 227 176 l 141 176 b 181 183 208 183 221 183 l 227 183 l 235 183 b 235 190 235 190 227 190 l 221 190 l 175 190 l 227 197 l 227 203 l 28 203 l 28 197 l 81 197 l 42 190 l 42 183 l 28 183 l 28 176 b 33 176 39 176 46 175 b 58 174 74 173 95 170 l 28 170 l 28 164 l 134 156 l 68 156 l 68 143 l 75 143 l 28 143 l 28 137 b 35 137 43 137 50 136 b 63 135 81 133 101 129 l 35 129 l 35 123 l 101 123 l 28 117 l 28 110 l 89 110 l 28 104 l 28 96 l 89 96 l 54 96 b 47 96 42 90 35 90 l 28 90 l 21 90 l 21 84 l 28 84 l 75 84 l 62 84 l 35 84 l 28 84 l 21 77 b 22 77 23 77 24 76 b 27 75 28 73 28 70 l 75 70 l 54 70 l 48 70 l 42 70 l 42 63 l 68 63 l 54 63 l 35 63 l 28 63 l 28 57 l 21 57 b 21 50 21 51 28 51 l 122 51 b 98 51 76 50 57 47 b 46 46 37 44 28 43 l 28 37 l 68 37 l 54 37 l 35 37 l 28 37 l 21 37 l 21 30 l 21 24 l 28 24 l 42 24 l 35 24 l 28 24 l 21 24 l 21 16 l 68 16 l 62 16 b 54 16 42 17 35 10 l 28 10 b 27 10 26 10 25 9 b 24 8 25 6 28 4 z m 221 43 l 221 37 l 221 30 l 221 37 z m 235 51 l 235 57 z m 227 137 l 227 129 z m 227 170 l 235 170 z m 235 170 b 235 173 234 174 231 175 b 230 176 229 176 227 176 l 227 170 l 235 176 z m 26 495 l 26 489 l 53 489 l 26 489 l 26 475 l 59 475 l 20 475 l 20 469 l 67 469 l 40 469 l 40 456 l 113 456 l 26 456 l 26 442 l 26 448 l 26 442 l 73 442 l 47 442 b 45 442 44 442 43 441 b 41 440 40 438 40 436 l 47 436 l 73 436 b 60 432 48 431 40 430 b 35 429 30 429 26 429 l 26 422 l 80 422 l 34 422 l 34 409 l 94 409 l 26 409 l 26 395 l 100 395 l 34 395 l 34 389 l 106 382 l 34 382 l 34 370 l 34 362 l 120 362 b 96 359 74 358 55 357 b 44 356 35 356 26 356 l 26 349 l 86 349 l 26 343 l 26 335 l 86 335 b 69 335 57 333 48 332 l 34 329 l 34 323 l 120 323 b 80 316 53 316 40 316 l 34 316 l 26 316 b 26 309 26 309 34 309 l 40 309 l 86 309 l 34 302 l 34 296 l 233 296 l 233 302 l 180 302 l 219 309 l 219 316 l 233 316 l 233 323 b 228 323 222 323 215 324 b 203 325 186 326 166 329 l 233 329 l 233 335 l 127 343 l 193 343 l 193 356 l 186 356 l 233 356 l 233 362 b 226 362 218 362 211 363 b 198 364 179 366 160 370 l 226 370 l 226 376 l 160 376 l 233 382 l 233 389 l 172 389 l 233 395 l 233 403 l 172 403 l 207 403 b 214 403 219 409 226 409 l 233 409 l 240 409 l 240 415 l 233 415 l 186 415 l 199 415 l 226 415 l 233 415 l 240 422 b 238 422 237 422 236 423 b 234 424 233 426 233 429 l 186 429 l 207 429 l 213 429 l 219 429 l 219 436 l 193 436 l 207 436 l 226 436 l 233 436 l 233 442 l 240 442 b 240 449 240 448 233 448 l 139 448 b 162 448 185 449 204 452 b 215 453 224 455 233 456 l 233 462 l 193 462 l 207 462 l 226 462 l 233 462 l 240 462 l 240 469 l 240 475 l 233 475 l 219 475 l 226 475 l 233 475 l 240 475 l 240 483 l 193 483 l 199 483 b 207 483 219 482 226 489 l 233 489 b 234 489 235 489 236 490 b 237 491 236 492 233 495 z m 40 462 l 40 469 l 40 462 l 40 456 z m 26 442 l 26 448 z m 34 370 l 34 362 z m 34 329 l 26 329 z m 26 329 b 26 326 27 325 30 324 b 31 323 32 323 34 323 l 34 329 l 26 323 z"},"?":{"x_min":0,"x_max":536,"ha":536,"o":"m 292 590 l 292 596 z m 292 596 l 298 596 z m 547 531 l 505 531 b 516 536 525 538 533 539 b 536 540 541 540 547 540 l 539 545 l 463 545 l 547 554 l 547 568 l 483 562 b 501 565 516 568 528 571 b 535 574 540 575 547 576 l 547 582 l 491 576 l 547 590 l 539 596 l 483 582 l 539 604 l 539 610 l 533 618 l 455 596 l 525 624 l 525 632 l 511 624 l 533 638 l 525 646 l 427 604 l 525 652 l 519 668 l 483 646 l 505 660 l 497 660 l 511 674 l 511 682 l 441 638 l 497 682 l 497 688 l 455 668 l 491 688 l 483 696 l 477 688 l 483 702 l 483 710 l 435 668 l 477 710 l 469 716 l 418 668 l 463 716 l 455 724 l 463 730 l 455 730 l 435 710 l 449 730 l 441 738 l 399 688 l 427 738 l 427 744 l 418 752 l 399 724 l 413 744 l 404 752 l 385 716 l 399 752 l 390 752 l 385 738 l 390 758 l 385 766 l 371 730 l 376 758 l 371 758 l 357 730 l 371 766 l 362 766 l 348 772 b 348 765 348 758 343 738 l 343 766 l 334 766 l 320 710 l 334 772 l 320 772 l 312 780 l 306 752 l 312 772 l 298 772 l 298 758 l 298 772 l 292 772 l 292 780 l 284 780 b 284 772 278 767 278 752 l 278 772 l 270 772 l 270 780 l 264 780 l 256 710 b 256 727 254 740 253 751 l 250 766 l 242 766 l 236 766 l 236 780 l 222 780 l 236 674 l 200 758 l 191 772 l 186 772 l 200 710 l 172 766 l 163 766 l 177 716 l 158 766 l 149 758 l 172 710 l 149 744 l 144 744 l 135 752 l 130 744 l 135 738 l 121 752 l 116 744 l 144 702 l 116 738 l 107 730 l 121 710 l 102 738 l 93 730 l 116 702 l 85 730 l 79 724 l 85 724 l 79 724 l 71 716 l 93 696 l 71 716 l 65 710 l 79 696 l 65 710 l 57 702 l 79 682 l 51 702 l 43 696 l 71 674 l 43 696 l 43 688 l 79 652 l 37 682 l 29 674 l 57 652 l 23 668 l 23 660 l 79 624 l 15 660 l 15 652 l 23 646 b 30 646 36 639 43 632 l 15 646 l 9 638 l 1 638 l 1 632 l 9 632 b 16 632 22 625 37 618 b 24 621 16 624 11 627 l 1 632 b -2 632 -3 631 -4 628 b -5 627 -5 626 -5 624 l 1 624 b 1 617 23 611 43 604 l -5 618 l -5 610 l 29 596 b 18 600 10 602 4 603 b 2 604 -1 604 -5 604 l -5 596 b -2 595 1 593 5 592 b 11 589 22 586 37 582 l -5 590 l -13 582 l 9 576 b 2 579 -3 580 -7 581 b -9 582 -11 582 -13 582 l -19 568 b -14 568 -9 568 -2 567 b 9 566 22 565 37 562 l 43 562 l -19 562 l -19 554 l -19 545 l 9 540 l -19 540 l -19 531 l 1 531 l -19 531 l -19 517 l 51 517 l -27 517 l -27 503 b -23 503 32 504 85 507 l 191 512 l 191 517 l 191 526 l 191 531 l 191 540 l 191 545 l 200 554 l 191 562 l 200 562 l 200 568 l 172 590 l 200 576 l 208 576 l 214 582 l 222 590 l 214 624 l 228 596 l 236 596 l 228 638 l 236 604 l 250 604 l 242 610 l 250 604 l 256 604 l 256 632 l 264 632 l 264 638 l 264 646 l 264 604 l 270 604 b 270 606 270 608 271 609 b 272 614 275 619 278 624 l 278 604 l 284 604 l 292 638 l 292 632 l 292 624 l 292 604 l 284 604 l 284 596 l 292 596 l 298 596 b 298 604 298 610 306 618 l 298 596 l 306 590 l 298 590 l 312 582 l 320 590 l 312 582 l 320 576 l 329 590 l 320 576 l 320 568 l 320 562 l 329 554 l 329 545 l 329 540 l 320 540 l 329 531 l 320 531 l 320 526 l 312 517 l 312 512 l 306 503 l 298 498 l 320 475 l 298 498 l 292 489 l 298 484 l 292 498 l 284 489 l 306 461 l 278 489 l 270 484 l 278 470 l 270 484 l 264 475 l 298 433 l 306 433 l 256 475 l 250 470 l 256 461 l 242 475 l 236 470 l 270 442 l 236 470 l 228 461 l 250 442 l 222 461 l 214 456 l 222 447 l 214 442 l 236 425 l 208 447 l 200 442 l 242 411 l 186 433 l 186 425 l 236 397 l 177 425 l 172 411 l 200 405 l 172 411 l 172 405 l 222 383 l 172 397 l 163 391 l 222 369 l 172 383 l 163 377 l 158 363 l 250 349 l 158 355 l 149 349 l 163 335 l 149 341 l 149 327 l 186 327 l 191 318 l 149 318 l 149 313 l 200 304 l 149 304 l 149 299 l 172 299 l 149 299 l 149 290 l 191 285 l 177 285 l 158 285 l 149 285 l 144 285 b 144 276 144 276 149 276 b 160 276 172 276 184 275 b 205 274 232 274 256 271 l 343 215 l 144 215 l 135 206 l 208 198 l 135 198 b 134 198 134 198 133 197 b 132 196 132 194 135 192 b 142 192 148 192 155 191 b 168 190 185 188 208 184 l 158 184 l 158 178 l 214 178 b 193 174 174 172 159 171 b 150 170 142 170 135 170 l 135 164 l 214 164 b 195 160 180 158 168 157 b 161 156 154 156 149 156 l 149 150 l 191 150 l 135 150 l 135 142 l 130 142 l 130 128 l 186 128 l 177 128 l 158 128 l 149 128 l 144 128 l 144 122 l 144 114 l 163 114 l 144 114 l 135 114 l 130 114 b 130 112 131 110 132 109 b 133 108 134 108 135 108 l 191 108 l 158 108 l 158 94 l 200 94 l 144 94 l 144 86 l 158 86 l 135 86 l 135 72 l 222 72 b 199 72 178 64 163 64 l 144 64 l 135 64 l 130 64 b 130 57 130 58 135 58 l 144 58 l 135 58 l 135 50 l 222 50 l 144 44 l 144 30 l 236 30 l 172 30 b 157 30 149 30 144 22 l 135 22 l 130 22 l 130 16 l 135 16 l 208 16 l 144 16 l 144 2 l 357 2 l 357 8 l 284 8 l 362 16 l 362 22 l 278 22 b 299 26 318 28 333 29 b 341 30 349 30 357 30 l 357 36 l 256 36 l 357 44 l 357 50 l 362 50 l 362 64 l 343 64 l 348 64 b 348 67 347 69 345 71 b 344 72 344 72 343 72 l 320 72 l 357 72 l 362 72 l 362 78 l 357 78 b 342 86 313 86 270 86 l 348 86 b 353 86 355 87 356 90 b 357 91 357 92 357 94 l 348 100 l 312 100 l 357 100 l 357 108 l 312 108 b 323 111 334 112 343 113 b 346 114 351 114 357 114 l 362 114 l 362 122 l 343 122 l 362 122 l 362 128 l 320 136 l 343 136 l 348 136 l 348 142 l 343 142 l 284 142 l 357 142 l 362 150 l 362 156 l 357 156 l 348 156 l 348 164 l 343 164 l 278 164 b 313 171 342 170 357 170 l 362 170 l 362 178 l 357 178 l 306 178 l 357 178 l 357 192 l 320 192 l 357 192 l 357 198 l 284 206 l 371 206 l 278 271 l 348 271 l 348 276 l 343 276 l 348 276 l 348 290 l 312 290 l 348 290 l 348 299 l 343 299 l 348 299 l 348 313 l 320 313 l 348 313 l 348 318 l 357 318 l 357 327 l 362 335 l 357 335 l 362 335 l 362 341 l 371 349 l 329 377 l 376 349 l 376 355 l 385 355 l 385 363 l 390 369 l 390 377 l 399 363 l 404 369 l 399 377 l 404 377 l 385 411 l 413 377 l 418 377 l 418 383 l 390 411 l 427 383 l 435 391 l 418 397 l 435 391 l 441 397 l 404 425 l 449 397 l 455 405 l 441 419 l 463 397 l 469 405 l 427 433 l 483 411 l 483 419 l 491 419 l 497 425 l 483 433 l 497 425 l 505 433 b 498 437 490 441 483 446 b 470 453 452 463 435 470 b 470 455 505 447 505 442 l 511 456 l 449 475 l 519 456 l 519 461 l 483 475 l 519 470 l 525 475 l 469 489 b 484 489 496 484 511 484 l 539 484 l 547 489 l 539 489 l 533 489 l 539 489 l 547 498 l 511 503 l 539 503 l 539 512 l 505 517 l 547 517 l 547 526 z m 93 632 l 121 610 l 102 624 z m 102 531 l 51 531 l 65 540 l 116 531 z m 130 545 l 65 562 b 63 562 62 562 61 563 b 58 564 57 565 57 568 b 80 561 93 554 102 554 z m 130 545 l 144 545 z m 186 674 l 191 646 l 186 660 z m 186 632 l 186 624 z m 191 638 l 191 646 l 200 632 z m 208 652 l 191 702 l 208 668 l 214 638 z m 270 674 l 270 716 l 270 724 l 270 710 l 270 696 z m 298 696 l 292 682 l 298 702 z m 208 318 l 200 327 l 242 318 z m 186 335 l 172 341 l 270 335 z m 298 335 l 306 335 z m 329 517 l 329 526 z m 348 475 l 343 484 z m 362 503 l 362 498 z m 371 475 l 362 484 z m 357 632 l 390 668 l 385 660 z m 399 461 l 376 475 l 413 456 z m 376 554 l 418 562 l 418 554 l 404 554 z m 547 484 l 547 489 z m 1 632 l 1 638 z m 547 484 l 539 484 z"},"'":{"x_min":0,"x_max":356,"ha":356,"o":"m 53 366 l 103 366 l 103 380 l 146 380 l 146 388 l 139 388 l 168 388 l 168 402 l 146 402 l 183 402 l 183 409 l 174 413 b 168 416 161 417 154 417 l 205 417 l 205 423 l 146 423 l 219 431 l 219 438 l 212 438 l 226 438 l 226 454 l 219 454 l 226 454 l 226 460 l 234 460 l 234 468 l 212 468 l 240 468 l 240 475 l 248 475 l 248 489 l 226 489 l 248 489 l 248 497 l 212 504 l 212 511 l 190 511 l 255 511 l 255 518 l 248 518 l 263 518 l 263 532 l 205 532 b 220 536 234 538 245 539 b 252 540 258 540 263 540 l 269 540 l 269 547 l 263 547 l 234 547 l 269 555 l 263 562 l 248 562 l 269 562 l 269 569 l 219 577 l 269 577 l 269 584 l 219 584 l 269 584 l 269 598 l 255 598 l 269 598 l 269 606 l 183 612 l 255 612 l 255 620 l 263 620 l 255 620 l 234 620 l 263 620 l 269 620 l 269 627 l 277 627 l 277 635 l 269 635 l 263 635 l 226 635 l 269 635 l 269 641 l 248 641 l 263 641 l 263 649 l 263 656 l 176 656 l 263 664 l 263 670 l 234 670 l 269 670 l 269 686 l 226 686 l 263 686 l 263 693 l 212 693 l 269 700 l 269 707 l 160 707 l 269 715 l 269 721 l 255 721 l 255 729 l 248 729 b 240 729 220 736 197 736 l 277 736 l 277 744 l 205 744 l 277 750 l 277 758 l 263 758 l 269 758 l 269 765 b 265 766 261 768 256 769 b 249 772 239 773 226 773 l 263 773 l 263 779 l 45 787 l 45 773 l 81 773 l 53 773 l 53 765 l 117 765 b 96 765 81 764 71 761 l 53 758 l 53 750 l 74 750 l 37 750 l 37 744 l 53 744 l 53 729 l 88 729 l 45 729 l 45 721 l 154 715 l 45 707 l 45 700 l 103 700 l 45 700 l 45 686 l 110 686 l 45 686 l 45 678 l 139 670 l 67 670 l 67 664 l 53 656 l 53 649 l 45 649 l 45 641 l 125 641 l 53 635 l 53 627 l 96 627 l 45 627 l 45 612 l 74 612 l 45 612 l 45 606 l 74 606 l 59 606 l 53 606 l 45 606 l 45 598 l 45 591 l 125 591 l 45 591 l 45 577 l 103 577 l 45 577 l 45 569 l 168 562 l 139 562 l 146 555 l 168 555 l 139 547 l 139 540 l 160 540 l 139 540 l 139 526 l 176 526 l 168 526 l 154 526 l 146 526 l 146 518 l 125 518 l 125 511 l 146 511 l 125 511 l 117 511 l 117 497 l 176 497 l 103 489 l 103 482 l 96 482 l 96 475 l 74 475 l 74 468 l 53 468 l 53 454 l 59 454 l 53 454 l 45 454 l 45 446 l 88 446 l 74 446 l 59 446 l 53 446 l 45 446 l 45 438 l 45 431 l 53 431 l 81 431 l 45 431 l 45 423 l 53 423 l 53 417 l 45 417 l 45 409 l 96 409 l 45 402 l 45 395 l 59 395 l 45 395 l 45 388 l 59 388 b 52 388 53 388 53 380 l 45 380 l 37 380 l 45 373 l 53 373 z m 255 511 l 263 511 l 255 518 z m 263 511 l 263 518 z m 263 518 l 255 518 z m 255 612 l 255 620 z m 263 620 b 263 612 263 612 255 612 b 263 612 263 612 263 620 z"},"a":{"x_min":0,"x_max":729,"ha":729,"o":"m 765 9 l 662 9 l 758 16 l 758 23 l 618 23 l 750 38 l 750 45 l 750 52 l 743 52 l 743 59 l 736 59 l 743 59 l 743 74 l 669 74 l 736 74 l 736 90 l 729 90 l 736 90 l 736 97 l 662 97 l 729 97 l 729 110 l 655 110 l 720 110 l 720 126 l 691 119 l 720 126 l 720 133 l 714 133 l 714 141 b 710 141 707 141 705 142 b 698 143 692 144 684 148 l 714 148 l 714 155 l 597 155 l 707 162 l 707 170 l 618 177 l 700 177 l 700 184 l 611 191 l 707 191 l 707 206 l 691 206 l 691 213 l 655 213 l 684 213 l 684 222 l 640 222 l 684 222 l 684 235 l 553 228 l 678 242 l 678 258 l 659 254 b 647 252 631 251 611 251 l 662 260 l 684 264 l 684 271 l 669 271 l 669 280 l 662 280 l 662 287 l 611 287 l 662 287 l 662 302 l 655 302 l 662 302 l 662 309 l 568 309 l 655 316 l 655 323 l 640 323 l 640 331 l 618 331 l 633 331 l 640 338 l 649 338 l 649 345 l 640 345 l 611 345 l 640 345 l 640 352 l 633 352 l 633 367 l 626 367 l 633 367 l 633 374 l 626 374 l 626 383 l 633 383 l 633 396 l 559 396 l 626 396 l 626 403 l 568 403 l 618 412 l 618 419 l 582 419 l 611 419 l 611 434 b 606 434 603 434 601 433 b 596 432 588 430 575 425 b 586 429 593 432 598 433 b 600 434 602 434 604 434 l 604 441 l 559 441 l 604 441 l 604 455 l 589 455 l 597 455 l 597 463 l 604 463 l 604 470 l 597 470 l 546 470 l 559 470 b 568 477 575 477 582 477 l 589 477 l 597 477 l 597 484 l 589 484 l 582 484 l 589 484 l 589 492 l 589 506 l 559 499 b 563 502 567 504 570 505 b 571 506 573 506 575 506 l 582 506 l 589 506 l 589 515 l 582 515 l 559 515 l 582 515 l 582 528 l 568 521 l 582 528 l 575 535 l 559 535 l 559 544 l 537 544 l 568 544 l 568 557 l 517 557 l 559 557 l 559 564 l 530 564 l 559 564 l 559 580 l 553 580 l 553 586 l 546 586 l 553 586 l 553 595 l 553 602 l 488 609 l 537 609 l 537 616 l 465 616 b 486 620 507 622 522 623 b 531 624 539 624 546 624 l 546 631 l 530 631 l 530 645 l 530 653 l 508 653 l 508 660 l 523 660 l 523 676 l 479 676 l 523 676 l 523 682 l 479 682 l 517 689 l 517 696 l 450 696 l 508 696 l 508 711 l 508 718 l 508 727 l 494 727 l 508 727 l 508 734 l 494 734 l 494 741 l 428 741 l 494 747 l 494 756 l 479 756 l 479 763 l 488 763 l 488 770 l 407 777 l 421 777 l 479 777 l 479 792 l 362 785 l 244 792 l 244 785 l 244 777 l 237 777 l 237 770 l 237 763 l 244 763 l 260 763 l 231 763 l 231 756 l 237 756 l 237 747 l 231 747 l 231 741 l 253 734 l 224 734 l 224 727 l 260 727 l 224 727 l 224 718 l 224 711 l 231 711 l 224 711 l 224 705 l 244 705 l 215 705 l 215 696 l 215 682 l 282 682 b 243 682 208 676 201 676 l 195 676 l 201 667 l 201 660 l 201 653 l 224 653 l 201 653 l 201 645 l 186 645 l 186 638 l 179 638 b 179 635 180 633 182 632 b 183 631 184 631 186 631 l 237 631 l 186 631 l 186 616 l 150 616 l 150 609 l 244 602 l 172 602 l 172 595 l 201 595 l 172 595 l 172 580 l 208 580 l 172 580 l 172 573 l 195 564 l 164 564 l 164 557 l 186 557 l 164 557 l 164 550 l 201 544 l 172 544 l 157 544 l 150 544 l 157 535 l 164 535 l 195 535 l 150 535 l 150 528 l 208 521 l 150 521 l 150 515 l 143 515 l 143 506 l 143 499 l 150 499 l 135 499 l 135 492 l 143 492 b 150 492 179 492 215 484 l 135 484 l 135 477 l 128 477 l 128 470 l 172 463 l 135 470 l 135 463 l 128 463 l 128 448 l 121 448 l 121 441 l 121 434 l 114 434 l 114 425 l 106 425 l 106 419 l 114 419 l 106 419 l 106 412 b 104 412 103 412 102 411 b 100 410 99 407 99 403 l 106 403 l 114 403 l 99 403 l 99 396 l 99 389 l 179 389 l 135 389 b 120 389 114 390 106 383 l 92 383 l 92 374 l 92 367 l 99 367 l 92 367 l 92 360 l 224 352 l 83 352 l 83 338 l 128 338 l 83 338 l 83 331 l 76 331 b 69 331 70 331 70 323 l 76 323 b 81 323 84 323 86 322 b 92 321 99 319 106 316 l 70 323 l 70 309 l 76 309 l 70 309 l 70 302 l 63 302 l 63 294 l 76 294 l 47 294 l 47 287 l 54 287 l 54 280 l 54 271 l 63 271 l 54 271 l 54 258 l 47 258 l 47 251 l 47 242 l 40 242 l 40 235 l 32 235 l 32 228 l 32 222 l 40 222 l 32 222 l 32 213 l 40 213 l 40 206 l 32 206 l 25 206 l 25 199 l 32 199 b 34 199 36 199 38 198 b 43 197 47 194 54 191 l 25 191 l 25 184 l 18 184 l 18 170 l 54 170 l 18 170 l 18 162 l 32 162 l 32 155 l 18 155 l 11 155 b 11 152 12 150 14 149 b 15 148 16 148 18 148 l 11 148 l 3 148 l 3 141 l 11 141 l 11 133 l 54 126 l 3 126 l 3 119 l -4 119 l -4 110 l 3 110 l -4 110 l -4 103 l 3 103 l 3 90 l -11 90 l -11 81 l -18 81 l -26 81 b -26 78 -25 76 -22 75 b -21 74 -20 74 -18 74 b -20 74 -21 74 -22 73 b -25 72 -26 70 -26 67 l -18 67 b -13 67 -8 67 -5 66 b 3 65 14 63 25 59 l -18 59 l -18 52 l -33 52 l -33 45 l -18 45 l -18 38 l -26 38 l -26 30 l 3 30 l -33 30 l -40 30 l -40 23 l -40 16 l -33 16 l -4 16 l -40 16 l -40 9 l -33 9 l -40 9 l -40 1 l 201 1 l 201 9 l 208 9 l 208 16 l 201 16 l 201 23 l 208 23 l 208 30 l 215 30 l 215 45 l 143 45 l 215 45 l 215 52 l 186 59 l 215 59 l 215 67 l 224 67 l 224 74 l 224 81 l 195 81 l 201 81 l 201 90 l 237 90 l 237 97 l 231 97 l 231 110 l 208 110 l 224 110 l 231 110 l 237 110 l 237 119 l 244 119 l 253 119 l 260 119 l 260 141 l 260 119 l 275 119 l 275 133 l 275 126 l 275 119 l 275 110 b 282 110 282 110 282 119 l 289 119 l 289 133 l 289 110 l 304 110 l 311 110 l 311 119 l 318 119 l 325 119 l 325 133 l 325 119 l 340 119 l 340 141 l 340 119 l 347 119 l 347 148 l 356 110 l 362 110 l 362 119 l 369 119 l 369 141 l 369 126 l 369 119 b 369 110 369 110 376 110 l 376 119 l 380 138 b 383 151 385 167 385 184 l 385 141 l 385 126 l 385 119 l 385 110 l 392 110 l 398 110 l 398 119 l 398 141 l 398 119 l 407 119 l 407 155 l 407 126 l 421 126 l 421 155 l 421 119 l 428 119 l 436 162 l 436 119 l 443 119 l 457 119 l 465 119 l 465 162 l 465 148 l 465 133 l 465 126 l 472 119 l 479 119 l 488 119 l 488 126 l 604 126 l 488 119 l 488 110 l 546 110 l 488 103 l 488 97 l 546 97 l 494 97 l 494 81 l 546 81 l 494 81 l 494 74 l 553 74 l 501 67 l 501 59 l 508 59 l 501 59 l 501 52 l 559 52 l 501 45 l 501 38 l 517 38 l 508 38 l 508 30 l 553 30 l 517 30 l 517 16 l 523 16 l 517 16 l 517 9 l 508 9 l 508 1 b 508 -42 537 -71 568 -94 b 589 -117 618 -138 618 -174 l 626 -174 b 626 -138 598 -110 575 -87 b 546 -64 523 -35 523 1 l 765 1 z m 568 264 l 494 258 l 494 264 z m 457 280 l 472 280 l 472 271 l 472 280 l 457 280 l 457 271 z m 472 251 l 472 264 z m 457 251 l 457 242 z m 488 228 l 488 235 z m 494 235 l 537 235 l 494 228 z m 494 242 l 501 242 z m 488 258 l 488 264 z m 488 271 l 488 280 z m 457 264 l 457 251 z m 494 222 l 501 222 z m 488 155 l 508 148 l 488 148 z m 488 177 l 537 177 z m 537 280 l 501 271 l 501 280 z m 311 573 l 340 573 l 356 573 l 407 573 b 396 568 384 566 376 565 b 371 564 366 564 362 564 z m 356 580 l 340 580 z m 369 602 l 385 602 l 369 595 z m 347 616 l 296 616 z m 347 660 l 340 660 z m 340 631 l 369 631 l 347 631 l 289 631 z m 362 624 l 376 624 z m 376 645 l 407 645 z m 356 602 l 289 609 z m 362 609 l 407 609 z m 362 557 l 362 550 l 369 550 l 362 550 l 362 544 l 325 544 l 356 544 l 356 550 l 282 557 z m 224 141 l 224 133 z m 157 119 l 224 126 l 224 119 z m 282 251 l 275 251 l 275 258 l 275 264 l 282 264 l 282 271 l 282 280 l 282 235 z m 428 280 l 414 280 l 407 280 l 407 228 l 398 280 l 392 280 l 392 235 l 392 280 l 376 280 l 369 280 l 369 287 l 362 287 l 356 235 l 356 280 l 347 280 l 347 222 l 340 280 l 333 280 l 333 287 l 325 287 l 325 280 l 311 280 l 311 271 l 311 280 l 304 280 l 304 271 l 296 271 l 296 287 l 289 287 l 231 294 l 296 287 l 296 302 l 296 309 l 289 309 l 296 309 l 296 316 b 291 316 284 316 277 317 b 265 318 250 319 231 323 l 296 323 l 296 331 l 244 331 l 289 331 l 296 331 l 304 331 l 304 338 l 421 338 l 421 345 l 267 352 l 311 352 l 311 367 l 244 367 l 318 367 l 318 374 l 318 389 l 237 389 l 325 389 l 325 403 l 318 403 l 325 403 l 325 419 l 296 419 l 333 419 l 333 425 l 333 434 l 340 434 l 340 441 l 340 448 l 340 455 l 333 455 l 333 463 l 318 463 l 347 463 l 347 470 l 296 477 l 347 477 l 347 484 l 333 484 l 356 484 l 356 492 b 347 492 340 492 333 499 l 289 499 l 362 499 l 362 506 l 333 506 l 356 506 l 356 521 l 296 521 l 356 521 l 356 528 l 369 528 l 369 535 l 407 535 l 385 535 l 385 528 l 362 528 l 362 521 l 376 521 l 362 521 l 362 506 l 407 506 l 376 506 l 376 499 l 369 499 l 369 484 l 376 484 l 385 484 l 376 484 l 376 477 l 385 477 l 385 470 l 385 463 l 421 463 l 392 463 l 392 448 l 421 448 l 392 448 l 392 441 l 457 441 l 398 434 l 398 425 l 407 425 l 398 425 b 397 425 396 425 395 424 b 393 423 392 421 392 419 l 398 419 l 398 412 l 392 412 l 392 396 l 472 396 l 414 396 l 414 383 l 457 383 l 407 383 l 407 374 l 443 374 l 414 374 l 414 360 l 414 352 l 450 352 l 421 352 l 421 345 l 428 345 l 421 345 l 421 331 l 428 331 l 428 323 l 428 316 l 494 316 l 428 309 l 428 302 l 457 302 l 428 302 l 428 294 l 501 294 l 436 287 l 436 280 l 436 242 l 436 280 z m 443 280 l 450 280 l 450 242 z m 488 141 l 530 141 z m 488 162 l 488 170 l 553 162 z"},"L":{"x_min":0,"x_max":651,"ha":651,"o":"m 617 4 l 617 211 l 601 211 l 601 145 l 601 205 l 594 205 l 594 211 l 587 211 l 571 211 l 571 168 l 571 211 l 564 211 l 564 182 l 558 205 l 550 205 l 550 211 l 541 211 l 541 168 l 541 211 l 527 211 l 527 168 l 527 211 l 520 211 l 520 182 b 512 198 512 204 512 211 l 505 211 l 505 145 l 498 235 l 492 235 l 492 211 l 482 211 l 482 205 l 482 211 l 475 211 l 475 168 l 468 211 l 462 211 l 452 211 l 452 219 l 445 219 l 445 211 l 439 211 l 439 188 l 429 219 l 422 219 l 422 188 l 422 205 l 422 211 b 422 219 423 219 416 219 l 416 211 l 408 211 l 399 198 l 399 228 l 393 228 l 393 219 l 387 219 l 387 211 l 387 219 l 379 219 l 379 211 l 370 211 l 370 198 l 364 219 l 356 219 l 356 188 l 356 211 l 350 211 l 350 175 l 341 219 l 333 219 l 333 211 l 326 211 l 326 188 l 326 205 l 326 211 b 326 213 326 214 325 215 b 324 218 323 219 320 219 l 320 211 b 317 202 316 195 315 188 b 312 171 310 154 310 136 l 310 182 l 310 205 l 310 211 l 310 219 l 303 219 l 303 211 l 300 206 b 298 202 297 196 297 188 l 297 211 l 287 211 l 287 168 l 287 211 l 274 211 l 274 175 l 274 211 l 268 211 l 268 152 l 258 211 l 252 211 l 245 211 l 245 219 l 214 219 l 252 219 l 252 235 l 169 235 l 258 235 l 258 249 l 139 257 l 252 257 b 259 257 258 257 258 264 l 252 264 b 247 264 242 264 235 265 b 224 266 210 267 191 271 l 252 271 l 252 278 l 222 278 l 258 278 l 258 294 l 155 294 l 252 294 l 252 307 l 191 307 l 252 307 l 252 324 l 214 324 l 252 324 l 252 330 l 191 330 l 252 330 l 252 347 l 191 347 l 252 347 l 252 353 l 252 370 l 222 370 l 252 370 l 252 376 l 161 382 l 245 382 l 245 390 l 169 399 l 258 399 l 258 413 l 222 405 l 252 413 l 252 419 l 191 419 l 252 419 l 252 436 l 191 436 l 252 436 l 252 443 l 252 449 b 233 449 216 449 197 450 b 165 451 123 454 86 459 l 133 459 b 162 462 191 464 214 465 b 227 466 239 466 252 466 l 252 479 l 222 472 l 222 479 l 214 479 l 252 479 l 252 495 l 96 495 l 258 511 l 252 517 l 14 517 l 252 524 l 252 532 l 73 547 l 139 555 l 252 555 l 252 561 l 252 570 l 252 578 l 184 578 l 252 578 l 252 585 l 258 585 l 258 591 l 252 591 l 252 600 l 161 600 l 80 608 l 252 614 l 252 621 l 222 621 l 252 621 l 252 636 l 252 653 l 222 653 l 252 653 l 252 659 l 252 673 l 169 673 l 252 673 l 252 689 l 169 689 l 258 689 l 258 703 l 252 703 l 252 712 l 184 712 l 245 712 l 245 719 l 258 719 l 258 733 l 222 733 l 252 733 l 252 742 l 245 742 l 245 749 l 222 749 l 258 749 l 258 755 l 214 755 l 245 755 l 245 772 l 258 772 l 258 778 l 133 785 l 148 785 l 252 778 l 252 785 l 258 785 l 258 801 l 7 808 l 7 801 l -3 801 l -3 785 l 7 785 l 14 785 l 14 778 l 43 778 l 43 772 l 7 772 l 7 762 l 7 755 l 14 755 l 14 749 l 73 749 l 7 749 l 7 733 l 14 733 l 73 733 l 14 733 l 14 726 l 14 719 l 43 719 l 7 719 l 7 703 l 110 703 l 7 696 l 7 689 l 73 689 l 7 689 l 7 673 l 14 673 l 14 666 l 7 666 l 7 659 l 73 659 l 14 659 l 14 643 l 43 643 l 7 643 l 7 636 l 7 630 l 43 630 l 14 630 l 14 614 l 14 608 l 43 608 l 36 608 l 36 600 l -3 600 l -3 585 l 66 585 l 7 585 l 7 570 l 96 570 l 14 570 l 14 555 l 27 555 l 14 555 l 14 547 l 14 541 l 73 532 l 14 541 l 14 524 l 7 524 l 7 501 l 73 511 l 7 501 l 7 495 l 43 495 l 7 495 l 7 479 l 43 479 l 14 479 l 14 472 l 7 472 l 7 466 l 36 466 l 20 466 l 14 466 l 7 466 l 7 459 l 7 449 l 14 449 l 14 443 l 66 443 l 50 443 l 20 443 l 14 443 b 14 441 14 440 13 439 b 12 437 10 436 7 436 b 7 432 8 430 10 429 b 11 428 12 428 14 428 l 103 428 l 14 428 l 14 413 l 126 413 l 14 405 l 14 399 l 50 399 l 50 390 l 57 390 l 14 390 l 14 376 l 96 376 l 50 376 l 20 376 l 14 376 b 14 369 7 377 7 370 l 14 361 l 73 361 l 14 361 l 14 347 l 73 347 l 14 347 l 14 340 l 27 340 l 27 330 l 80 330 l 14 324 l 14 317 l 66 317 l 43 317 l 14 317 l 7 317 l 7 307 l -3 307 b -3 306 -3 305 -2 304 b -1 302 2 301 7 301 l 43 301 l 14 301 l 14 294 l 96 287 l 7 287 l 7 278 l 73 271 l 14 271 l 14 264 l 96 264 b 73 260 53 259 38 258 b 29 257 21 257 14 257 l 14 249 l 73 249 l 14 249 l 14 235 l 96 235 l 14 235 l 14 219 l 169 211 l 73 205 l 50 205 l 20 205 l 14 205 l 7 205 l 7 198 l 7 188 b 14 181 13 182 20 182 l 73 182 l 7 182 l 7 168 l 14 168 l 14 159 l 7 159 l 7 152 l 73 152 l 7 152 l 7 136 l 73 136 l 7 136 l 7 123 l 57 129 l 50 129 b 35 122 27 123 20 123 l 14 123 b 12 123 11 123 10 122 b 8 121 7 119 7 117 l 14 117 l 96 117 l 7 107 l 7 100 l 14 100 l 14 86 l 73 86 l 7 86 l 7 77 l 96 77 l 7 70 l 7 63 l 7 56 l 7 47 l 73 47 l 14 47 l 14 40 l 7 40 b 4 40 3 40 2 39 b -1 38 -3 36 -3 33 b 2 30 5 30 6 31 b 7 32 7 32 7 33 l 7 27 b 14 27 20 33 43 33 l 7 27 l 7 17 l 14 17 l 139 27 l 14 10 l 14 4 l -9 4 b -24 -3 -39 -19 -39 -42 l -39 -56 l -32 -56 l -32 -42 b -32 -25 -24 -12 -9 -12 b -6 -7 -2 -4 1 -3 b 2 -2 4 -2 7 -2 l 14 -2 l 20 -2 l 258 4 l 258 10 l 258 63 l 258 86 l 268 4 l 274 4 l 274 10 l 280 10 l 280 100 l 287 4 l 297 4 l 297 10 l 303 10 l 303 63 l 303 10 l 320 10 l 326 10 l 326 4 l 333 4 l 341 77 l 341 10 l 350 10 l 356 10 l 364 86 l 364 4 l 370 4 l 370 17 l 379 17 l 379 10 l 387 10 l 387 4 l 399 4 l 399 33 l 399 17 l 399 4 l 416 4 l 416 63 l 416 17 l 422 17 l 429 77 l 429 4 l 439 4 l 439 77 l 445 4 l 452 4 l 452 27 l 452 4 l 468 4 l 468 86 l 468 4 l 482 4 l 482 33 l 482 10 l 492 10 l 492 4 l 498 4 l 498 70 l 505 10 l 512 10 l 512 56 b 512 41 513 29 516 22 b 517 17 519 13 520 10 l 527 10 l 527 47 l 527 4 l 541 4 l 541 47 l 541 4 l 550 4 l 550 56 l 558 10 l 564 10 l 564 33 l 564 10 l 571 10 l 581 10 l 581 33 l 587 4 l 594 4 l 594 47 l 594 4 l 610 4 l 610 10 l 610 4 z m 237 27 l 237 17 l 245 17 l 252 10 l 237 10 z m 222 10 l 222 17 l 222 27 b 222 16 228 17 228 10 z m 214 17 l 214 10 l 208 10 l 208 17 z m 228 198 l 228 205 z m 214 198 l 208 198 z m 208 188 l 191 188 z m 208 152 l 191 152 z m 208 123 l 178 123 b 191 123 199 129 208 129 z m 208 117 l 208 107 l 169 107 z m 208 100 l 208 94 l 155 100 z m 199 17 l 199 10 l 116 10 z"},"3":{"x_min":0,"x_max":658,"ha":658,"o":"m 661 234 b 646 234 618 240 587 249 l 655 240 l 655 249 l 655 255 l 640 263 l 655 263 l 661 263 l 670 263 b 670 264 668 266 665 268 b 664 269 663 269 661 269 b 656 269 650 269 643 270 b 632 271 617 273 602 278 l 646 278 l 646 287 l 640 287 l 655 287 l 646 302 l 593 293 b 612 302 625 302 640 302 l 655 302 b 656 302 657 302 658 303 b 660 305 661 307 661 308 l 670 308 b 670 311 668 314 665 316 b 664 317 663 317 661 317 l 632 317 b 639 317 645 318 652 319 l 661 322 l 661 331 l 632 331 l 640 331 l 632 337 l 640 337 l 640 346 l 632 346 l 626 346 l 626 355 l 617 355 b 617 362 611 361 611 370 b 614 365 618 362 621 359 l 626 355 l 632 361 l 623 370 b 616 375 609 383 602 390 b 587 399 580 405 573 414 l 564 414 b 564 423 565 423 558 423 l 549 414 l 558 414 b 558 405 557 406 564 399 b 557 399 558 405 549 405 l 549 414 l 543 414 b 534 423 534 423 525 423 l 525 429 l 534 429 l 543 437 l 534 443 b 534 440 535 439 538 438 b 539 437 540 437 543 437 l 543 443 b 543 445 543 446 542 447 b 540 450 537 452 534 452 b 541 447 548 445 552 444 b 554 443 556 443 558 443 l 564 437 l 564 443 l 564 452 l 558 452 l 549 458 b 556 455 563 454 567 453 b 569 452 571 452 573 452 l 579 452 l 579 458 l 564 473 b 572 470 579 466 584 463 b 588 460 591 459 593 458 l 593 473 l 587 473 l 543 496 b 550 496 564 491 579 491 b 586 486 592 484 596 483 b 598 482 600 482 602 482 b 604 482 605 482 606 483 b 609 484 611 487 611 491 l 602 491 b 602 492 602 492 601 493 b 599 495 596 496 593 496 b 597 493 602 493 605 492 b 606 491 608 491 611 491 l 617 491 b 619 491 620 491 621 492 b 624 493 626 495 626 496 l 617 496 l 617 505 l 611 505 l 640 505 l 640 511 b 638 511 636 511 634 512 b 630 513 624 515 617 520 l 640 520 l 646 520 l 646 526 l 640 526 l 621 530 b 609 533 595 535 579 535 l 632 535 l 632 541 l 617 541 l 632 541 l 632 558 l 587 558 l 640 558 b 647 558 646 557 646 564 l 640 564 l 626 564 l 632 564 l 632 573 l 640 573 l 640 588 l 573 579 b 602 588 625 588 640 588 l 640 594 l 646 594 l 646 603 l 640 603 b 632 603 626 603 611 594 l 632 603 l 632 609 l 626 609 l 640 617 l 640 626 l 617 620 l 573 609 b 558 609 534 603 525 603 b 520 603 511 603 511 594 l 505 594 l 505 588 l 428 579 l 472 603 b 488 610 523 627 554 642 b 573 651 591 660 611 671 l 602 679 b 599 678 596 676 592 673 l 564 656 l 611 685 l 602 694 b 610 694 616 695 620 697 l 626 700 l 617 709 l 558 679 l 602 724 l 593 724 l 525 671 l 579 715 l 573 724 l 558 715 l 573 724 l 564 730 l 558 730 l 564 730 l 558 738 l 552 732 l 534 715 l 558 738 l 549 747 l 520 724 l 543 747 l 534 753 l 496 709 l 525 753 l 520 762 l 472 700 l 520 768 l 511 777 l 505 768 l 452 694 l 490 777 l 481 777 l 466 747 l 481 777 l 466 783 l 458 783 l 437 730 l 458 792 l 452 792 l 443 792 l 437 792 l 413 724 l 428 797 l 422 797 l 404 747 l 413 797 l 404 806 l 399 797 l 390 797 l 390 783 l 390 797 l 384 797 l 375 777 l 375 797 l 369 806 l 369 792 l 369 797 l 354 797 l 354 806 l 345 806 l 345 792 l 345 806 l 337 806 l 331 762 l 331 806 l 322 806 l 316 753 l 307 806 l 301 806 l 292 730 l 292 806 l 286 806 l 286 783 l 278 806 l 269 806 l 278 715 l 263 797 l 254 797 l 254 783 l 248 797 l 239 797 l 248 738 l 233 797 l 225 792 l 233 762 l 219 792 l 210 792 l 225 715 l 201 792 l 195 792 b 196 785 196 780 199 773 b 202 761 205 746 210 730 l 186 777 l 180 777 l 186 747 b 183 758 179 765 176 770 l 171 777 l 166 777 l 180 730 l 180 738 l 165 759 l 157 768 l 151 768 l 157 762 l 171 738 b 171 730 180 724 180 715 b 187 708 186 700 195 700 l 142 768 l 133 762 l 133 768 l 127 768 l 127 762 b 127 753 126 753 133 753 b 142 738 157 715 166 694 b 171 685 171 686 180 679 b 165 694 150 712 138 727 l 118 753 l 112 747 l 115 741 b 116 738 118 734 118 730 l 104 747 l 98 738 l 104 730 l 104 738 l 98 730 l 127 700 l 89 730 l 80 724 l 91 715 b 98 710 105 704 112 700 b 104 700 98 709 89 709 b 84 712 81 716 78 719 l 74 724 l 65 724 l 65 715 l 74 709 l 65 715 l 59 709 l 59 700 l 89 679 l 50 700 l 45 694 l 112 647 l 45 679 l 36 671 l 59 662 l 36 671 l 36 662 l 104 626 l 21 647 l 21 641 l 118 609 b 89 617 65 617 50 626 b 45 626 37 632 30 632 l 21 632 l 12 632 l 12 626 l 21 626 l 12 626 l 12 617 b 15 616 16 614 19 613 b 25 610 34 609 45 609 l 6 609 l 6 603 l 59 588 l 6 594 l 6 588 l 36 579 l 6 588 l 6 573 l 45 573 l 6 573 l 6 558 l 12 558 l 6 558 l -3 558 l -3 550 l 6 550 b 30 550 58 550 89 541 l -3 541 l -3 535 l 210 526 l 219 535 l 210 535 l 210 541 l 210 550 l 201 550 l 210 550 l 210 558 l 219 558 l 219 573 b 214 573 210 573 207 574 b 200 575 191 576 180 579 b 191 576 200 575 207 574 b 210 573 214 573 219 573 l 219 579 l 225 579 l 225 588 l 233 594 l 201 632 l 210 632 l 233 603 l 239 603 l 219 647 l 239 609 l 254 617 l 239 641 l 248 641 l 254 617 l 263 626 l 254 647 l 263 626 l 278 626 l 269 662 l 269 679 l 278 656 l 278 641 l 278 626 l 292 632 l 292 641 l 292 632 l 301 632 l 307 656 l 307 641 l 316 641 l 316 632 l 322 632 l 322 641 l 337 641 l 337 656 l 337 632 l 345 632 l 360 632 l 360 641 l 360 632 l 369 626 l 369 632 l 375 632 l 375 626 l 384 617 l 390 641 l 390 626 l 390 617 l 399 617 l 404 626 l 399 617 l 404 609 l 413 617 l 404 609 l 413 603 l 422 594 l 437 603 l 422 594 l 428 588 l 422 588 l 428 579 l 428 564 l 443 573 l 428 564 l 428 558 l 428 550 l 437 550 l 458 550 l 428 550 l 428 541 l 466 535 l 428 541 l 422 535 l 422 526 l 422 520 b 423 520 425 520 426 519 l 437 511 l 426 519 b 425 520 423 520 422 520 l 422 511 l 413 520 l 413 511 l 404 520 l 399 511 l 399 505 l 390 505 l 390 496 l 384 496 l 390 482 l 384 496 l 375 496 l 375 491 l 369 491 l 369 496 l 354 496 l 360 437 l 354 496 l 337 496 l 337 467 l 337 491 l 331 491 l 331 458 l 322 491 l 316 491 l 316 467 l 316 491 l 307 491 l 307 482 l 307 491 l 292 491 l 292 452 l 292 491 l 286 491 l 286 482 l 278 491 l 269 491 l 269 473 l 269 496 l 263 491 l 254 491 l 254 337 l 263 337 l 269 376 l 269 337 l 278 337 l 278 346 l 286 346 l 286 376 l 292 346 l 301 346 l 301 405 l 307 346 l 316 346 l 316 355 l 322 355 l 322 390 l 331 355 l 337 355 l 337 370 l 337 355 l 337 346 l 354 346 l 399 322 l 404 317 l 422 308 l 422 317 l 428 308 b 428 310 428 311 429 312 b 430 315 433 317 437 317 b 428 317 429 308 422 308 b 422 301 421 302 428 302 l 428 293 l 472 302 l 437 287 l 437 278 l 466 278 l 437 278 b 433 278 430 276 429 273 b 428 272 428 271 428 269 l 437 269 l 428 263 l 452 255 l 428 263 l 428 249 l 422 240 l 428 240 l 422 234 l 437 216 l 422 225 l 413 225 l 404 216 l 413 210 l 404 210 l 399 210 l 404 196 l 399 201 l 390 201 l 390 196 l 390 187 l 390 181 l 384 196 l 375 196 l 375 187 l 369 187 l 369 196 l 354 187 l 354 181 l 354 187 l 345 187 l 331 187 l 331 166 l 331 181 l 316 181 l 316 187 l 307 187 l 307 181 l 292 181 l 292 157 l 292 187 l 286 187 l 286 172 l 278 172 l 278 187 l 269 187 l 269 181 l 263 181 l 263 166 l 254 134 l 254 148 l 263 196 l 254 196 l 248 172 l 254 196 l 239 201 l 233 181 l 239 210 l 233 210 l 201 172 l 233 216 l 219 225 l 186 187 l 219 225 l 210 234 l 210 249 l 201 240 l 201 249 l 201 255 l 188 251 l 157 240 l 188 251 l 201 255 l 195 269 l 195 278 l 180 278 l 195 278 l 195 287 l 186 293 l 195 293 l 195 308 l -38 302 l -38 287 l 65 287 b 30 287 -8 278 -23 278 l -32 278 l -38 278 l -38 269 l -32 269 l -23 269 l -17 269 l -32 269 l -32 255 l 12 255 l -32 255 l -32 240 l 6 240 l -32 234 l -32 225 l 30 234 l -23 216 l -23 210 b -18 210 -15 210 -13 211 b -6 212 1 213 12 216 b 1 213 -6 209 -13 206 l -23 201 l -23 196 l -9 196 l -17 196 l -23 196 l -23 187 l -17 187 b -1 187 43 202 89 210 l -17 172 l -9 166 l 74 196 l -3 148 l 6 142 l 30 148 l 6 142 l 6 134 l 89 166 l 12 119 l 21 113 l 65 134 l 30 113 l 30 104 l 36 98 l 45 98 l 36 98 l 36 89 b 36 87 36 86 37 85 b 38 82 40 81 45 81 l 45 89 l 50 89 b 59 98 73 104 80 113 b 65 98 59 89 50 81 l 59 75 l 104 113 l 65 75 l 74 66 l 80 75 l 74 66 l 80 60 l 98 75 b 93 70 91 67 90 64 b 89 63 89 61 89 60 l 98 51 l 111 70 l 142 113 b 151 120 150 127 157 134 b 150 119 142 104 127 89 b 118 74 119 67 112 60 l 112 51 l 104 51 l 104 45 l 104 36 l 112 36 l 118 36 l 171 113 b 171 104 166 98 166 89 b 157 81 151 75 151 66 l 133 36 l 127 36 l 142 30 l 147 40 b 150 47 154 55 157 66 l 166 75 l 142 30 l 151 22 l 156 32 l 171 60 l 157 30 l 166 22 l 195 75 b 190 60 185 45 180 33 l 171 13 l 186 7 l 210 89 l 186 7 l 201 7 l 219 45 l 210 7 l 219 -2 l 233 66 l 225 -2 l 233 -2 l 239 13 l 239 -2 l 248 -2 l 263 98 l 254 -8 l 269 -8 l 269 13 l 269 -8 l 286 -8 l 286 75 l 292 -8 l 301 -8 l 307 45 l 316 -8 l 322 -8 l 322 36 l 331 -8 l 337 -8 l 337 7 l 345 -8 l 354 -8 l 354 -2 l 360 -2 l 360 7 l 369 -8 l 375 -2 l 375 22 l 375 -2 l 390 -2 l 390 13 l 390 -2 l 399 -2 l 404 -8 l 413 -2 l 404 60 l 422 -2 l 428 -2 l 413 89 l 443 7 l 452 7 l 458 13 l 437 75 l 466 13 l 472 13 l 490 22 l 472 51 l 490 22 l 496 30 l 458 113 l 511 30 l 511 36 l 520 30 l 525 36 l 481 104 l 534 45 l 543 45 l 505 98 l 543 51 l 549 60 b 548 64 546 67 545 69 l 534 89 l 558 60 l 564 66 l 549 89 b 558 74 564 66 573 66 l 579 75 l 573 81 l 579 75 l 587 81 l 573 98 l 587 81 l 593 89 l 543 142 l 617 81 l 626 89 l 573 134 l 640 98 l 646 113 b 643 113 640 113 638 114 b 634 115 629 116 626 119 l 626 128 l 579 157 b 590 152 602 147 611 142 l 626 134 l 626 148 b 621 149 616 151 611 154 b 602 158 590 164 579 172 l 587 172 b 602 164 619 158 632 151 l 655 142 l 655 157 l 593 181 l 646 166 l 646 172 l 655 172 l 655 166 b 657 166 659 167 660 169 b 661 170 661 171 661 172 l 661 181 b 654 181 647 180 640 187 l 625 192 b 618 195 607 198 593 201 b 592 201 591 201 590 202 b 588 203 587 205 587 210 b 579 210 573 209 564 216 b 573 209 579 210 587 210 b 606 205 624 203 639 200 l 661 196 l 661 201 l 640 210 l 655 210 l 655 216 l 626 225 l 640 225 l 655 225 l 661 216 l 670 216 l 670 225 l 670 234 z m 611 337 l 617 337 z m 525 656 b 520 647 505 641 496 632 z m 481 632 l 481 626 l 458 617 z m 151 564 l 157 558 l 151 558 z m 151 579 b 142 579 142 579 133 588 z m 180 535 l 151 535 l 171 541 z m 180 609 l 180 617 l 186 609 z m 171 641 l 166 647 l 171 647 l 186 632 l 201 617 z m 286 671 l 286 662 z m 322 685 l 322 700 l 322 724 l 322 700 z m 331 700 l 337 730 l 337 724 z m 360 709 l 360 700 l 360 715 l 360 724 z m 354 361 l 354 423 l 360 355 z m 369 405 l 375 384 l 369 384 z m 369 384 l 375 376 l 375 346 b 375 348 375 349 374 350 b 372 353 370 355 369 355 z m 422 390 l 428 384 l 422 384 z m 404 337 b 399 337 391 337 384 346 l 390 346 l 390 361 l 390 346 l 404 346 l 404 355 b 404 346 413 346 413 337 z m 422 346 b 422 349 420 352 417 354 b 416 355 415 355 413 355 l 422 355 z m 428 361 l 422 361 l 428 361 l 428 370 z m 166 210 l 157 201 l 157 210 z m 166 293 l 151 293 l 127 293 z m 127 249 b 127 240 119 240 112 240 z m 127 263 l 127 269 l 142 269 z m 171 187 l 166 187 l 142 166 l 153 176 l 157 181 l 186 201 z m 316 81 l 316 113 l 316 128 l 316 113 z m 331 81 l 331 113 z m 360 98 l 360 104 l 360 98 l 360 89 z m 505 535 b 512 535 520 535 525 526 z m 520 405 l 520 414 l 525 414 z m 505 234 l 481 240 z m 505 437 l 496 437 z m 496 361 l 481 355 l 490 361 b 491 361 492 361 493 362 b 495 364 496 367 496 370 z m 490 473 l 472 482 b 481 482 481 473 490 473 z m 466 443 l 458 443 l 458 452 z m 443 376 l 437 384 l 443 384 z m 452 390 l 443 399 z m 458 390 l 452 405 l 458 405 b 458 398 458 399 466 399 z m 472 505 b 471 505 470 505 469 506 b 467 507 466 508 466 511 b 466 508 467 507 469 506 b 470 505 471 505 472 505 z m 466 429 l 481 429 l 490 423 l 481 414 z m 466 322 b 473 331 472 331 481 331 b 472 331 473 322 466 322 z m 490 187 l 466 201 l 490 196 z m 472 225 l 511 210 b 508 210 507 208 509 205 l 511 201 b 496 210 490 216 481 216 z m 534 157 l 505 187 b 520 180 525 173 534 166 z m 511 302 l 534 302 z m 593 376 l 602 376 z m 593 361 b 593 358 594 357 597 356 b 598 355 599 355 602 355 b 587 346 573 346 549 337 z"},";":{"x_min":0,"x_max":242,"ha":242,"o":"m 26 495 l 26 489 l 53 489 l 26 489 l 26 475 l 59 475 l 20 475 l 20 469 l 67 469 l 40 469 l 40 456 l 113 456 l 26 456 l 26 442 l 26 448 l 26 442 l 73 442 l 47 442 b 45 442 44 442 43 441 b 41 440 40 438 40 436 l 47 436 l 73 436 b 60 432 48 431 40 430 b 35 429 30 429 26 429 l 26 422 l 80 422 l 34 422 l 34 409 l 94 409 l 26 409 l 26 395 l 100 395 l 34 395 l 34 389 l 106 382 l 34 382 l 34 370 l 34 362 l 120 362 b 96 359 74 358 55 357 b 44 356 35 356 26 356 l 26 349 l 86 349 l 26 343 l 26 335 l 86 335 b 69 335 57 333 48 332 l 34 329 l 34 323 l 120 323 b 80 316 53 316 40 316 l 34 316 l 26 316 b 26 309 26 309 34 309 l 40 309 l 86 309 l 34 302 l 34 296 l 233 296 l 233 302 l 180 302 l 219 309 l 219 316 l 233 316 l 233 323 b 228 323 222 323 215 324 b 203 325 186 326 166 329 l 233 329 l 233 335 l 127 343 l 193 343 l 193 356 l 186 356 l 233 356 l 233 362 b 226 362 218 362 211 363 b 198 364 179 366 160 370 l 226 370 l 226 376 l 160 376 l 233 382 l 233 389 l 172 389 l 233 395 l 233 403 l 172 403 l 207 403 b 214 403 219 409 226 409 l 233 409 l 240 409 l 240 415 l 233 415 l 186 415 l 199 415 l 226 415 l 233 415 l 240 422 b 238 422 237 422 236 423 b 234 424 233 426 233 429 l 186 429 l 207 429 l 213 429 l 219 429 l 219 436 l 193 436 l 207 436 l 226 436 l 233 436 l 233 442 l 240 442 b 240 449 240 448 233 448 l 139 448 b 162 448 185 449 204 452 b 215 453 224 455 233 456 l 233 462 l 193 462 l 207 462 l 226 462 l 233 462 l 240 462 l 240 469 l 240 475 l 233 475 l 219 475 l 226 475 l 233 475 l 240 475 l 240 483 l 193 483 l 199 483 b 207 483 219 482 226 489 l 233 489 b 234 489 235 489 236 490 b 237 491 236 492 233 495 z m 40 462 l 40 469 l 40 462 l 40 456 z m 26 442 l 26 448 z m 34 370 l 34 362 z m 34 329 l 26 329 z m 26 329 b 26 326 27 325 30 324 b 31 323 32 323 34 323 l 34 329 l 26 323 z m 23 -197 l 73 -197 l 73 -183 l 116 -183 l 116 -175 l 109 -175 l 138 -175 l 138 -161 l 116 -161 l 153 -161 l 153 -154 l 144 -150 b 138 -147 131 -146 124 -146 l 175 -146 l 175 -140 l 116 -140 l 189 -132 l 189 -125 l 182 -125 l 196 -125 l 196 -109 l 189 -109 l 196 -109 l 196 -103 l 204 -103 l 204 -95 l 182 -95 l 210 -95 l 210 -88 l 218 -88 l 218 -74 l 196 -74 l 218 -74 l 218 -66 l 182 -59 l 182 -52 l 160 -52 l 225 -52 l 225 -45 l 218 -45 l 233 -45 l 233 -31 l 175 -31 b 190 -27 204 -25 215 -24 b 222 -23 228 -23 233 -23 l 239 -23 l 239 -16 l 233 -16 l 204 -16 l 239 -8 l 233 -1 l 218 -1 l 239 -1 l 239 6 l 189 14 l 239 14 l 239 21 l 189 21 l 239 21 l 239 35 l 225 35 l 239 35 l 239 43 l 153 49 l 225 49 l 225 57 l 233 57 l 225 57 l 204 57 l 233 57 l 239 57 l 239 64 l 247 64 l 247 72 l 239 72 l 233 72 l 196 72 l 239 72 l 239 78 l 218 78 l 233 78 l 233 86 l 233 93 l 146 93 l 233 101 l 233 107 l 204 107 l 239 107 l 239 123 l 196 123 l 233 123 l 233 130 l 182 130 l 239 137 l 239 144 l 130 144 l 239 152 l 239 158 l 225 158 l 225 166 l 218 166 b 210 166 190 173 167 173 l 247 173 l 247 181 l 175 181 l 247 187 l 247 195 l 233 195 l 239 195 l 239 202 b 235 203 231 205 226 206 b 219 209 209 210 196 210 l 233 210 l 233 216 l 15 224 l 15 210 l 51 210 l 23 210 l 23 202 l 87 202 b 66 202 51 201 41 198 l 23 195 l 23 187 l 44 187 l 7 187 l 7 181 l 23 181 l 23 166 l 58 166 l 15 166 l 15 158 l 124 152 l 15 144 l 15 137 l 73 137 l 15 137 l 15 123 l 80 123 l 15 123 l 15 115 l 109 107 l 37 107 l 37 101 l 23 93 l 23 86 l 15 86 l 15 78 l 95 78 l 23 72 l 23 64 l 66 64 l 15 64 l 15 49 l 44 49 l 15 49 l 15 43 l 44 43 l 29 43 l 23 43 l 15 43 l 15 35 l 15 28 l 95 28 l 15 28 l 15 14 l 73 14 l 15 14 l 15 6 l 138 -1 l 109 -1 l 116 -8 l 138 -8 l 109 -16 l 109 -23 l 130 -23 l 109 -23 l 109 -37 l 146 -37 l 138 -37 l 124 -37 l 116 -37 l 116 -45 l 95 -45 l 95 -52 l 116 -52 l 95 -52 l 87 -52 l 87 -66 l 146 -66 l 73 -74 l 73 -81 l 66 -81 l 66 -88 l 44 -88 l 44 -95 l 23 -95 l 23 -109 l 29 -109 l 23 -109 l 15 -109 l 15 -117 l 58 -117 l 44 -117 l 29 -117 l 23 -117 l 15 -117 l 15 -125 l 15 -132 l 23 -132 l 51 -132 l 15 -132 l 15 -140 l 23 -140 l 23 -146 l 15 -146 l 15 -154 l 66 -154 l 15 -161 l 15 -168 l 29 -168 l 15 -168 l 15 -175 l 29 -175 b 22 -175 23 -175 23 -183 l 15 -183 l 7 -183 l 15 -190 l 23 -190 z m 225 -52 l 233 -52 l 225 -45 z m 233 -52 l 233 -45 z m 233 -45 l 225 -45 z m 225 49 l 225 57 z m 233 57 b 233 49 233 49 225 49 b 233 49 233 49 233 57 z"},"J":{"x_min":0,"x_max":604,"ha":604,"o":"m 571 485 l 496 485 l 535 485 l 556 485 l 562 485 l 571 485 l 571 494 l 571 500 l 505 500 l 571 500 l 571 506 l 505 515 l 571 515 l 571 521 l 520 521 l 571 530 l 571 536 l 520 536 l 571 536 l 571 551 l 541 551 l 571 551 l 571 557 l 475 557 l 571 566 l 571 572 l 520 572 l 571 581 l 571 587 l 562 587 l 571 587 l 571 593 l 556 593 l 562 593 l 571 593 l 571 608 l 382 638 l 571 653 l 571 659 b 562 659 553 659 542 660 b 523 661 500 663 475 668 l 571 668 l 571 674 l 454 680 l 571 689 l 571 695 l 535 695 l 571 695 l 571 704 l 484 710 l 571 710 l 571 716 l 505 725 l 535 725 l 562 725 l 571 725 l 577 725 l 577 731 l 571 731 l 520 731 b 533 731 547 732 556 735 b 559 736 564 737 571 740 l 571 746 l 520 746 l 571 746 l 571 761 l 562 761 l 571 761 l 571 767 l 562 767 l 571 767 l 571 776 l 577 776 l 577 782 l 571 782 l 571 797 l 331 791 l 331 782 l 337 782 l 331 782 l 331 767 l 382 767 l 331 767 l 331 761 l 337 761 l 331 761 l 331 746 l 337 746 l 331 746 l 331 740 l 382 740 l 331 740 b 331 736 329 733 326 732 b 325 731 324 731 322 731 b 325 731 328 730 330 728 b 331 727 331 726 331 725 l 403 725 l 331 725 l 331 716 l 403 710 l 331 710 l 331 704 l 361 704 l 331 704 b 331 701 331 700 330 699 b 329 696 327 695 322 695 b 322 692 323 691 326 690 b 327 689 328 689 331 689 l 448 689 l 331 680 l 331 674 l 418 674 b 391 671 370 670 355 669 b 346 668 338 668 331 668 l 322 668 l 322 659 l 331 659 b 336 659 398 653 454 653 l 337 644 l 337 638 l 526 608 l 331 608 l 331 602 l 337 602 l 331 602 l 331 593 l 322 587 b 322 584 323 583 326 582 b 327 581 328 581 331 581 l 403 581 l 331 581 l 331 566 l 382 566 l 331 566 l 331 557 l 382 551 l 331 551 l 331 542 l 382 542 l 331 542 l 331 530 l 382 530 l 331 530 l 331 521 l 388 515 l 331 515 l 331 506 l 418 506 l 331 500 l 331 494 l 337 494 l 331 494 l 331 485 l 351 482 b 364 480 381 479 403 479 l 331 479 l 331 470 l 403 464 l 367 464 l 337 464 l 331 464 l 322 464 l 322 458 l 331 458 l 337 458 l 367 458 l 439 458 l 331 449 l 331 443 l 337 443 l 331 443 l 331 434 l 409 428 l 331 428 l 331 419 b 336 419 339 419 341 418 b 348 417 356 416 367 413 l 331 413 l 331 407 l 382 407 l 331 407 l 331 392 l 418 392 l 409 392 b 408 392 407 392 406 391 b 404 390 403 387 403 383 l 409 383 l 424 380 b 433 378 445 377 460 377 l 448 377 l 331 377 l 331 362 l 448 362 b 417 359 390 358 367 357 b 354 356 342 356 331 356 l 331 347 l 403 347 l 331 341 l 331 332 l 331 326 l 331 320 l 367 320 l 331 320 l 331 305 l 367 305 l 331 305 l 322 305 l 322 296 l 331 296 l 361 296 l 331 296 l 331 285 l 403 285 l 331 285 l 331 270 l 367 270 l 331 270 l 322 270 b 322 265 323 263 326 262 b 327 261 328 261 331 261 l 361 261 l 331 261 l 331 246 l 337 246 l 331 246 l 331 240 l 367 240 l 331 240 l 331 234 l 331 225 l 322 219 l 322 210 l 316 204 l 322 189 l 316 204 l 310 198 l 322 153 l 310 189 l 301 189 l 301 147 l 295 183 l 286 183 l 281 183 l 275 183 l 275 162 l 275 183 l 260 183 l 251 183 l 245 189 l 224 162 l 245 189 l 239 198 l 239 189 l 230 198 l 224 204 l 224 210 l 215 210 l 215 219 l 179 219 l 215 219 l 215 234 l 209 234 l 215 234 l 215 240 l 215 246 l 209 246 l 209 255 l 215 255 l 215 270 l 164 270 l 209 270 l 209 276 l 179 285 l 209 285 l 209 291 l 164 291 l 209 291 l 209 305 l 179 305 l 209 305 l 209 311 l 137 320 l 209 320 l 209 326 l 179 326 l 209 326 l 209 341 l -1 347 l -1 332 l 56 332 l -1 332 l -1 326 l 26 320 l -1 320 l -1 311 l 41 311 l -10 311 l -10 305 l -10 296 l 41 296 l -1 296 l -1 291 l 41 285 l -10 285 l -10 276 l 56 276 l -1 276 l -1 261 l 71 261 l -10 261 l -10 255 l -10 246 l -1 246 l 26 246 l -1 246 l -1 240 l 5 240 l -1 240 l -1 225 l 86 225 l -1 225 l -1 210 l 50 210 l -1 210 l -1 198 l 65 204 l -1 198 l 5 189 l 14 189 l 5 189 l 5 174 l 26 183 l 5 174 l 14 168 l 20 162 l 56 168 b 53 165 50 164 46 163 b 45 162 43 162 41 162 b 34 162 27 153 20 153 l 14 153 l 14 147 l 20 147 l 41 147 l 20 138 l 26 132 l 71 147 l 26 123 l 26 117 l 86 138 l 35 117 l 41 102 l 77 123 l 50 111 l 56 102 l 50 96 l 56 87 l 107 117 l 56 81 l 65 75 l 122 111 l 71 75 l 77 66 l 128 102 l 77 60 l 86 51 l 92 51 b 85 51 86 52 86 45 l 92 45 l 101 45 b 101 52 113 60 128 75 l 122 66 b 113 59 114 51 107 51 l 107 45 l 107 36 l 113 36 l 118 42 b 121 46 125 52 128 60 b 137 67 143 74 152 81 l 122 36 l 128 36 l 128 30 l 137 30 l 179 81 b 164 66 158 52 158 45 b 151 36 152 30 143 30 l 143 24 l 143 15 l 152 15 b 152 24 173 50 194 81 l 164 15 l 173 15 l 209 96 l 179 9 l 188 9 l 194 15 l 209 45 l 200 9 l 209 9 l 230 81 l 215 9 l 224 0 l 230 9 l 230 0 l 239 0 l 245 51 l 245 9 l 245 0 l 251 0 b 251 2 251 3 252 4 b 253 7 256 9 260 9 l 251 0 l 266 0 l 275 66 l 275 9 l 281 9 l 281 15 l 281 9 l 286 9 l 295 30 l 295 0 l 301 0 l 301 51 l 310 0 l 316 0 l 316 36 l 322 0 l 331 0 l 346 0 l 337 45 l 346 9 l 352 9 l 352 24 l 361 9 l 361 0 l 367 9 l 361 36 l 373 9 l 382 9 l 361 75 l 382 15 l 388 15 l 388 30 l 397 9 l 403 15 l 388 66 l 409 24 l 424 24 l 403 66 l 433 30 l 439 36 l 439 30 l 448 36 l 424 75 l 454 36 l 460 45 l 448 75 b 448 66 454 67 454 60 l 460 51 b 460 50 460 49 461 48 b 462 46 464 45 469 45 l 469 51 l 475 51 b 475 60 469 59 469 66 b 460 75 460 74 460 81 l 475 60 l 484 60 l 484 66 l 490 60 l 496 66 l 484 81 l 490 75 l 496 81 l 454 123 l 505 87 l 511 87 l 520 87 l 526 96 l 490 123 l 520 102 l 526 111 b 521 115 515 119 508 123 l 469 147 l 460 153 b 479 145 496 136 511 129 l 535 117 l 541 123 l 496 153 b 496 146 496 147 505 147 b 508 147 512 145 515 142 l 520 138 l 526 138 l 535 132 l 541 132 l 547 132 l 547 138 l 541 138 b 541 140 541 141 540 142 b 538 145 536 147 535 147 l 526 147 b 505 154 475 168 439 183 l 424 198 l 547 162 l 556 168 l 490 189 l 556 183 l 556 189 l 484 204 l 562 198 l 562 204 l 433 219 l 562 210 l 571 219 l 439 240 l 571 234 l 571 240 l 424 255 l 571 255 l 571 270 l 520 270 l 571 270 l 571 276 l 541 276 l 571 276 l 571 291 l 571 296 l 520 296 l 571 296 l 571 311 l 520 311 l 535 311 l 562 311 l 571 311 b 572 311 573 311 574 312 b 576 314 577 317 577 320 l 571 320 l 496 320 l 571 326 l 571 332 l 541 332 l 571 332 l 571 347 l 571 356 l 490 356 l 535 356 l 562 356 l 571 356 l 571 362 l 577 362 l 577 371 l 571 371 l 490 371 l 535 371 l 562 371 l 571 371 b 571 373 572 375 574 376 b 575 377 576 377 577 377 l 577 383 l 571 383 l 556 383 l 562 383 l 571 383 l 571 392 l 562 392 b 555 392 527 391 484 398 l 562 398 l 562 407 l 526 407 l 535 407 b 542 407 556 406 556 413 l 562 413 l 571 413 l 571 419 l 460 419 l 571 428 l 571 434 l 520 434 l 571 443 l 571 449 l 562 449 l 571 449 l 571 458 b 564 458 559 458 556 459 b 547 460 533 461 520 464 l 577 464 l 577 470 l 541 470 l 562 470 l 571 470 l 577 470 l 577 479 l 577 485 z m 331 695 l 331 704 z m 143 198 l 137 204 l 158 204 z m 113 168 l 152 183 l 143 183 l 179 189 l 137 174 z m 164 168 l 143 153 l 143 162 l 179 174 z m 200 147 l 209 153 z m 209 153 l 209 162 l 215 162 z m 224 147 l 224 138 l 215 132 z m 230 147 l 239 162 z m 260 51 l 260 45 l 260 81 z m 310 81 l 310 87 z m 322 123 l 322 132 z m 331 162 l 322 168 z m 337 96 l 337 87 z m 397 204 b 388 211 374 210 367 210 l 397 210 z m 397 183 l 373 198 l 373 189 l 361 204 b 373 197 382 189 397 189 z m 352 174 l 352 168 l 337 183 z m 337 153 l 352 132 l 352 111 z m 367 111 l 367 117 l 373 111 z m 361 168 l 382 153 l 373 147 l 397 111 z m 403 123 l 397 138 l 409 123 z m 448 81 b 439 96 425 110 418 117 l 424 111 l 433 102 b 440 102 439 88 448 81 z m 424 132 l 382 168 l 373 174 l 403 153 z m 439 204 l 454 198 l 418 204 z"},"V":{"x_min":0,"x_max":676,"ha":676,"o":"m 669 768 l 697 768 l 697 776 l 705 776 l 705 790 l 457 790 l 457 776 l 457 768 l 457 759 l 451 759 l 451 754 l 451 746 l 479 738 l 451 738 l 451 731 l 442 731 l 442 725 l 479 725 l 451 725 l 442 725 l 442 717 l 442 709 l 435 709 l 435 695 l 435 702 l 435 688 l 435 680 l 457 680 l 451 680 l 435 680 l 428 680 l 428 673 l 435 673 b 437 673 439 673 440 672 b 443 671 446 669 451 665 l 485 665 l 428 665 l 428 657 l 420 657 l 420 652 l 428 652 l 428 645 l 420 645 l 420 629 l 420 637 l 420 623 l 420 615 l 420 607 l 451 607 l 415 607 l 415 600 l 415 592 l 407 592 l 407 586 l 407 572 l 399 572 l 399 556 l 399 550 l 451 550 l 399 550 l 399 542 l 391 542 l 391 535 l 391 527 l 391 521 l 384 521 l 384 513 l 384 497 l 399 497 l 384 497 l 384 491 l 399 491 l 378 491 l 378 485 l 391 477 l 378 485 l 378 468 l 428 468 l 378 468 l 378 461 l 428 456 l 391 456 l 378 456 l 369 456 l 369 448 l 289 448 l 289 456 l 289 461 l 289 468 l 203 468 l 283 477 l 283 485 l 253 485 l 289 491 l 289 497 l 203 497 l 275 497 l 275 513 l 182 513 l 275 521 l 275 527 l 166 521 l 268 535 l 268 542 l 195 542 l 247 542 l 253 542 b 260 542 260 542 260 550 l 268 550 l 268 556 l 260 556 l 247 556 b 232 556 211 550 182 550 l 260 556 l 260 572 l 216 572 l 260 572 l 268 572 l 268 578 l 260 578 l 260 586 l 253 586 l 253 600 l 247 600 l 253 600 l 253 607 l 182 607 l 247 607 l 247 623 l 166 623 l 247 623 l 247 637 l 210 637 l 239 637 l 247 637 l 247 645 l 239 645 b 234 645 231 645 224 646 l 188 652 l 239 652 l 239 657 l 114 657 l 232 665 l 232 680 l 174 673 l 232 680 l 232 688 l 174 688 l 224 695 l 224 702 l 174 702 l 224 702 l 224 717 l 166 717 l 216 717 l 216 725 l 210 725 l 216 725 l 216 738 l 158 738 l 216 738 l 216 746 l 203 746 l 210 746 l 210 759 l 166 754 l 203 759 l 203 768 l 195 768 l 203 768 l 203 776 l 210 776 l 210 783 b 210 804 216 811 232 818 b 247 826 275 825 306 832 b 313 832 326 841 334 849 b 349 857 349 861 349 877 l 341 877 b 341 861 334 857 318 849 b 305 841 276 841 247 832 b 224 832 203 819 203 790 l -30 790 l -30 776 l 43 776 l -30 776 l -30 759 l 86 759 l -30 754 l -30 746 l -22 738 l -22 725 l -16 725 l -22 725 l -16 717 l 49 717 l -16 717 l -16 702 l -9 702 l -16 702 l -9 695 l 86 695 l -9 688 l -9 680 l 64 680 l -9 673 l -9 665 l 28 665 l -2 665 l -2 652 l 6 652 l 6 645 l 49 645 l 6 645 l 6 629 l 114 629 l 13 623 l 13 615 l 86 615 l 13 615 l 13 600 l 109 600 l 13 592 l 13 586 l 21 586 l 21 578 l 64 578 l 28 578 l 28 564 b 35 564 49 564 64 572 b 55 569 47 566 38 565 b 34 564 31 564 28 564 l 28 556 l 158 556 l 28 542 l 28 535 l 109 535 b 86 535 66 534 51 531 l 28 527 l 28 521 l 43 521 l 43 513 l 35 513 l 35 497 l 94 497 l 43 497 l 43 491 l 49 491 l 43 491 l 43 477 l 145 477 l 49 468 l 49 461 l 56 461 l 56 456 l 86 456 l 71 456 l 64 456 l 56 456 l 56 448 l 56 441 b 64 441 71 448 94 448 l 64 441 l 64 433 l 71 433 l 71 425 l 79 425 l 71 425 l 71 412 l 79 419 l 71 412 l 71 404 l 79 404 l 71 404 l 71 395 l 150 395 l 79 388 l 79 382 l 129 382 l 86 382 l 86 367 l 129 367 l 86 367 l 86 360 l 122 360 l 94 360 l 94 354 l 94 346 l 137 346 l 94 346 l 94 338 l 94 323 l 101 323 l 94 323 l 94 317 l 101 317 l 129 317 l 114 317 l 109 317 l 101 317 l 101 309 l 109 301 l 137 301 l 101 301 l 101 294 l 101 286 l 114 286 b 111 286 109 286 109 286 b 109 286 109 284 109 281 l 114 281 l 114 273 l 129 273 l 145 273 l 114 273 l 114 265 l 114 258 l 137 258 l 129 258 l 129 244 l 150 244 l 129 244 l 129 236 l 182 236 l 129 229 l 129 221 l 158 221 l 129 221 l 129 216 l 137 216 l 137 200 l 145 200 l 137 200 l 137 192 l 137 184 l 203 184 l 150 178 l 150 171 l 224 171 b 201 171 183 170 168 167 l 145 163 l 145 155 l 158 155 l 158 150 l 158 135 l 182 135 l 182 127 l 158 127 l 158 120 l 210 120 l 166 114 l 166 105 l 232 105 l 166 97 l 166 90 l 188 90 l 182 90 l 182 84 l 182 76 l 174 76 l 174 69 l 182 69 l 182 61 l 182 49 l 247 49 l 188 49 l 188 32 l 210 32 l 210 24 l 188 24 l 188 17 l 275 17 l 268 17 l 268 12 l 195 12 l 195 4 l 312 4 l 457 -4 l 457 12 l 407 12 l 457 12 l 465 12 l 465 17 l 465 24 l 442 24 l 471 24 l 471 32 l 465 32 l 465 41 l 471 41 l 471 49 l 451 54 l 479 54 l 479 61 l 435 61 l 479 61 l 479 69 l 479 76 l 471 76 l 479 76 l 479 84 l 457 84 l 485 84 l 485 90 l 485 105 l 415 105 b 458 105 493 114 501 114 l 509 114 b 509 117 508 118 505 119 b 504 120 503 120 501 120 l 501 127 l 501 135 l 471 135 l 501 135 l 501 150 l 465 150 l 509 150 l 516 150 l 516 155 l 509 155 b 501 155 494 163 479 163 l 501 163 l 501 171 l 493 171 l 522 171 l 522 178 l 428 192 l 522 184 l 522 200 l 485 200 l 522 200 l 522 208 b 521 208 519 208 518 209 b 513 210 510 213 509 216 l 530 216 l 530 221 l 522 221 l 538 221 l 538 229 l 509 236 l 538 229 l 538 244 l 485 244 l 522 244 l 538 244 b 540 244 541 244 542 245 b 545 246 546 248 546 252 l 538 252 l 530 252 b 522 252 516 258 509 258 l 546 258 l 546 265 l 485 265 l 546 265 l 546 281 l 516 281 l 546 281 l 552 281 l 552 286 l 546 286 b 541 286 538 286 536 287 b 528 288 521 291 516 294 b 531 286 545 286 552 286 l 552 294 l 558 294 b 558 296 557 298 555 300 b 554 301 553 301 552 301 l 516 301 l 552 301 l 552 309 l 558 309 l 558 317 l 509 323 l 552 323 l 552 332 l 558 332 l 558 338 l 566 338 l 566 346 l 566 354 l 574 354 l 574 360 l 574 367 l 581 367 l 581 375 l 587 382 l 581 382 l 581 388 l 530 388 l 581 388 b 582 388 583 388 584 389 b 586 390 587 392 587 395 l 581 395 b 574 395 547 404 516 404 l 552 404 l 574 404 l 587 404 b 589 404 590 404 591 405 b 594 406 595 409 595 412 l 587 412 b 591 412 593 413 594 416 b 595 417 595 418 595 419 l 587 419 b 587 426 581 425 558 425 l 595 425 l 595 433 l 493 441 l 603 441 l 603 448 l 558 448 l 603 448 l 603 456 l 611 456 b 614 456 617 457 618 458 b 619 459 619 460 619 461 l 611 468 l 581 468 l 619 468 l 619 477 l 611 477 l 619 477 l 619 485 l 625 485 l 625 491 l 595 497 l 625 491 l 625 497 b 632 497 631 497 631 505 l 625 513 l 595 513 l 625 513 l 625 521 l 631 521 l 631 527 l 595 527 l 631 527 l 631 535 l 631 542 l 639 542 l 639 556 l 611 556 l 631 556 l 639 556 l 639 564 l 631 564 l 611 564 l 639 564 l 639 578 l 625 578 l 647 578 l 647 586 l 632 589 b 625 590 614 592 603 592 l 647 592 l 647 600 l 647 607 l 654 607 l 654 615 l 654 623 l 654 629 l 660 629 l 660 637 l 639 637 l 631 637 l 647 637 l 654 637 b 655 637 656 637 657 638 b 659 640 660 642 660 645 l 660 657 l 647 657 l 669 657 l 669 665 l 669 673 l 639 673 l 676 673 l 676 688 l 639 688 l 676 688 l 676 695 l 676 702 l 683 702 l 683 709 l 683 717 b 676 725 660 725 639 725 l 683 725 l 683 731 l 689 731 l 689 738 l 683 738 l 683 746 l 689 746 l 689 754 l 660 759 b 672 759 680 757 687 757 l 697 754 l 697 759 l 705 759 b 705 764 704 766 701 767 b 700 768 699 768 697 768 z m 268 448 l 268 441 l 247 441 z m 306 258 l 334 258 l 318 258 l 318 252 l 283 252 l 306 252 z m 341 294 b 356 294 376 294 399 286 b 378 286 362 287 349 290 l 326 294 l 326 286 l 312 286 b 319 289 323 292 328 293 b 330 294 332 294 334 294 z m 341 281 l 354 281 z m 334 273 l 326 273 z m 334 252 l 362 244 l 334 244 z m 341 265 l 341 273 l 399 265 z m 326 221 l 378 221 l 349 221 l 334 221 l 283 221 z m 318 192 l 306 192 z m 341 171 l 391 171 z m 326 163 l 312 163 z m 354 127 l 341 127 z m 312 120 l 306 120 z m 312 142 l 283 142 z m 349 155 l 318 155 l 341 155 l 399 155 z m 334 184 l 399 184 z m 326 178 l 283 178 z m 326 229 l 326 244 l 334 244 l 334 236 l 415 229 z m 354 412 l 354 404 b 362 404 368 395 391 395 l 354 395 l 354 388 l 384 388 l 349 388 l 349 382 l 349 375 l 349 360 l 349 354 l 349 346 l 349 338 l 349 332 l 341 338 l 341 323 l 341 317 l 391 317 l 341 317 l 341 301 l 349 301 l 341 301 l 334 301 l 334 309 l 326 309 l 326 317 l 268 317 l 326 317 l 326 332 l 312 332 l 326 332 l 326 338 l 289 338 l 318 338 l 318 354 l 253 346 l 318 354 l 318 360 l 318 367 l 312 367 l 312 382 l 283 382 l 312 382 l 312 388 l 216 388 l 306 395 l 306 404 l 275 404 l 306 404 l 306 419 l 289 419 l 297 419 l 297 425 l 297 433 l 297 441 l 407 433 l 369 433 l 369 425 l 415 425 l 369 425 l 369 412 l 435 412 z"},"7":{"x_min":0,"x_max":592,"ha":592,"o":"m 371 97 l 371 103 l 363 103 z m 597 666 l 597 672 l 597 681 l 597 687 l 597 701 l 612 701 l 597 710 l 597 775 l 591 775 l 591 739 b 591 752 590 762 587 769 l 583 783 l 577 783 l 577 725 l 577 775 l 562 775 l 562 739 l 562 775 l 553 775 l 547 731 l 547 783 l 539 783 l 539 701 l 533 775 l 524 775 l 524 725 l 518 783 l 509 783 l 509 716 l 503 783 l 495 783 l 495 745 l 495 783 l 480 783 l 480 754 l 480 775 l 474 783 l 465 695 l 465 775 l 451 775 l 451 739 l 451 783 l 445 783 l 436 716 l 436 783 l 430 783 l 421 725 l 421 783 l 415 783 l 407 687 l 407 739 l 407 745 l 401 783 l 392 783 l 392 775 l 386 775 l 377 775 l 377 783 l 371 783 l 363 783 l 363 775 l 348 775 l 348 783 l 342 789 b 333 782 342 783 333 783 l 333 775 l 333 783 l 327 783 l 319 760 l 319 754 l 319 783 l 313 783 l 304 754 l 304 775 l 298 775 l 292 739 l 292 783 l 283 783 l 283 731 l 283 783 l 269 783 l 269 739 l 269 775 l 263 783 l 263 739 l 254 775 l 248 775 l 248 725 l 248 783 l 234 783 l 234 731 l 234 775 l 225 775 l 219 701 l 219 783 l 204 783 l 204 754 l 204 783 l 195 783 l 195 769 l 195 775 l 190 783 l 181 739 l 181 775 l 175 775 l 175 754 l 175 775 l 160 783 l 160 739 l 160 783 l 151 783 l 151 754 l 151 783 l 137 783 l 137 731 l 137 775 l 131 783 l 122 769 l 122 775 l 116 783 l 116 754 l 116 783 l 107 783 l 101 745 l 101 783 l 93 783 l 93 731 l 93 775 l 78 775 l 72 701 l 72 783 l 63 783 l 63 725 l 57 783 l 49 783 l 49 739 l 49 775 l 43 775 l 34 754 l 34 783 l 28 783 l 28 775 l 19 775 l 19 745 b 19 760 13 768 13 775 l 13 783 l 13 789 l 5 783 l 5 775 l 5 701 l -1 783 l -10 783 l -1 569 l 5 569 b 5 576 5 584 6 593 b 7 608 9 628 13 651 l 13 593 l 19 593 l 28 593 l 43 593 l 43 651 l 43 593 l 57 593 l 57 651 l 57 593 l 63 593 l 78 593 l 78 628 l 78 593 l 87 593 l 93 672 l 93 593 l 101 593 l 107 599 l 107 593 l 116 593 l 116 643 l 116 593 l 131 593 l 131 613 l 131 593 l 137 593 l 137 613 l 137 593 l 151 593 l 151 637 l 151 593 l 160 593 l 166 593 l 175 672 l 175 593 l 190 593 l 190 613 l 190 593 l 195 593 l 195 613 l 195 593 l 210 593 l 210 628 l 210 593 l 219 593 l 225 628 l 225 593 l 234 593 l 239 666 l 239 593 l 248 593 l 248 628 l 248 593 l 263 593 l 263 599 l 263 455 l 254 455 l 254 440 l 298 440 l 254 440 l 254 431 l 304 425 l 248 425 l 248 417 l 263 417 l 239 417 l 239 411 l 298 402 l 234 402 l 234 396 l 248 396 l 225 396 l 219 387 l 225 381 l 292 381 l 219 381 l 219 367 l 248 367 l 210 367 l 210 358 l 269 352 l 204 358 l 204 343 l 278 337 l 204 343 l 204 329 l 234 329 l 195 329 l 190 329 l 190 314 l 333 299 l 181 293 l 181 279 l 292 270 l 175 270 l 175 264 l 166 264 l 166 255 l 210 249 l 166 255 l 166 241 l 195 241 l 160 241 l 160 235 l 204 226 l 160 226 l 151 226 l 151 211 l 269 205 l 145 205 l 145 197 l 225 191 l 145 191 l 145 182 l 190 176 l 145 176 l 145 167 l 234 161 l 137 161 l 137 155 l 181 155 l 131 155 l 131 141 l 210 141 l 137 141 l 137 126 l 195 126 l 131 126 l 131 111 l 204 111 l 122 111 l 122 103 l 160 103 b 148 100 139 99 132 98 b 129 97 126 97 122 97 l 122 88 l 225 82 l 122 82 l 122 73 l 166 73 l 122 73 l 122 59 l 151 59 l 122 59 l 122 53 b 131 50 139 49 147 48 b 163 45 185 44 210 44 l 116 44 l 116 38 l 151 29 l 122 29 l 122 23 l 195 23 l 116 23 l 116 9 l 137 9 l 116 9 l 116 0 l 363 0 l 363 9 l 278 15 l 363 15 l 363 23 l 313 23 l 357 23 l 357 38 l 283 38 l 319 38 l 348 38 l 357 38 l 363 38 l 363 44 l 363 53 l 313 53 l 363 53 l 363 59 l 348 59 l 363 59 l 363 67 l 363 82 l 210 88 b 219 97 233 97 248 97 l 327 97 l 357 97 l 363 97 l 371 97 l 363 97 l 363 103 l 371 103 b 371 107 370 109 367 110 b 366 111 365 111 363 111 l 304 117 l 363 117 l 363 126 l 313 126 l 363 126 l 363 141 l 283 141 l 371 141 l 371 155 l 319 155 l 371 155 l 371 161 l 269 167 l 371 167 l 371 182 l 313 182 l 371 182 l 371 191 l 342 197 l 377 197 l 377 205 l 263 211 l 386 211 l 386 226 l 357 235 l 386 235 l 386 241 l 371 241 l 392 241 l 392 249 l 348 255 l 392 255 l 392 264 l 333 264 l 392 264 l 392 279 l 327 279 l 401 279 l 401 293 l 371 293 l 401 293 l 401 299 l 386 299 l 407 299 l 407 308 l 363 314 l 415 314 l 415 323 l 319 329 l 415 329 l 415 337 l 363 343 l 421 343 l 421 352 l 421 358 l 348 367 l 430 367 l 430 373 l 419 377 b 413 380 402 381 386 381 l 436 381 l 436 387 l 348 396 l 445 396 l 445 402 l 451 402 l 451 417 l 386 417 l 451 417 l 451 425 l 421 431 l 465 431 l 465 440 l 465 446 l 474 446 l 474 455 l 407 461 l 480 461 l 480 469 l 430 475 l 495 475 l 495 481 l 430 490 l 503 490 l 503 496 l 509 496 l 509 505 l 445 511 l 518 511 l 518 519 l 524 519 l 524 525 l 480 534 l 533 534 l 533 540 l 509 540 l 547 540 l 547 549 l 480 555 l 553 555 l 553 563 l 539 563 l 562 563 l 562 578 l 539 578 l 568 578 l 568 584 l 583 584 l 583 593 b 583 590 583 589 584 588 b 585 585 587 584 591 584 l 591 593 b 591 598 591 601 592 604 b 593 611 594 622 597 637 l 597 643 z m 363 44 l 357 44 z m 415 628 l 415 622 z m 401 687 l 401 643 z m 401 613 l 401 628 l 401 637 l 407 622 l 401 622 l 401 607 l 407 607 l 401 607 z m 392 769 l 392 760 z m 392 754 l 392 745 z m 386 628 l 386 622 z m 386 613 l 386 607 z m 377 754 l 377 745 z m 377 731 l 377 739 z m 371 657 l 371 643 z m 371 628 l 371 622 z m 363 657 l 363 643 l 357 643 z m 357 622 l 357 628 l 363 628 l 363 622 z m 363 607 l 363 599 l 357 607 z m 348 739 l 348 745 b 348 742 349 741 352 740 b 353 739 354 739 357 739 z m 348 666 l 348 672 l 357 672 z m 342 657 l 342 651 z m 333 769 l 333 760 z m 333 745 l 333 739 z m 327 672 l 327 666 z m 327 622 l 327 613 z m 319 745 l 319 725 z m 319 716 l 319 710 z m 313 643 l 313 637 z m 313 622 l 313 613 z m 304 745 l 304 725 z m 269 455 l 278 455 z m 342 563 l 342 549 l 363 549 l 327 549 l 327 540 l 342 540 l 327 540 l 327 534 l 313 534 l 313 519 l 357 519 l 304 519 l 304 511 l 333 511 l 298 511 l 298 496 l 348 496 l 292 496 l 292 490 l 342 481 l 278 481 l 278 475 l 304 475 l 278 475 l 278 461 l 319 461 l 269 461 l 278 607 l 278 593 l 283 593 l 283 622 l 283 593 l 298 593 l 298 643 l 298 593 l 313 593 l 313 599 l 313 593 l 319 593 l 319 599 l 327 599 l 333 599 l 342 599 l 342 593 l 357 593 l 363 593 l 371 593 l 371 607 l 377 607 l 377 593 l 371 593 l 371 584 l 357 584 l 357 578 l 386 569 l 348 569 l 348 563 l 401 563 z m 415 593 l 401 593 z m 430 681 l 436 637 l 430 637 z m 430 622 l 436 622 z m 430 607 l 436 607 z m 445 643 l 445 637 z m 474 657 l 474 651 z m 489 672 l 489 666 z m 489 657 l 489 651 z m 509 599 l 518 599 z m 524 628 l 533 628 z m 524 599 l 533 599 z m 568 666 l 568 657 z m 562 613 l 568 613 z m 562 599 l 568 599 l 568 593 z m 583 628 l 583 622 z m 583 593 l 583 599 z"},"S":{"x_min":0,"x_max":709,"ha":709,"o":"m 330 -2 l 345 -2 l 345 11 l 345 5 l 351 5 l 351 50 l 359 5 l 367 5 l 367 131 l 389 5 l 403 5 l 389 131 l 425 20 l 432 20 l 418 116 l 425 108 b 425 85 431 65 438 50 b 438 42 439 35 442 29 b 443 27 444 24 447 20 b 447 17 447 16 448 15 b 449 12 451 11 455 11 l 455 20 l 455 50 b 447 71 439 100 432 131 l 469 28 l 485 28 l 432 174 l 528 42 l 535 50 l 447 183 b 462 174 485 159 504 144 b 528 121 550 109 565 94 b 572 94 571 86 579 86 b 579 78 579 78 588 78 l 594 78 l 594 86 b 587 86 579 93 571 100 b 551 116 528 137 504 152 b 491 165 478 182 462 189 l 624 116 l 631 122 l 469 202 l 652 159 l 652 174 l 478 218 b 542 218 652 210 668 210 l 676 210 l 676 218 b 668 226 557 232 491 232 l 676 255 l 676 262 l 491 249 l 676 292 l 668 305 l 498 269 l 668 336 l 659 342 l 604 321 b 572 309 531 296 498 285 b 514 292 528 298 551 305 l 620 346 l 652 364 l 652 371 l 469 285 l 624 402 l 616 408 l 462 298 l 588 438 l 579 447 l 462 322 l 551 453 l 543 460 l 455 328 l 522 476 l 514 476 b 504 476 485 430 462 380 l 455 371 b 462 380 462 380 462 387 b 473 408 482 432 489 451 l 498 482 l 491 482 l 438 364 l 478 490 l 469 490 l 461 470 b 456 457 451 441 447 423 l 457 470 l 462 490 l 455 496 l 425 408 l 447 496 l 438 496 l 425 503 l 412 447 l 425 503 l 418 503 l 412 503 l 407 499 b 404 496 403 493 403 490 b 403 493 404 496 407 499 l 412 503 l 395 513 l 395 503 l 373 430 b 373 447 382 466 382 482 b 389 490 389 496 389 503 l 389 513 l 389 519 l 382 519 l 382 513 l 382 503 l 382 513 l 373 513 l 367 513 l 359 496 l 367 519 l 359 519 l 345 519 l 337 519 l 337 526 l 330 526 l 307 466 l 324 526 l 316 532 l 316 526 l 307 532 l 303 519 b 300 510 296 497 293 482 b 296 497 300 510 303 519 l 307 532 l 300 543 l 300 556 l 293 556 l 287 543 l 278 543 l 271 543 l 240 466 l 264 549 l 258 556 l 250 543 l 258 556 l 250 556 l 240 562 l 234 578 l 234 585 l 227 585 l 227 600 l 234 607 l 205 628 l 234 607 l 240 615 l 234 622 l 240 628 l 231 643 b 226 652 219 662 211 673 b 222 662 232 652 239 643 b 243 638 247 633 250 628 l 258 635 l 234 724 l 264 635 l 271 644 l 264 724 l 287 644 l 293 644 l 293 687 l 293 653 l 307 653 l 307 687 l 307 653 l 307 644 l 316 644 l 316 653 l 330 653 l 337 716 l 337 644 l 345 644 l 367 716 l 351 644 l 359 644 l 395 732 l 373 635 l 382 635 l 403 680 l 382 628 l 389 622 l 412 644 b 408 644 405 642 404 639 b 403 638 403 637 403 635 l 395 628 l 395 622 l 403 615 l 412 607 l 478 622 l 412 600 l 412 593 l 498 600 l 418 585 l 418 578 l 418 569 l 418 562 l 637 556 l 637 569 l 491 569 l 637 585 l 637 593 l 478 585 l 631 622 l 631 628 l 478 607 l 624 653 l 616 666 l 447 622 l 601 695 l 601 702 l 447 644 l 579 724 l 571 732 l 544 714 b 528 703 506 691 485 680 b 462 665 438 653 425 644 l 418 635 b 425 654 447 673 462 702 b 491 731 514 767 522 767 l 514 776 l 403 653 l 462 797 l 455 807 l 389 680 l 425 807 l 418 813 l 367 695 l 395 813 l 382 813 l 345 695 l 359 813 l 351 820 l 330 716 l 337 820 l 330 820 b 323 813 324 776 316 732 l 316 702 b 311 729 309 757 308 780 b 307 793 307 807 307 820 l 300 820 l 293 724 l 287 820 l 278 820 l 278 687 l 250 813 l 234 813 l 258 680 l 205 807 l 197 807 l 240 659 b 227 674 221 687 205 710 b 190 725 184 747 168 760 b 168 767 168 767 161 767 l 161 776 b 161 783 162 782 155 782 l 155 790 b 146 790 146 790 146 782 b 146 775 155 776 155 767 b 162 760 161 761 161 754 b 174 724 205 680 221 653 b 205 666 191 680 174 695 b 167 702 168 709 161 716 l 138 740 b 131 747 125 753 125 760 b 122 760 120 761 119 763 b 118 764 118 765 118 767 l 110 767 l 110 760 b 118 753 131 733 155 710 b 162 702 167 687 174 680 b 185 665 197 659 205 644 l 80 747 l 73 740 l 197 622 l 43 702 l 43 695 l 205 600 b 184 607 156 615 125 615 b 94 622 73 621 52 628 l 43 628 b 28 635 21 635 14 635 b 12 635 11 635 10 634 b 8 633 7 631 7 628 l 14 628 l 14 622 l 43 622 l 52 622 b 80 615 125 600 161 593 b 168 593 184 593 191 585 l 7 585 l 7 569 l 174 569 l 7 549 l 7 532 l 205 562 b 190 549 161 543 125 526 b 102 513 73 497 52 490 b 43 482 36 476 29 476 l 21 476 l 21 466 l 21 460 b 29 460 146 519 205 543 l 59 423 l 59 416 l 221 532 l 110 387 l 118 387 l 234 526 l 168 364 l 174 364 l 240 496 l 197 358 l 205 351 l 211 351 l 221 351 l 227 351 l 240 395 l 227 342 l 234 342 l 258 395 b 250 387 250 380 250 371 b 250 364 240 358 240 351 l 240 342 l 240 336 l 250 336 l 250 342 l 250 351 l 250 342 l 250 336 l 258 336 b 265 343 264 358 271 371 b 271 380 278 380 278 387 l 264 336 l 271 336 l 287 371 l 278 336 l 287 336 l 287 328 l 293 328 l 293 322 l 300 322 b 300 329 307 342 307 358 b 316 358 316 357 316 364 l 300 322 l 307 322 l 316 336 l 316 322 l 324 322 l 345 395 l 330 322 l 337 315 l 345 315 l 345 305 l 351 305 l 367 305 l 373 336 l 367 305 l 373 305 l 382 315 l 373 305 l 382 298 l 395 342 l 389 298 l 395 292 l 412 336 b 412 334 412 333 411 332 b 410 329 408 328 403 328 l 403 305 b 399 301 397 298 396 296 b 395 295 395 294 395 292 b 395 290 395 289 396 288 b 397 286 399 285 403 285 l 403 292 l 412 285 l 418 285 l 418 275 l 425 269 l 432 269 l 432 262 l 432 255 l 438 255 l 438 249 l 432 249 l 432 240 l 432 225 l 432 218 l 432 210 l 425 210 b 425 208 425 207 426 206 b 427 203 429 202 432 202 l 425 202 l 418 202 l 425 174 l 418 196 l 412 189 l 403 189 l 418 78 l 382 183 l 373 183 l 382 78 l 367 174 l 351 174 l 351 165 l 351 174 l 345 174 l 337 174 l 337 152 l 330 174 l 324 174 l 324 116 l 316 174 l 307 174 l 307 165 l 307 174 l 300 174 l 293 122 l 293 174 l 287 183 l 278 131 l 278 183 l 271 183 b 271 178 271 174 270 172 b 269 166 267 159 264 152 b 267 159 269 166 270 172 b 271 174 271 178 271 183 l 264 189 l 264 183 l 264 189 l 250 189 l 250 183 l 250 189 l 240 196 l 234 202 l 240 202 l 227 202 l 234 202 l 227 210 l 211 202 l 211 210 l 227 218 l 221 225 l 211 225 l 221 225 l 221 232 l 211 232 l 211 240 l 211 249 l 184 249 l 205 249 l 211 249 l 221 255 b 218 255 217 255 216 256 b 213 257 211 259 211 262 l 205 262 l 211 262 l 211 269 b 213 269 215 269 216 270 b 219 271 221 273 221 275 l 211 275 b 208 275 148 277 89 280 l -29 285 l -29 269 l 7 269 l -29 269 l -29 262 l -29 255 l 52 255 b 36 255 22 256 7 249 l -14 249 l -23 249 l -29 249 l -29 240 l -23 240 l 0 240 b -7 240 -12 239 -17 236 b -19 235 -21 234 -23 232 l -23 225 l 125 232 l -23 210 l -23 202 l 131 225 b 124 218 110 218 103 210 b 72 210 52 203 29 196 l 21 196 b 14 189 7 189 0 189 l -7 189 l -14 183 b -13 183 -12 183 -11 182 b -8 181 -7 179 -7 174 b -6 175 -6 177 -3 178 b 0 181 4 183 7 183 b 8 183 10 183 12 184 b 16 185 21 186 29 189 b 52 189 79 195 110 202 b 131 210 155 210 168 218 l 7 144 l 7 138 l 146 189 l 21 122 l 29 116 l 184 189 l 59 86 l 67 78 l 191 174 l 87 58 l 94 50 l 191 159 l 118 42 l 125 42 l 211 165 l 161 28 l 168 20 l 205 108 l 184 20 l 191 20 l 221 94 l 197 20 l 205 11 l 227 78 l 211 11 l 221 11 l 250 116 b 239 71 234 11 234 5 l 240 5 b 251 5 239 5 250 11 b 250 20 256 64 264 100 l 258 5 l 264 5 l 287 108 l 278 5 l 287 5 l 300 116 l 307 5 l 316 5 l 316 71 l 324 5 l 330 5 l 330 28 z m 227 196 l 227 202 z m 351 -2 l 359 -2 l 359 71 b 359 50 360 35 363 24 l 367 5 l 373 5 l 382 5 l 382 20 l 382 5 l 395 5 l 389 64 b 389 57 388 42 395 35 l 395 11 l 395 5 l 403 5 l 412 5 l 412 11 b 409 14 408 16 407 18 b 404 24 403 32 403 42 l 412 5 l 418 5 l 418 11 l 418 5 l 432 5 l 418 71 b 425 64 425 50 425 42 b 432 35 432 28 432 20 l 432 11 l 438 11 l 447 11 b 447 20 439 58 432 86 l 455 20 l 462 20 l 455 58 l 469 20 l 478 28 l 462 94 l 485 28 l 491 28 l 491 35 l 491 28 l 498 28 l 504 28 l 504 35 l 501 40 b 499 44 498 50 498 58 l 498 50 b 498 46 499 44 501 43 b 502 42 503 42 504 42 l 504 35 l 514 35 l 514 42 b 514 44 514 46 513 48 b 512 52 509 57 504 64 l 522 42 l 528 42 l 485 122 l 543 50 l 551 58 l 543 71 l 551 58 l 557 64 l 543 78 b 551 71 550 71 557 64 l 565 64 l 565 71 l 560 75 l 551 86 l 571 71 l 579 78 l 522 138 l 594 86 l 601 94 l 582 108 l 543 138 b 535 145 535 144 528 144 b 547 133 566 122 582 114 l 609 100 l 616 108 b 611 113 604 118 597 123 l 551 159 b 544 159 536 164 528 174 b 535 165 550 166 557 159 b 576 151 593 142 608 135 b 616 131 624 127 631 122 l 637 131 l 588 159 l 645 138 l 645 144 l 588 174 l 652 159 l 659 165 l 594 189 l 659 174 l 659 183 l 659 189 l 637 196 l 668 196 l 668 202 l 637 202 l 668 202 l 668 218 l 528 218 l 491 225 l 676 218 l 676 225 l 668 225 l 668 232 l 616 240 l 682 249 l 676 262 l 656 258 b 644 256 628 255 609 255 b 628 258 645 260 659 261 b 667 262 675 262 682 262 l 682 275 l 676 275 l 682 275 l 676 285 l 659 285 l 689 292 l 682 298 l 594 275 l 543 275 l 682 322 l 682 336 l 676 336 l 668 342 l 609 322 l 579 315 l 668 342 l 668 351 l 609 336 l 668 358 l 668 371 l 528 315 l 535 305 l 504 292 l 514 285 l 551 292 l 491 269 l 498 262 l 514 269 l 543 269 l 478 255 l 485 249 l 491 249 l 498 249 l 498 240 b 505 240 535 249 571 249 l 571 240 l 522 240 l 522 232 l 447 240 l 447 232 l 478 225 l 469 210 l 491 210 l 551 189 l 514 202 l 504 196 b 501 199 496 200 492 201 b 490 202 488 202 485 202 l 478 202 l 478 196 b 485 196 491 190 498 183 b 514 174 528 159 543 152 b 528 159 514 165 503 172 b 497 175 491 178 485 183 l 485 189 l 478 189 l 478 183 l 478 174 l 485 174 l 478 165 l 498 152 l 491 144 b 484 151 479 157 475 160 l 469 165 l 469 159 l 447 183 l 438 183 l 469 131 l 462 131 b 462 134 461 137 458 140 l 455 144 l 455 138 l 438 183 l 425 174 l 447 116 l 438 122 l 432 122 l 432 116 l 418 165 l 403 165 l 407 160 b 410 157 412 151 412 144 b 407 155 405 162 404 167 b 403 169 403 171 403 174 l 395 174 l 395 183 l 389 183 l 389 144 l 389 152 l 382 152 l 382 174 l 367 174 l 382 71 l 373 71 l 373 94 b 373 113 371 133 370 148 l 367 174 l 359 174 b 357 174 356 174 355 173 b 352 172 351 170 351 165 l 351 86 l 351 71 l 351 94 b 348 113 347 133 346 148 b 345 157 345 165 345 174 l 330 174 l 324 108 l 324 174 l 316 174 l 300 64 l 307 108 l 293 108 l 293 71 l 293 131 l 278 131 l 271 78 l 271 100 l 278 183 l 271 183 l 258 122 l 258 138 l 250 138 l 250 122 l 240 122 l 234 94 l 227 94 l 211 64 l 227 108 l 211 108 l 205 86 l 205 94 l 197 94 l 191 78 l 197 100 l 191 100 l 211 144 l 205 144 l 221 165 l 211 174 l 197 159 l 197 165 l 161 138 l 197 174 l 191 183 b 184 178 179 172 172 167 b 161 156 146 146 131 131 b 118 122 110 116 94 108 l 105 118 l 110 122 l 125 138 l 125 144 l 161 165 l 155 174 l 174 183 l 168 189 l 110 165 l 161 196 l 161 202 l 87 174 l 125 189 l 125 196 l 155 202 l 155 210 l 168 210 l 168 225 l 159 221 b 154 219 147 218 138 218 l 138 225 l 131 225 b 124 225 118 225 103 218 b 114 221 122 225 129 228 b 131 229 134 231 138 232 l 138 240 b 134 240 131 240 128 239 b 121 238 109 236 94 232 l 94 240 l -23 225 l -23 218 l -23 210 b -16 210 -11 210 -4 211 b 7 212 21 214 36 218 b 21 210 14 210 7 210 b 0 210 -7 202 -14 202 l -23 202 l -23 196 l -14 196 l 0 196 l -7 196 l -14 196 l -14 189 l -23 189 l -14 183 b -10 183 -7 183 -5 184 b 0 185 7 186 14 189 b 29 189 52 196 73 196 l -7 174 l 0 165 l -7 165 l 0 159 l 14 159 l 0 159 l 7 144 l 21 152 l 7 144 l 14 138 l 21 138 l 14 138 l 14 131 l 36 138 l 21 131 l 29 122 l 103 152 l 29 116 l 36 100 l 67 122 l 43 100 l 43 94 l 67 108 l 52 94 l 59 86 l 80 100 b 76 100 75 98 74 97 b 73 96 73 95 73 94 l 67 86 l 67 78 l 67 71 b 74 71 73 71 73 78 l 80 78 l 73 78 l 80 71 l 94 78 l 80 64 l 87 58 l 146 108 l 110 71 l 103 64 l 103 58 l 94 58 l 94 50 l 103 50 b 110 50 118 57 125 71 l 110 50 l 118 42 l 168 100 l 125 35 l 131 28 l 131 35 l 138 35 l 146 35 l 161 58 l 146 28 l 155 28 l 161 28 l 155 20 l 161 20 l 184 58 l 174 20 l 184 20 l 197 50 l 191 20 l 197 11 l 211 42 l 205 11 l 211 5 l 227 58 b 227 50 228 35 221 28 l 221 20 l 221 11 l 221 5 l 227 5 l 227 11 b 227 13 227 15 228 16 b 229 19 230 24 234 28 l 234 35 l 227 11 l 240 5 l 250 42 l 240 5 l 250 5 l 264 64 l 264 5 l 271 5 l 278 50 l 278 5 l 287 5 l 287 -2 l 293 -2 l 293 11 l 293 5 l 307 5 l 316 94 l 316 5 l 330 5 l 337 116 l 337 86 b 337 63 345 43 345 28 l 345 5 l 345 -2 z m 485 100 b 485 108 478 115 478 122 z m 197 152 b 190 144 184 138 168 122 z m 588 269 l 594 262 l 557 262 z m 478 298 l 491 305 l 469 298 l 469 315 l 514 342 b 509 342 505 340 502 339 l 498 336 l 491 336 l 498 336 l 491 336 l 485 336 l 485 342 l 491 342 l 485 342 l 491 342 b 498 351 497 351 504 358 b 506 358 508 358 509 359 b 512 360 514 362 514 364 l 522 371 l 491 342 l 469 322 l 462 328 l 469 342 l 478 342 l 485 358 l 455 322 l 447 322 l 469 364 l 491 408 b 478 387 462 365 455 358 l 447 358 l 447 364 l 498 482 l 514 482 b 511 477 507 471 504 464 b 497 452 492 438 485 423 l 485 416 b 492 431 500 447 508 458 b 513 465 517 471 522 476 l 528 466 l 504 423 l 528 466 l 535 466 l 543 460 l 491 387 l 557 466 l 565 460 l 528 402 l 565 447 l 571 447 l 543 402 l 588 438 l 565 408 l 594 430 l 601 423 b 594 419 590 415 583 410 b 572 402 562 391 551 380 l 557 387 b 572 394 589 404 602 411 l 624 423 l 631 416 l 491 315 l 504 322 l 631 408 l 637 402 l 609 380 l 637 402 l 637 395 l 616 371 l 645 387 l 652 380 l 645 380 l 652 371 l 498 292 l 498 298 l 485 292 z m 485 336 l 485 342 z m 197 358 l 250 519 l 240 519 l 221 476 l 240 526 l 227 526 l 211 496 l 221 503 l 211 503 l 234 532 l 221 532 l 221 526 l 211 532 b 211 530 211 529 210 528 b 209 524 207 521 205 519 l 205 526 l 191 513 l 191 519 b 191 518 191 516 190 515 l 184 503 l 174 513 l 131 466 l 205 543 l 197 549 l 174 526 l 168 532 l 197 549 l 211 556 l 205 562 l 197 562 l 191 562 l 168 556 l 168 562 l 118 556 l 174 569 l 174 578 l 146 569 l 146 578 l 191 585 l 191 593 l 168 593 l 168 600 b 161 600 138 600 110 607 b 155 600 197 600 197 593 l 205 593 l 205 600 l 205 607 l 184 607 l 191 615 l 191 622 l 184 622 l 191 622 l 184 622 l 173 626 l 146 635 l 138 644 l 197 622 l 197 628 l 197 635 l 146 673 l 205 644 l 205 653 l 184 666 l 184 673 b 185 673 186 673 187 672 b 190 671 191 669 191 666 b 193 663 196 661 200 660 b 201 659 203 659 205 659 b 205 652 204 653 211 653 l 234 628 l 240 628 l 250 628 l 258 635 l 264 635 l 260 654 l 250 695 b 250 691 251 687 254 684 b 255 681 257 681 258 680 l 264 687 b 264 676 265 666 267 658 l 271 644 l 278 644 l 278 695 l 287 695 l 278 740 l 300 653 l 307 653 l 300 724 l 316 653 l 324 653 l 324 644 l 330 644 l 337 644 l 345 635 l 351 644 l 359 644 l 367 635 l 373 635 l 395 702 l 382 653 l 373 628 l 389 628 l 395 644 l 403 644 l 389 628 l 395 622 l 412 635 l 412 628 l 403 628 l 403 622 l 403 615 l 412 615 l 421 623 b 428 628 436 636 447 644 l 447 635 b 445 635 443 635 442 634 b 439 633 435 631 432 628 b 425 628 419 622 412 622 l 412 615 l 403 615 l 403 607 l 412 607 l 418 600 l 425 600 b 432 600 454 615 485 622 l 418 593 l 425 585 l 425 578 l 485 585 l 438 578 l 438 562 l 594 569 l 588 569 l 565 503 l 571 569 l 565 569 l 543 460 l 551 453 l 594 562 l 645 578 l 645 585 l 514 578 l 637 600 l 637 607 l 588 607 l 637 615 l 631 622 b 624 622 578 615 543 607 l 528 607 l 543 607 b 566 614 587 620 604 623 b 613 626 622 627 631 628 l 631 635 l 594 628 l 631 644 l 631 659 l 498 622 l 624 673 l 616 680 l 592 671 l 535 653 l 581 671 l 601 680 l 601 687 l 609 687 l 601 702 b 592 697 583 693 572 688 l 504 659 b 497 659 492 653 485 653 l 558 692 b 570 699 582 705 594 710 l 594 716 b 592 716 589 715 585 714 b 578 711 572 709 565 702 b 572 706 578 709 582 712 b 584 713 586 714 588 716 l 579 724 l 551 709 b 534 700 510 688 485 673 b 492 673 491 673 491 680 l 498 680 l 571 732 l 565 747 l 565 740 l 559 735 b 555 732 550 728 543 724 l 565 747 l 557 754 l 551 760 l 478 687 l 535 767 l 528 776 l 514 754 l 528 767 l 522 776 l 447 695 l 504 776 l 504 782 l 498 782 l 485 767 l 498 782 l 485 790 b 484 788 483 785 480 781 b 477 774 473 768 469 760 b 473 768 477 774 480 781 b 483 785 484 788 485 790 l 478 797 l 455 754 l 469 797 l 462 797 l 403 687 l 438 807 l 432 807 l 425 776 l 432 807 l 425 807 l 395 724 l 412 807 l 403 813 l 403 790 l 403 813 l 395 813 l 373 732 l 389 813 l 373 813 l 373 807 l 373 813 l 367 813 l 367 820 l 359 820 l 359 813 l 351 813 l 348 794 b 346 783 345 769 345 754 l 345 820 l 330 820 l 330 716 b 325 759 324 814 324 820 l 307 813 l 316 710 l 293 820 l 287 820 l 293 740 l 271 820 l 264 813 l 264 807 l 264 813 l 258 813 l 264 702 b 264 710 265 716 258 724 b 258 747 251 767 240 782 b 240 797 234 806 234 813 l 227 813 l 227 807 b 227 802 227 799 228 797 b 229 790 230 783 234 776 b 227 797 221 806 221 813 l 211 813 l 211 807 l 211 797 b 222 776 233 724 240 687 l 191 797 l 184 797 l 197 754 l 174 797 l 168 797 l 184 760 l 168 790 l 161 790 l 191 716 l 146 790 l 138 782 l 161 740 l 131 782 l 125 776 l 118 767 b 125 767 146 741 161 710 b 164 710 166 709 167 706 b 168 705 168 704 168 702 b 153 717 139 733 128 746 b 121 753 115 760 110 767 l 103 760 l 118 740 l 94 760 l 73 747 l 138 695 l 73 740 l 67 732 l 59 732 l 59 724 l 67 716 l 59 724 l 52 716 l 67 702 l 52 710 l 52 702 l 125 659 l 36 695 l 36 687 l 73 666 l 36 680 l 29 673 l 52 666 l 29 673 l 21 666 l 26 662 b 29 660 32 659 36 659 b 32 659 29 660 26 662 l 21 666 l 14 653 l 52 644 b 43 644 36 645 30 648 b 28 649 25 650 21 653 l 14 653 l 14 644 b 23 635 66 630 110 615 l 125 615 l 103 615 l 38 624 l 7 628 l 7 615 l 7 607 b 14 607 19 607 22 606 b 33 605 45 603 59 600 b 43 600 31 601 22 603 l 7 607 l 7 593 l 52 593 l 0 593 l 0 578 l 103 585 l 0 569 l 0 562 l 52 562 l 0 556 l 0 543 l 7 549 l 7 543 l 7 526 l 36 532 l 7 526 l 14 519 l 36 519 l 7 513 l 14 496 l 14 503 l 14 496 l 43 503 l 14 490 l 21 482 l 36 490 l 21 482 l 21 476 l 118 513 l 29 466 l 36 460 l 43 460 l 29 453 l 36 447 l 67 460 b 52 453 36 447 36 438 b 36 436 36 435 37 434 b 38 431 40 430 43 430 l 54 440 b 60 446 69 453 80 460 l 52 430 l 52 423 l 138 482 l 67 423 l 73 416 l 87 430 l 73 408 l 80 402 l 94 416 l 87 408 l 87 402 l 94 402 l 103 408 l 94 402 l 103 395 l 110 402 l 110 395 l 118 395 b 125 402 145 429 168 460 l 118 387 l 131 380 l 168 438 l 138 380 l 146 371 l 146 380 l 155 371 l 174 416 l 161 371 l 168 371 l 211 466 l 184 364 l 191 358 l 197 387 l 191 358 z m 155 519 l 168 532 z m 125 543 l 138 543 z m 432 585 l 432 593 z m 528 615 b 504 607 485 600 469 600 z m 418 635 l 425 644 z m 234 644 l 197 695 z m 94 747 l 174 673 l 87 747 z m 425 673 b 425 680 432 687 432 695 z"},"Z":{"x_min":0,"x_max":752,"ha":752,"o":"m 719 204 l 712 204 l 712 167 l 704 204 l 697 204 l 690 204 l 682 204 l 675 211 l 675 167 l 675 174 l 675 196 l 675 204 b 675 207 674 209 671 210 b 670 211 669 211 668 211 l 659 204 l 662 207 b 663 210 662 211 659 211 b 655 211 653 210 652 207 b 651 206 651 205 651 204 l 651 138 l 651 174 l 651 196 b 651 198 651 199 650 200 b 649 203 647 204 644 204 l 644 211 b 642 211 641 211 640 210 b 638 209 637 207 637 204 l 637 196 l 637 204 l 629 204 l 629 167 l 629 204 l 615 204 l 615 167 l 615 204 l 607 204 l 600 145 l 600 204 l 593 211 l 593 204 l 593 211 l 585 211 b 583 211 582 211 581 210 b 579 209 578 207 578 204 l 578 160 l 578 204 l 571 204 l 563 152 l 563 204 l 556 204 l 556 152 l 549 204 l 540 204 l 532 204 l 525 204 l 525 167 l 525 204 l 510 204 l 503 85 l 496 204 l 488 204 l 488 174 l 488 204 l 481 211 l 474 167 l 474 204 l 466 204 l 452 107 l 459 204 l 444 204 l 444 130 l 444 204 l 430 204 l 430 138 l 430 204 l 413 204 l 413 114 l 406 204 l 399 204 l 391 204 l 391 196 l 391 204 l 377 204 l 369 99 l 369 204 l 362 204 l 355 167 l 355 204 l 347 204 l 340 204 l 333 204 l 325 204 l 325 211 l 340 211 l 340 218 l 340 226 l 303 226 l 340 226 l 340 233 l 355 233 l 362 233 b 362 236 361 238 358 239 b 357 240 356 240 355 240 l 303 240 l 362 240 l 362 257 l 340 257 l 369 257 l 369 264 l 296 264 l 384 271 l 384 279 l 318 279 l 391 279 l 399 279 l 399 286 l 391 293 l 355 293 l 406 293 l 406 301 l 413 301 l 413 308 l 362 308 l 430 308 l 430 323 l 399 323 l 430 323 l 430 330 l 325 337 l 452 337 l 452 345 l 377 345 l 459 352 l 459 359 l 466 359 l 466 367 l 355 367 l 481 376 l 481 383 l 496 383 l 496 390 l 496 398 l 459 405 l 510 405 l 510 412 l 399 412 b 432 416 463 418 484 419 b 496 420 507 420 518 420 l 518 427 l 481 427 l 532 427 l 532 434 l 422 442 l 549 442 l 549 449 l 549 464 l 540 464 b 540 471 540 471 532 471 b 525 471 481 471 430 478 l 585 471 l 585 485 l 459 485 l 593 485 l 593 502 l 585 502 l 593 502 l 593 509 l 571 509 l 607 509 l 607 524 l 518 524 l 622 524 l 622 531 l 593 531 l 615 531 l 615 546 l 637 546 b 644 546 644 546 644 553 l 637 553 l 563 553 l 651 561 l 651 568 l 578 568 l 659 568 l 659 582 l 563 582 l 675 582 l 675 597 b 667 597 608 590 540 590 l 540 597 l 571 597 l 578 597 l 585 597 l 593 597 l 600 597 l 644 604 l 644 597 l 651 597 l 651 604 l 668 604 l 682 604 l 682 612 l 682 628 l 682 604 l 690 604 l 690 628 l 697 628 l 690 612 l 704 612 l 704 658 l 704 798 l 697 798 l 690 709 l 690 798 l 675 798 l 675 731 l 675 798 l 659 798 l 659 738 l 659 798 l 651 798 l 644 723 l 644 798 l 637 798 b 637 791 629 778 629 747 l 629 798 l 622 798 l 622 755 l 615 798 l 607 798 l 600 687 l 593 798 l 585 798 l 585 747 l 585 798 l 571 798 l 571 738 l 571 798 l 563 798 l 556 747 l 556 798 l 549 798 l 549 755 l 540 798 l 532 798 l 532 762 l 532 798 l 525 798 l 518 777 l 518 798 l 510 798 l 510 777 l 510 798 l 503 798 l 496 755 l 496 798 l 488 798 l 488 755 l 488 798 l 474 798 b 474 791 474 785 473 778 b 472 765 470 746 466 723 b 470 746 472 765 473 778 b 474 785 474 791 474 798 l 459 798 l 452 694 l 452 798 l 444 798 l 437 716 l 437 798 l 422 798 l 422 762 l 422 798 l 413 798 l 406 709 l 406 798 l 391 798 l 391 755 l 391 798 l 384 798 l 377 747 l 377 798 l 369 798 l 362 716 l 362 798 l 355 798 l 347 701 l 347 798 l 333 798 l 333 784 l 333 798 l 325 798 l 318 738 l 318 806 l 311 806 l 311 798 l 303 798 l 287 672 l 287 798 l 280 798 l 272 709 l 272 806 l 258 806 l 258 723 l 258 798 l 243 798 l 236 716 l 236 798 l 228 798 l 228 784 l 228 798 l 221 798 l 214 777 l 214 798 l 206 798 l 206 755 l 206 798 l 192 798 l 192 731 l 192 798 l 177 798 l 177 738 l 177 798 l 168 798 l 168 784 l 168 798 l 153 798 l 153 762 l 153 798 l 146 798 l 139 755 l 139 798 l 131 798 l 124 723 l 124 798 l 117 798 l 117 755 l 117 798 l 102 798 l 102 755 l 102 798 l 95 798 l 95 791 l 95 798 l 80 798 l 73 798 l 73 755 l 73 798 l 58 798 l 51 798 l 42 798 l 34 694 l 27 798 l 20 798 l 20 597 l 34 597 l 34 643 l 34 597 l 42 597 l 51 597 l 58 597 l 66 597 l 73 643 l 73 628 l 73 604 l 73 597 l 73 590 l 80 590 l 80 597 b 80 595 80 594 81 593 b 82 591 84 590 88 590 l 88 597 l 91 621 b 94 634 95 651 95 672 l 95 628 l 95 604 l 95 597 b 95 595 95 594 96 593 b 97 591 99 590 102 590 l 102 597 b 102 598 102 600 103 601 b 104 605 106 609 109 612 l 109 597 l 117 597 l 117 643 l 117 597 l 131 597 l 131 643 l 131 597 l 139 597 l 146 658 l 146 597 l 153 597 l 153 604 l 153 597 l 153 590 l 161 590 l 168 597 l 168 628 l 168 650 l 168 597 l 177 597 l 185 658 l 185 597 l 192 597 l 199 658 l 199 597 l 206 597 l 214 597 l 221 597 l 228 643 l 228 597 l 236 597 l 250 723 l 250 597 l 258 597 l 265 636 l 265 597 l 272 597 l 272 643 l 272 597 l 287 597 l 303 701 l 296 597 l 303 597 l 311 672 l 311 597 l 318 597 l 325 672 l 325 597 l 340 597 l 340 694 l 347 597 l 355 597 l 355 604 l 355 597 l 362 597 l 362 612 l 362 597 l 377 597 l 377 590 l 369 590 l 362 590 l 362 582 l 355 582 l 355 575 l 355 568 l 355 561 l 369 561 l 340 561 l 340 553 l 333 553 l 333 539 l 325 539 l 325 531 l 311 531 l 311 524 l 406 517 l 303 517 l 296 517 l 296 509 l 303 509 l 355 509 l 340 509 l 303 509 l 296 509 l 287 509 l 287 502 l 296 502 b 305 499 313 498 321 497 b 337 494 357 493 384 493 l 280 493 l 280 485 l 250 485 l 250 478 b 261 478 272 478 284 477 b 307 476 333 474 362 471 l 303 471 l 272 471 l 265 471 l 258 471 l 258 464 b 273 464 317 464 377 456 l 287 456 l 258 456 l 243 456 b 236 456 236 456 236 449 l 243 449 l 347 449 b 316 445 289 444 269 443 b 257 442 247 442 236 442 l 236 434 l 221 434 l 221 420 l 250 420 l 221 420 l 214 420 l 206 420 l 206 412 l 236 412 l 199 412 l 199 405 l 243 398 l 192 398 l 192 390 l 236 390 l 168 390 l 168 376 l 250 376 l 177 376 l 177 367 l 161 367 l 161 352 l 146 352 l 146 345 l 214 345 l 139 345 l 139 330 l 177 330 l 131 330 l 131 323 l 206 323 b 191 323 177 323 161 315 l 124 315 l 117 315 l 109 315 l 109 308 l 102 308 l 102 301 l 95 301 l 95 293 l 102 293 b 109 293 115 293 122 292 b 137 291 155 289 177 286 l 95 286 l 95 279 l 185 279 l 80 271 l 80 264 l 88 264 l 66 264 l 66 257 l 153 249 l 102 249 l 66 249 l 58 249 l 51 249 l 42 249 b 42 246 42 245 43 244 b 44 241 46 240 51 240 l 80 240 l 51 240 l 42 240 l 34 240 l 34 249 l 27 240 l 27 218 l 27 211 l 20 211 l 12 211 l 5 218 l -2 211 l -2 189 l -2 182 l -2 167 l -2 160 l -2 152 l -2 145 l -10 145 l -10 138 l -2 138 b -10 138 -10 138 -10 130 l -2 130 l -2 121 l -2 114 l -2 107 l -2 77 l -2 70 l -2 63 l -2 55 l -17 55 l -17 48 l -2 48 l -2 -5 l -2 -42 l 5 -49 b 5 -42 5 -28 12 -5 l 12 48 l 20 4 l 27 4 l 27 48 l 34 4 l 42 4 l 51 4 l 58 4 l 58 48 l 66 48 l 66 4 l 73 4 l 73 33 l 80 26 l 80 4 l 88 4 l 95 26 l 95 4 l 102 4 l 109 33 l 109 4 l 117 4 l 117 33 l 124 33 l 124 4 l 131 4 l 131 41 l 131 4 l 146 4 l 146 41 l 146 4 l 153 4 l 161 92 l 168 92 l 168 4 l 177 4 l 177 48 l 185 4 l 192 4 l 192 55 l 192 4 l 206 4 l 206 48 l 206 4 l 214 4 l 214 41 l 221 4 l 228 4 l 228 33 l 228 4 l 236 4 l 243 19 l 243 4 l 250 4 l 250 19 l 250 4 l 258 4 l 258 41 l 265 4 l 272 4 l 272 41 l 272 4 l 287 4 l 287 70 l 287 4 l 296 4 l 311 107 l 311 4 l 318 4 l 318 77 l 325 4 l 333 4 l 333 33 l 333 4 l 347 4 l 347 92 l 355 4 l 362 4 l 362 41 l 362 4 l 369 4 l 377 48 l 377 4 l 384 4 l 391 77 l 391 4 l 399 4 l 406 92 l 406 4 l 422 4 l 422 11 l 422 4 l 430 4 l 430 55 l 430 -5 l 444 -5 l 444 4 l 452 4 l 466 121 l 466 4 l 474 4 l 481 85 l 481 -5 l 488 -5 l 496 70 l 496 4 l 503 4 l 510 77 l 510 4 l 518 4 l 518 11 l 518 4 l 532 4 l 532 19 l 532 4 l 540 4 l 540 41 l 540 4 l 556 4 l 556 70 l 556 4 l 571 4 l 571 55 l 571 4 l 578 4 l 578 11 l 578 4 l 593 4 l 593 33 l 593 4 l 600 4 l 607 41 l 607 4 l 615 4 l 615 70 l 622 4 l 629 4 l 629 41 l 629 4 l 637 4 l 640 14 b 643 20 644 29 644 41 l 644 4 l 651 4 l 659 4 l 675 4 l 675 41 l 675 4 l 682 4 l 690 4 l 704 4 l 704 107 l 712 4 l 719 4 z m 697 636 l 690 643 l 697 650 z m 668 650 l 668 636 z m 668 628 l 668 612 z m 651 619 l 651 612 z m 637 680 b 637 672 644 665 644 658 l 637 658 z m 637 643 l 644 643 l 644 636 l 637 636 z m 637 619 l 644 619 l 644 612 l 637 612 z m 629 643 l 629 628 z m 622 619 l 629 619 l 629 612 l 622 612 z m 615 723 l 615 650 l 607 650 z m 600 636 l 615 643 l 615 628 l 600 628 z m 600 612 b 607 619 607 619 615 619 l 615 612 z m 593 636 l 593 628 z m 593 612 l 585 612 z m 578 672 l 578 643 z m 578 628 l 578 636 l 578 628 l 578 619 z m 540 665 l 540 636 z m 540 619 l 540 628 z m 525 650 l 525 628 z m 525 619 l 525 612 z m 510 636 l 510 628 z m 510 619 l 518 612 l 510 612 z m 488 672 l 496 628 l 488 619 z m 488 612 l 496 612 z m 481 619 l 466 619 b 474 636 474 665 474 694 z m 466 604 l 466 612 l 481 612 l 481 604 z m 459 658 l 459 619 l 452 612 z m 452 604 l 459 604 z m 525 597 l 525 590 l 532 590 l 452 590 z m 444 643 l 444 612 l 437 612 z m 437 604 l 444 604 z m 430 672 l 430 612 l 422 612 z m 413 665 l 413 604 l 406 604 z m 377 597 l 384 709 l 384 604 z m 399 604 l 399 643 z m 12 196 l 12 189 z m 27 196 l 27 189 l 20 189 l 20 196 z m 27 152 l 27 160 z m 42 189 l 42 196 z m 66 160 l 51 160 z m 51 189 l 51 196 l 80 196 l 80 189 z m 73 33 l 80 48 l 80 41 l 80 33 z m 88 189 l 88 196 z m 34 218 l 109 218 z m 153 85 l 153 92 z m 161 174 l 153 174 l 146 174 z m 161 196 l 146 196 z m 192 174 l 185 174 z m 236 174 l 236 182 z m 243 174 l 243 182 z m 265 138 l 265 160 l 272 160 z m 272 167 l 265 167 l 265 182 l 272 182 z m 280 160 l 280 167 l 280 182 l 287 182 b 287 159 287 138 280 107 z m 287 189 l 280 189 z m 296 204 l 280 204 z m 303 145 l 303 182 z m 303 204 l 311 204 z m 318 167 l 318 189 z m 325 196 l 333 196 l 333 138 z m 340 145 l 340 196 l 347 196 z m 102 293 l 95 293 z"},"x":{"x_min":0,"x_max":715,"ha":715,"o":"m 446 52 l 453 45 l 453 52 z m 748 10 l 748 23 l 728 23 l 748 23 l 748 30 l 719 30 l 741 30 l 741 37 l 741 45 l 692 45 l 735 45 l 735 52 l 728 52 l 728 59 l 586 65 b 515 68 443 72 440 72 l 440 66 b 447 66 481 59 524 59 l 496 59 l 468 59 l 462 59 l 453 59 l 453 52 l 446 52 l 453 52 l 453 45 b 466 45 481 45 497 44 b 524 43 559 41 594 37 l 614 37 l 496 37 l 496 23 l 524 23 l 502 23 l 489 23 l 482 23 b 482 16 482 16 489 16 l 482 16 l 475 16 l 475 10 l 482 10 l 482 -4 l 755 3 l 755 10 l 692 10 z m 657 177 l 663 177 z m 650 101 l 679 101 l 685 101 l 692 101 l 692 108 l 692 101 l 692 108 l 692 115 l 601 115 l 685 115 l 685 121 l 672 121 l 672 135 l 545 135 l 531 135 l 538 135 b 569 138 601 140 624 141 b 637 142 650 142 663 142 l 663 150 l 657 150 l 657 164 l 643 164 l 650 164 l 650 171 l 567 171 b 614 171 650 177 657 177 l 663 177 b 663 178 663 179 662 180 b 661 183 660 184 657 184 l 601 184 l 636 184 l 636 191 l 630 191 l 601 191 l 601 199 l 630 199 l 636 199 b 636 201 635 203 633 205 b 632 206 631 206 630 206 b 623 206 587 206 538 213 l 607 213 l 614 213 b 614 216 613 218 610 219 b 609 220 608 220 607 220 l 524 220 b 567 227 600 227 607 227 l 607 233 l 489 233 b 517 236 545 238 566 239 b 578 240 590 240 601 240 l 601 247 l 587 247 l 587 262 l 587 269 l 496 269 l 574 269 l 574 283 l 574 276 l 574 283 l 567 283 l 574 283 l 567 283 l 574 289 l 567 289 l 567 296 l 482 296 l 558 296 l 558 305 b 551 305 544 305 536 306 b 521 307 503 308 482 311 l 552 311 l 552 318 l 524 318 l 545 318 l 545 332 l 489 332 l 531 332 l 531 339 l 462 339 l 531 345 l 531 352 l 446 352 l 518 352 l 518 367 l 518 374 l 468 374 l 502 374 l 502 381 l 446 381 l 440 381 l 496 388 l 496 394 l 482 394 l 489 394 l 496 401 l 489 401 l 489 408 l 496 408 l 502 408 l 502 417 l 496 417 l 509 417 l 509 430 b 504 430 497 430 490 429 l 440 423 b 443 426 446 428 449 429 b 450 430 451 430 453 430 l 518 430 b 525 430 524 430 524 437 l 524 444 b 518 444 513 444 510 445 b 502 446 493 447 482 450 l 531 450 l 531 457 b 531 462 530 464 527 465 b 526 466 525 466 524 466 l 502 466 l 531 466 l 538 466 l 538 473 l 538 479 l 538 486 l 518 486 l 545 486 l 552 486 l 552 493 b 545 493 518 500 482 500 l 567 500 l 567 506 l 496 513 l 574 513 l 574 522 l 580 522 l 580 528 l 580 535 l 567 542 l 587 542 l 587 549 l 594 549 l 601 549 b 601 552 600 554 597 555 b 596 556 595 556 594 556 l 558 556 l 601 556 l 601 571 l 601 578 l 607 578 l 614 578 b 618 578 621 579 622 581 b 623 582 623 583 623 584 l 623 591 l 614 591 b 605 591 594 591 583 592 b 564 593 538 594 509 598 l 623 598 l 630 598 b 637 598 636 598 636 605 l 630 605 b 623 605 601 612 574 612 l 636 612 l 643 612 l 643 618 l 636 618 b 629 618 621 618 614 619 b 601 620 584 622 567 627 l 650 627 l 650 634 l 607 634 l 657 634 l 657 647 l 587 647 l 614 647 l 614 654 l 663 654 l 663 661 l 643 661 l 679 661 l 679 668 l 594 676 l 685 676 l 685 683 l 663 683 l 685 683 l 692 683 l 692 690 l 692 696 l 699 696 l 699 703 l 574 710 l 713 710 l 713 723 l 713 732 l 650 732 l 719 732 l 719 746 l 685 746 l 735 746 l 728 752 l 475 752 l 475 746 l 462 746 l 462 732 l 496 732 l 462 732 l 462 723 l 538 717 l 453 717 l 453 710 l 567 703 l 440 703 l 440 696 l 440 690 l 524 683 l 433 683 l 433 676 l 446 676 l 446 668 l 567 661 l 545 661 l 468 661 l 440 661 l 433 661 b 426 661 426 661 426 654 l 433 654 b 437 654 442 654 447 653 l 482 647 l 446 647 l 426 647 l 419 647 l 412 647 l 412 640 l 404 640 l 404 634 l 397 634 l 390 634 l 390 627 l 390 612 l 384 612 l 384 605 l 390 605 l 377 605 l 377 598 l 370 598 l 370 591 l 496 584 l 363 578 l 348 578 l 301 578 l 348 578 l 348 584 l 278 584 l 341 591 l 341 598 l 334 598 l 334 605 l 321 605 l 328 605 l 328 612 l 328 627 l 321 627 l 328 627 l 321 634 l 307 634 l 307 640 l 216 640 b 240 643 264 645 283 646 b 294 647 303 647 314 647 l 321 647 l 321 654 l 314 654 l 265 654 l 301 654 l 307 654 l 307 661 l 307 668 l 301 668 l 272 668 l 292 668 l 292 676 l 292 683 l 229 683 l 285 683 l 285 690 l 285 703 l 153 703 l 272 710 l 272 717 l 209 717 l 265 717 l 265 732 l 202 732 l 258 732 l 258 739 l 195 746 l 251 746 l 251 752 l -15 752 l -15 746 l 33 746 l -8 746 l -8 732 l 19 732 l -1 732 l -1 723 l 55 723 l 5 723 l 5 710 l 131 710 l 12 703 l 12 696 l 41 696 l 26 696 l 19 696 l 19 690 b 26 683 26 683 26 690 l 26 683 l 48 683 l 26 683 l 26 676 l 68 676 l 41 676 l 41 668 l 131 668 l 55 661 l 55 654 l 97 654 l 97 647 l 104 647 l 61 647 l 61 634 l 111 634 l 104 634 l 75 634 l 68 634 b 61 634 61 634 61 627 l 68 627 l 104 627 l 82 627 l 75 627 l 75 618 l 68 618 l 68 612 l 75 612 l 82 612 l 75 612 b 75 609 76 607 78 606 b 79 605 80 605 82 605 l 90 605 l 90 598 l 153 598 l 131 598 b 116 591 111 591 104 591 l 97 591 l 90 591 l 90 584 l 97 584 l 104 584 l 104 578 l 111 578 l 111 571 l 117 571 l 117 556 l 117 549 l 124 549 l 173 549 l 131 549 l 131 535 l 167 542 l 138 535 l 138 528 l 173 528 l 146 528 l 146 513 l 187 522 b 172 513 167 513 160 513 l 153 513 l 146 513 b 146 506 146 506 153 506 l 167 506 l 160 506 l 160 500 l 187 500 l 173 500 b 173 496 171 495 170 494 b 169 493 168 493 167 493 l 160 493 b 160 490 161 488 163 487 b 164 486 165 486 167 486 l 195 486 l 202 486 l 173 486 l 173 479 l 180 479 b 178 479 177 479 176 478 b 174 477 173 475 173 473 l 180 466 l 209 466 l 202 466 l 187 466 l 187 457 l 292 457 l 243 450 l 243 444 l 236 444 l 209 444 l 202 444 l 195 437 l 202 437 l 265 437 l 251 437 b 243 437 236 430 229 430 l 223 430 l 216 430 l 216 423 l 251 423 b 243 420 238 419 234 418 b 232 417 230 417 229 417 l 223 417 l 216 417 b 216 412 217 410 219 409 b 220 408 221 408 223 408 l 229 408 l 223 408 l 223 401 l 223 394 l 229 394 l 216 394 l 216 388 l 272 381 l 209 381 l 209 374 l 251 374 l 202 374 l 202 367 l 195 367 l 195 352 l 265 352 l 187 352 l 187 345 l 251 339 l 180 339 l 180 332 l 223 332 l 173 332 l 173 318 l 187 318 l 167 318 l 167 311 l 160 311 l 160 305 b 171 305 183 305 196 304 b 219 303 247 300 278 296 l 146 296 l 146 283 l 138 283 l 124 283 l 117 283 b 117 280 118 278 120 277 b 121 276 122 276 124 276 l 187 276 l 131 276 l 131 262 l 124 262 l 124 247 l 117 247 l 117 240 b 126 240 137 240 149 239 b 168 238 195 236 223 233 l 104 233 l 104 227 b 112 227 120 227 131 226 b 148 225 170 223 195 220 l 146 220 l 117 220 l 111 220 l 104 220 l 104 213 l 173 213 b 160 206 139 206 124 206 l 97 206 l 90 206 l 82 206 l 82 199 l 90 199 l 111 199 l 111 191 l 90 191 l 82 191 l 75 191 l 75 184 l 82 184 l 111 184 l 104 184 l 68 184 l 61 184 l 55 184 l 55 177 l 82 174 b 99 172 120 171 146 171 l 61 171 l 61 164 l 94 160 b 114 158 140 157 173 157 l 55 157 l 55 142 l 90 142 l 48 142 l 41 135 l 75 135 l 41 135 l 41 121 l 33 121 l 33 115 l 117 115 l 68 115 l 33 115 l 26 115 l 19 108 l 19 101 l 26 101 l 68 101 l 19 101 l 12 94 l 75 86 l 12 86 l 12 79 l 48 79 l 33 79 l 5 79 l -8 79 l -15 79 l -15 72 l -8 66 l 124 66 b 92 66 59 65 34 62 l -8 59 l -8 52 l -15 52 l -23 52 b -23 45 -23 45 -15 45 l 33 45 l 19 45 l -15 45 l -23 45 b -26 45 -28 44 -29 41 b -30 40 -30 39 -30 37 b -30 34 -29 32 -27 31 b -26 30 -25 30 -23 30 l -1 30 l -30 30 l -30 23 l -8 23 l -37 23 l -37 10 l 19 10 l -44 10 l -44 3 l 229 -4 l 229 10 l 236 10 l 243 10 b 243 13 242 14 239 15 b 238 16 237 16 236 16 l 202 16 l 243 16 l 251 16 l 251 23 l 243 23 l 236 23 l 243 23 l 243 37 l 236 37 l 251 37 l 258 37 l 258 45 b 251 45 209 45 160 52 l 258 52 l 265 52 b 265 55 264 57 261 58 b 260 59 259 59 258 59 l 187 59 b 212 59 233 60 248 62 l 272 66 l 278 66 b 278 67 277 69 275 71 b 274 72 273 72 272 72 l 251 72 l 272 72 l 272 79 l 278 79 l 278 94 l 223 94 l 292 94 l 292 101 l 229 101 l 277 107 b 284 108 288 108 292 108 l 292 115 l 251 115 l 292 115 l 301 115 l 301 121 l 307 128 l 301 135 l 258 135 l 307 135 l 307 142 l 216 150 l 321 150 l 502 150 l 404 142 l 404 135 l 462 135 l 453 135 l 426 135 l 419 135 l 412 135 l 412 128 l 412 121 l 509 121 l 462 121 l 433 121 l 426 121 l 419 121 l 419 115 l 419 108 l 462 104 b 487 101 520 101 552 101 z m 636 184 l 630 184 z m 462 408 l 475 408 l 446 408 l 426 408 z m 356 466 l 328 466 l 356 466 l 390 466 z m 377 247 l 356 247 l 341 247 l 356 247 z m 341 528 l 363 528 l 377 528 z m 384 506 l 412 506 z m 390 556 l 370 556 z m 356 562 l 348 562 z m 356 542 l 377 535 l 341 535 l 334 535 z m 334 506 l 321 506 z m 328 500 l 328 493 l 321 493 z m 301 423 l 285 423 z m 272 408 l 243 408 l 236 408 l 301 408 z m 348 240 l 356 240 l 363 240 l 440 240 l 390 240 b 383 240 370 233 363 233 l 356 233 b 348 233 314 240 278 240 z m 363 227 l 356 227 z m 377 191 l 377 184 l 453 184 l 419 184 b 404 184 397 177 390 177 l 384 177 l 377 177 l 377 171 l 384 171 l 384 164 l 397 164 l 377 164 b 356 164 341 157 334 157 l 328 157 l 321 157 b 314 157 292 164 265 164 l 328 164 l 334 164 b 334 166 333 168 331 170 b 330 171 329 171 328 171 l 334 171 b 341 171 341 170 341 177 l 334 177 l 315 180 b 304 183 288 184 265 184 l 341 184 l 341 191 l 334 191 l 334 199 l 243 199 b 267 202 290 204 307 205 b 318 206 326 206 334 206 l 334 213 l 272 213 b 315 220 348 220 356 220 b 371 220 403 220 446 213 l 377 213 l 377 206 b 385 206 394 206 405 205 b 422 204 447 202 475 199 l 377 199 z m 692 108 l 692 101 z m 258 37 l 258 45 z"},"&":{"x_min":0,"x_max":728,"ha":728,"o":"m 561 134 b 553 141 547 148 532 163 b 539 156 545 151 552 147 b 555 144 558 142 561 141 l 561 134 l 567 134 z m 546 120 l 525 141 l 546 126 l 553 126 z m 532 105 l 532 113 b 532 114 531 115 530 117 b 527 120 524 123 517 126 b 524 123 530 120 533 117 l 538 113 z m 525 105 l 517 113 l 532 105 z m 517 91 b 510 91 510 91 510 98 l 510 105 l 517 98 z m 503 84 l 503 91 b 503 84 503 84 510 84 z m 451 149 b 467 141 480 127 495 120 b 495 117 496 115 499 114 b 500 113 502 113 503 113 l 503 105 b 488 120 467 134 451 149 z m 495 91 b 495 94 494 96 491 97 b 490 98 489 98 488 98 l 495 98 z m 488 77 l 451 120 l 488 84 z m 481 62 l 415 134 l 481 69 z m 409 206 b 409 199 424 185 437 177 b 424 185 409 199 402 206 z m 402 185 l 391 194 l 386 199 l 394 191 l 402 191 z m 365 177 l 350 191 l 344 185 l 358 155 l 344 185 l 336 177 b 336 176 336 174 337 173 b 338 171 340 170 344 170 b 340 170 338 171 337 173 b 336 174 336 176 336 177 l 329 170 l 329 163 l 329 170 l 322 170 l 322 149 l 322 163 l 308 163 l 308 155 l 300 155 l 308 120 l 300 155 l 293 155 l 279 155 l 272 155 l 272 134 l 272 163 l 263 163 l 257 163 l 250 163 l 236 163 l 236 170 l 227 170 l 221 170 l 227 177 l 221 177 l 214 185 l 206 191 l 206 199 l 206 206 l 206 214 l 198 214 l 198 220 l 198 227 l 185 235 l 198 235 l 198 242 l 206 249 l 193 249 l 198 249 l 198 256 l 206 256 l 206 264 l 193 271 l 214 264 l 221 271 l 214 271 l 214 278 l 206 285 l 221 271 l 227 285 l 221 285 l 227 285 l 236 292 l 221 307 l 236 292 l 242 300 l 250 292 l 257 300 l 227 342 l 257 307 l 263 313 l 242 342 l 263 307 l 279 313 l 257 342 l 272 313 l 287 321 l 279 336 l 279 328 l 287 328 l 287 336 b 287 337 287 338 286 340 b 285 343 283 346 279 350 l 293 328 l 300 328 l 300 336 l 300 328 l 279 313 l 279 307 l 322 328 l 287 307 l 293 300 l 350 328 l 300 300 l 308 292 l 336 307 l 300 285 l 308 278 l 358 307 b 350 300 344 300 336 292 b 329 285 322 285 322 278 l 315 278 b 308 278 308 278 308 271 l 315 271 b 322 271 329 278 350 285 l 322 271 l 322 264 l 340 273 b 351 278 367 285 386 292 b 371 285 358 276 347 269 b 340 265 334 261 329 256 l 336 249 l 365 264 l 336 249 l 344 242 l 386 264 l 344 235 l 350 227 l 437 285 l 365 220 l 365 214 l 409 249 l 350 199 l 373 199 l 365 191 l 358 185 l 373 170 z m 198 177 b 198 178 198 180 199 181 b 200 184 203 185 206 185 l 193 177 z m 198 206 l 193 199 l 185 199 l 193 199 z m 177 443 l 185 451 l 206 407 z m 162 443 l 170 443 l 198 393 z m 221 414 l 193 451 z m 214 458 b 221 451 237 422 242 401 b 227 422 214 443 206 458 z m 227 464 l 250 422 l 221 464 z m 250 479 b 257 464 263 443 279 422 b 271 437 263 449 258 458 b 255 463 253 468 250 472 l 236 472 b 243 464 250 452 257 429 b 250 452 236 464 236 472 z m 263 479 l 263 464 l 257 479 z m 293 594 l 300 594 l 300 601 l 293 601 l 293 609 l 293 616 l 300 623 l 300 630 l 308 638 l 315 638 l 315 645 l 329 645 l 322 651 l 329 651 l 336 651 l 344 651 l 358 651 l 358 659 l 358 651 l 365 651 l 373 651 l 373 659 l 380 659 l 394 688 l 380 651 l 386 645 l 394 651 l 394 645 l 386 645 l 386 638 l 394 638 l 402 630 l 402 623 l 402 616 l 415 616 l 409 609 l 415 609 l 409 616 l 402 616 l 402 601 l 409 601 l 409 594 l 424 594 l 409 594 l 402 588 b 403 588 404 588 406 587 b 409 586 412 584 415 580 b 412 584 409 586 406 587 b 404 588 403 588 402 588 l 394 580 b 395 580 397 580 399 579 b 402 578 405 576 409 573 l 402 573 l 394 565 l 424 544 l 394 565 l 386 558 l 394 558 l 386 552 l 380 544 l 394 523 l 380 544 l 373 537 l 380 529 b 381 526 382 522 384 519 l 394 494 b 386 509 380 522 373 529 l 365 537 l 358 529 l 373 508 l 358 529 l 350 523 l 365 487 b 365 494 365 494 358 501 b 358 508 350 508 350 515 b 350 518 349 520 347 522 b 346 523 345 523 344 523 l 336 523 l 336 529 l 272 508 l 329 529 l 322 544 l 300 537 b 307 537 313 538 317 540 b 320 541 321 543 322 544 l 322 552 l 315 552 l 310 548 b 306 545 303 544 300 544 b 303 544 306 545 310 548 l 315 552 l 308 558 b 311 558 312 559 311 561 l 308 565 l 308 573 l 300 573 l 300 580 l 293 580 l 293 594 l 287 594 l 263 594 z m 287 616 l 287 623 z m 344 674 l 350 681 l 344 651 l 344 659 z m 409 674 l 402 666 z m 424 666 l 424 659 b 415 651 409 651 402 651 z m 415 731 l 415 739 z m 437 523 l 445 515 z m 445 666 l 451 666 z m 460 558 l 460 552 z m 495 659 b 496 659 498 659 500 658 b 503 657 506 654 510 651 l 460 645 z m 481 601 l 473 601 l 481 601 l 488 601 z m 488 616 l 473 616 z m 467 537 b 474 537 473 537 481 529 b 488 529 488 523 495 523 z m 473 494 l 488 487 l 488 479 z m 394 429 b 408 408 415 394 415 386 l 407 399 b 403 407 398 418 394 429 z m 336 458 l 315 501 l 300 494 l 308 487 l 300 479 l 293 494 l 315 501 z m 358 458 l 322 508 l 322 515 l 329 515 z m 336 523 l 344 508 b 340 508 338 509 337 511 b 336 512 336 514 336 515 z m 272 487 l 293 443 z m 287 494 b 287 487 293 472 300 451 b 296 458 294 467 291 474 b 290 478 288 482 287 487 z m 308 336 b 308 343 300 356 293 371 b 293 368 294 366 296 365 b 297 364 299 364 300 364 b 300 361 301 358 304 354 b 305 352 307 351 308 350 l 308 342 l 315 342 l 322 342 l 322 350 l 322 342 z m 336 350 l 322 386 b 325 382 327 378 328 375 b 329 373 329 372 329 371 b 332 367 334 364 335 361 b 336 359 336 358 336 357 b 336 354 337 352 340 351 b 341 350 343 350 344 350 z m 322 429 b 322 430 322 431 321 432 b 320 435 318 436 315 436 l 358 364 l 373 364 l 365 378 l 373 364 l 350 350 b 350 357 337 393 322 429 z m 373 378 l 380 371 z m 365 422 l 394 378 l 402 386 l 380 422 l 409 378 l 386 371 z m 437 401 l 424 393 l 386 472 z m 451 227 b 444 231 438 234 435 237 b 432 239 431 241 430 242 l 430 249 l 424 249 z m 415 235 l 415 242 l 445 220 l 437 220 z m 424 206 l 428 201 b 429 199 432 196 437 191 l 415 206 z m 402 220 l 394 214 l 386 214 l 402 227 l 402 220 b 409 220 409 221 409 214 z m 409 227 l 409 235 l 424 220 b 419 220 417 221 416 223 b 415 224 415 226 415 227 z m 451 214 l 460 206 z m 451 271 l 451 264 l 488 227 l 445 264 l 437 256 l 447 247 b 454 242 462 234 473 227 b 466 227 460 235 451 235 b 451 242 445 249 437 249 l 437 256 z m 467 285 l 467 278 l 481 264 l 473 271 l 467 271 l 467 278 l 460 278 z m 473 285 l 481 292 l 488 285 l 481 292 z m 517 149 l 503 155 z m 510 120 b 503 120 503 119 503 126 z m 510 134 l 503 141 z m 525 170 l 525 163 b 525 170 525 170 517 170 z m 538 235 l 532 235 z m 532 199 l 538 191 z m 495 307 l 495 300 b 503 300 532 279 567 256 b 532 279 495 292 488 300 z m 503 313 l 503 307 l 495 307 z m 553 227 l 553 220 l 546 227 z m 582 155 l 589 163 b 586 164 583 165 580 168 b 575 172 568 177 561 185 b 568 177 575 172 580 168 b 583 165 586 164 589 163 l 567 141 l 575 149 l 546 185 z m 185 214 l 177 214 z m 141 126 l 141 134 l 105 105 l 105 113 l 156 141 z m 105 98 l 98 91 z m 98 206 l 111 206 l 98 199 z m 90 214 l 90 220 l 127 220 z m 127 235 l 111 235 z m 134 191 l 111 191 z m 105 177 l 120 177 l 105 170 z m 105 155 l 105 163 l 120 170 z m 120 134 l 111 126 l 111 134 z m 105 141 l 111 141 l 105 149 l 120 149 z m 214 659 l 221 659 l 221 666 l 250 638 z m 170 666 l 177 666 l 193 659 z m 770 4 l 770 19 l 763 19 l 755 27 l 741 19 l 755 33 l 749 40 l 741 48 l 734 40 l 741 48 l 734 55 b 731 54 727 53 724 50 l 698 33 b 709 40 717 48 724 53 l 734 62 l 726 69 l 713 62 l 726 69 l 720 77 l 698 69 l 720 84 l 713 91 l 677 62 l 704 91 l 704 98 l 661 69 l 698 98 l 691 105 l 683 98 l 691 105 l 683 113 l 618 69 l 683 126 l 677 134 l 633 98 l 677 134 l 669 141 l 603 91 l 669 149 l 661 155 l 597 105 l 647 155 l 647 163 l 597 126 l 639 170 l 633 177 l 567 120 l 633 185 l 626 191 l 597 163 b 597 170 582 184 561 199 l 603 170 l 603 177 l 561 214 l 561 220 l 618 185 l 618 191 l 567 227 l 626 199 l 633 206 l 561 249 b 582 242 597 235 612 227 b 619 220 626 221 633 214 l 639 214 l 647 214 b 647 221 647 220 639 220 l 633 227 b 626 235 603 241 582 256 b 601 249 616 241 628 236 b 635 233 642 230 647 227 l 647 235 l 640 239 b 636 242 629 245 618 249 l 644 239 b 648 237 652 236 655 235 l 661 242 l 582 285 l 661 249 l 669 264 l 597 292 l 677 264 l 683 278 l 669 278 l 683 278 l 683 285 l 612 313 l 683 292 l 691 300 l 683 300 l 618 321 l 691 307 l 698 313 l 669 321 l 698 321 l 698 328 l 704 328 l 704 336 l 618 357 l 704 350 l 704 357 l 655 364 l 713 364 l 713 371 l 655 371 l 713 378 l 713 386 l 532 386 l 532 378 l 532 371 l 546 371 l 546 364 l 532 364 l 532 357 l 546 350 l 525 357 l 525 350 l 517 336 l 525 336 l 517 336 l 517 321 l 525 321 l 510 328 l 503 321 l 503 328 l 495 321 l 503 328 l 495 336 l 495 328 l 488 336 l 460 321 l 488 342 l 488 350 l 437 321 b 452 328 466 342 473 342 l 481 350 l 481 357 l 473 357 b 473 356 473 354 472 353 b 471 351 469 350 467 350 b 464 349 461 347 458 345 b 453 342 448 339 445 336 l 473 357 l 473 364 b 470 364 468 363 465 362 b 460 359 452 357 445 350 l 462 366 b 465 368 466 370 467 371 l 467 378 l 460 371 l 460 378 l 437 371 l 460 386 l 451 393 l 415 371 l 451 393 l 445 393 l 451 401 l 402 472 b 409 464 415 458 424 451 b 431 436 445 429 445 422 b 452 414 451 414 451 407 l 460 407 l 460 401 l 467 401 l 467 407 l 467 414 l 460 414 l 460 422 l 467 407 l 473 414 l 451 443 l 481 414 l 488 422 l 437 487 l 495 429 l 503 429 l 445 494 l 510 443 l 495 464 l 517 451 l 525 458 l 510 472 l 525 458 l 532 464 l 510 487 l 532 472 l 532 479 l 538 472 l 546 479 l 517 501 l 510 508 l 553 487 l 553 494 l 561 494 l 561 501 l 553 501 b 550 502 547 503 544 505 l 525 515 l 517 523 l 561 501 l 561 508 l 546 523 b 549 520 552 517 556 516 b 558 515 560 515 561 515 l 567 515 l 567 508 l 575 508 l 575 515 l 575 523 b 567 523 538 537 503 552 l 575 529 l 575 537 l 575 544 l 575 537 l 582 552 l 525 565 l 510 573 l 532 565 l 532 573 b 539 565 546 565 553 565 b 561 565 567 565 575 558 l 582 558 b 585 558 587 559 588 561 b 589 562 589 564 589 565 l 582 565 l 576 570 b 571 573 564 576 553 580 l 546 580 l 589 573 l 589 580 l 567 588 l 582 588 l 589 588 l 589 594 l 532 601 l 589 601 l 597 616 l 589 616 l 589 623 l 553 623 l 525 630 l 582 630 l 582 645 l 525 638 l 582 645 l 582 651 l 575 651 l 582 659 l 575 666 l 538 659 b 537 659 535 659 534 660 b 531 661 528 662 525 666 l 517 666 l 567 681 l 575 681 l 567 688 b 558 687 549 686 540 683 b 523 678 503 673 481 666 l 488 674 b 517 682 562 687 567 695 l 567 702 l 561 702 l 561 710 l 510 695 l 553 710 l 553 724 l 538 716 l 546 724 l 538 731 l 510 710 l 532 731 l 525 739 l 525 745 l 460 702 l 493 735 l 510 752 l 503 760 l 503 752 l 495 760 l 467 739 l 488 767 l 481 775 l 467 752 l 473 767 l 467 775 l 415 710 l 460 781 l 445 789 l 437 767 l 437 781 l 430 789 l 424 767 l 415 775 l 415 781 l 409 781 l 409 789 l 402 789 l 386 739 b 390 754 392 765 393 774 b 394 779 394 784 394 789 l 386 796 l 386 789 l 386 796 l 380 796 l 358 710 l 365 796 l 350 796 l 350 789 l 350 796 l 344 796 l 336 796 l 336 760 l 329 796 l 322 796 l 329 716 l 308 796 l 300 789 l 315 716 l 293 789 l 279 789 l 300 724 l 272 781 l 263 781 l 300 688 l 242 781 l 236 775 l 242 767 l 236 775 l 227 775 b 232 768 236 760 240 752 b 247 737 256 721 263 702 l 263 710 b 248 727 237 744 228 756 l 214 775 l 206 767 l 214 760 l 206 760 l 236 710 l 227 710 l 236 695 l 193 752 l 185 745 l 193 731 l 193 739 l 185 731 l 177 739 l 170 731 l 242 666 l 162 724 l 156 716 l 214 666 l 141 695 l 134 688 l 148 681 l 127 681 l 127 674 l 193 651 l 127 666 l 120 659 l 206 630 l 120 651 l 111 645 b 120 638 162 631 206 616 b 221 616 227 609 242 609 b 227 609 214 609 198 616 b 155 616 120 623 111 623 l 111 616 l 250 588 l 111 580 l 120 573 l 242 580 l 111 544 l 120 537 l 162 544 l 120 537 l 120 523 l 227 552 l 134 515 l 134 508 l 141 501 b 142 501 143 501 146 502 b 149 503 155 504 162 508 b 155 504 149 501 146 498 l 141 494 l 141 487 l 177 501 l 170 501 b 166 497 163 496 160 495 b 158 494 157 494 156 494 b 156 491 155 489 152 488 b 151 487 149 487 148 487 b 141 487 141 479 148 479 b 156 479 170 487 193 494 l 166 484 l 156 479 l 162 472 l 162 458 l 242 487 l 214 472 l 214 479 l 206 472 l 198 464 l 198 472 l 193 464 l 185 458 l 185 464 l 177 458 l 170 458 l 162 451 l 156 451 l 148 443 l 141 443 l 148 436 l 156 436 l 198 364 l 141 436 l 134 429 l 198 350 l 120 422 l 111 422 l 162 364 l 105 414 l 98 407 l 162 342 l 90 401 l 84 393 l 170 321 l 69 386 l 62 378 l 141 321 l 54 371 l 47 364 l 111 328 l 40 364 l 40 350 l 84 328 l 33 350 l 26 342 l 47 336 l 26 342 l 26 336 l 98 300 l 18 328 l 18 321 l 120 278 l 10 307 l 5 300 l 105 271 l 5 292 l 5 278 l 62 264 l 26 271 l 18 264 l 69 256 l 5 264 l 5 249 l 5 242 l 62 235 l -11 235 l -11 227 l -4 227 l -4 220 l 54 214 l 33 214 l -4 206 l -4 199 l -4 191 l 62 199 b 62 198 62 196 61 195 b 60 192 57 191 54 191 l 5 185 l 5 177 l 5 170 l -4 170 l 5 163 b 10 163 33 170 62 177 l 75 177 l 69 177 l 10 155 l 10 149 l 18 141 l 54 155 l 18 134 l 26 126 l 75 149 l 62 134 l 26 113 l 26 105 l 40 105 l 84 134 l 84 126 l 33 98 l 40 91 l 62 98 l 47 84 l 47 77 l 54 77 l 90 105 l 90 98 l 54 69 l 62 62 l 90 84 l 84 77 l 62 55 l 69 48 l 84 55 l 90 48 l 134 105 l 148 126 b 141 119 141 113 134 105 b 127 90 112 69 105 62 b 98 55 98 48 90 48 l 90 40 l 90 33 l 98 33 l 105 40 l 111 33 l 162 98 l 120 27 l 127 27 l 162 77 l 127 19 l 141 19 l 185 98 l 148 4 l 156 4 l 193 84 l 162 4 l 170 -2 l 206 77 l 185 -2 l 193 -2 l 206 40 l 198 4 l 206 -2 l 214 27 l 206 -10 l 214 -10 l 227 33 l 221 -10 l 227 -10 l 250 91 l 242 -10 l 250 -10 l 263 84 l 263 -10 l 272 -10 l 279 62 l 279 -17 l 287 -17 l 287 62 l 300 -17 l 308 -17 l 300 77 l 315 -10 l 329 -10 l 308 91 l 344 -2 l 350 -2 l 336 55 l 358 -2 l 365 -2 l 344 69 l 373 -2 l 380 4 l 365 62 l 386 4 l 394 12 l 365 77 l 402 12 l 409 19 l 358 120 b 385 82 424 34 424 27 l 430 27 l 437 27 b 430 34 424 47 415 62 l 437 27 l 445 33 l 394 126 l 451 48 l 460 55 l 415 113 l 473 55 l 481 55 l 481 62 l 488 55 l 532 98 l 495 55 l 495 48 l 510 55 l 495 40 l 503 33 l 575 91 l 510 33 l 517 27 l 546 48 l 517 19 l 525 12 l 546 33 l 546 27 l 525 4 l 532 -2 l 589 40 l 561 12 l 561 4 l 612 40 l 575 12 l 582 4 l 647 48 l 603 4 l 603 -2 l 639 27 l 626 12 l 626 4 l 639 12 l 647 4 l 661 12 l 661 4 l 669 4 l 677 12 l 683 4 l 698 19 l 698 12 l 698 4 l 726 19 l 720 12 l 720 4 l 741 12 l 734 4 z"},"v":{"x_min":0,"x_max":676,"ha":676,"o":"m 669 768 l 697 768 l 697 776 l 705 776 l 705 790 l 457 790 l 457 776 l 457 768 l 457 759 l 451 759 l 451 754 l 451 746 l 479 738 l 451 738 l 451 731 l 442 731 l 442 725 l 479 725 l 451 725 l 442 725 l 442 717 l 442 709 l 435 709 l 435 695 l 435 702 l 435 688 l 435 680 l 457 680 l 451 680 l 435 680 l 428 680 l 428 673 l 435 673 b 437 673 439 673 440 672 b 443 671 446 669 451 665 l 485 665 l 428 665 l 428 657 l 420 657 l 420 652 l 428 652 l 428 645 l 420 645 l 420 629 l 420 637 l 420 623 l 420 615 l 420 607 l 451 607 l 415 607 l 415 600 l 415 592 l 407 592 l 407 586 l 407 572 l 399 572 l 399 556 l 399 550 l 451 550 l 399 550 l 399 542 l 391 542 l 391 535 l 391 527 l 391 521 l 384 521 l 384 513 l 384 497 l 399 497 l 384 497 l 384 491 l 399 491 l 378 491 l 378 485 l 391 477 l 378 485 l 378 468 l 428 468 l 378 468 l 378 461 l 428 456 l 391 456 l 378 456 l 369 456 l 369 448 l 289 448 l 289 456 l 289 461 l 289 468 l 203 468 l 283 477 l 283 485 l 253 485 l 289 491 l 289 497 l 203 497 l 275 497 l 275 513 l 182 513 l 275 521 l 275 527 l 166 521 l 268 535 l 268 542 l 195 542 l 247 542 l 253 542 b 260 542 260 542 260 550 l 268 550 l 268 556 l 260 556 l 247 556 b 232 556 211 550 182 550 l 260 556 l 260 572 l 216 572 l 260 572 l 268 572 l 268 578 l 260 578 l 260 586 l 253 586 l 253 600 l 247 600 l 253 600 l 253 607 l 182 607 l 247 607 l 247 623 l 166 623 l 247 623 l 247 637 l 210 637 l 239 637 l 247 637 l 247 645 l 239 645 b 234 645 231 645 224 646 l 188 652 l 239 652 l 239 657 l 114 657 l 232 665 l 232 680 l 174 673 l 232 680 l 232 688 l 174 688 l 224 695 l 224 702 l 174 702 l 224 702 l 224 717 l 166 717 l 216 717 l 216 725 l 210 725 l 216 725 l 216 738 l 158 738 l 216 738 l 216 746 l 203 746 l 210 746 l 210 759 l 166 754 l 203 759 l 203 768 l 195 768 l 203 768 l 203 776 l 210 776 l 210 783 b 210 804 216 811 232 818 b 247 826 275 825 306 832 b 313 832 326 841 334 849 b 349 857 349 861 349 877 l 341 877 b 341 861 334 857 318 849 b 305 841 276 841 247 832 b 224 832 203 819 203 790 l -30 790 l -30 776 l 43 776 l -30 776 l -30 759 l 86 759 l -30 754 l -30 746 l -22 738 l -22 725 l -16 725 l -22 725 l -16 717 l 49 717 l -16 717 l -16 702 l -9 702 l -16 702 l -9 695 l 86 695 l -9 688 l -9 680 l 64 680 l -9 673 l -9 665 l 28 665 l -2 665 l -2 652 l 6 652 l 6 645 l 49 645 l 6 645 l 6 629 l 114 629 l 13 623 l 13 615 l 86 615 l 13 615 l 13 600 l 109 600 l 13 592 l 13 586 l 21 586 l 21 578 l 64 578 l 28 578 l 28 564 b 35 564 49 564 64 572 b 55 569 47 566 38 565 b 34 564 31 564 28 564 l 28 556 l 158 556 l 28 542 l 28 535 l 109 535 b 86 535 66 534 51 531 l 28 527 l 28 521 l 43 521 l 43 513 l 35 513 l 35 497 l 94 497 l 43 497 l 43 491 l 49 491 l 43 491 l 43 477 l 145 477 l 49 468 l 49 461 l 56 461 l 56 456 l 86 456 l 71 456 l 64 456 l 56 456 l 56 448 l 56 441 b 64 441 71 448 94 448 l 64 441 l 64 433 l 71 433 l 71 425 l 79 425 l 71 425 l 71 412 l 79 419 l 71 412 l 71 404 l 79 404 l 71 404 l 71 395 l 150 395 l 79 388 l 79 382 l 129 382 l 86 382 l 86 367 l 129 367 l 86 367 l 86 360 l 122 360 l 94 360 l 94 354 l 94 346 l 137 346 l 94 346 l 94 338 l 94 323 l 101 323 l 94 323 l 94 317 l 101 317 l 129 317 l 114 317 l 109 317 l 101 317 l 101 309 l 109 301 l 137 301 l 101 301 l 101 294 l 101 286 l 114 286 b 111 286 109 286 109 286 b 109 286 109 284 109 281 l 114 281 l 114 273 l 129 273 l 145 273 l 114 273 l 114 265 l 114 258 l 137 258 l 129 258 l 129 244 l 150 244 l 129 244 l 129 236 l 182 236 l 129 229 l 129 221 l 158 221 l 129 221 l 129 216 l 137 216 l 137 200 l 145 200 l 137 200 l 137 192 l 137 184 l 203 184 l 150 178 l 150 171 l 224 171 b 201 171 183 170 168 167 l 145 163 l 145 155 l 158 155 l 158 150 l 158 135 l 182 135 l 182 127 l 158 127 l 158 120 l 210 120 l 166 114 l 166 105 l 232 105 l 166 97 l 166 90 l 188 90 l 182 90 l 182 84 l 182 76 l 174 76 l 174 69 l 182 69 l 182 61 l 182 49 l 247 49 l 188 49 l 188 32 l 210 32 l 210 24 l 188 24 l 188 17 l 275 17 l 268 17 l 268 12 l 195 12 l 195 4 l 312 4 l 457 -4 l 457 12 l 407 12 l 457 12 l 465 12 l 465 17 l 465 24 l 442 24 l 471 24 l 471 32 l 465 32 l 465 41 l 471 41 l 471 49 l 451 54 l 479 54 l 479 61 l 435 61 l 479 61 l 479 69 l 479 76 l 471 76 l 479 76 l 479 84 l 457 84 l 485 84 l 485 90 l 485 105 l 415 105 b 458 105 493 114 501 114 l 509 114 b 509 117 508 118 505 119 b 504 120 503 120 501 120 l 501 127 l 501 135 l 471 135 l 501 135 l 501 150 l 465 150 l 509 150 l 516 150 l 516 155 l 509 155 b 501 155 494 163 479 163 l 501 163 l 501 171 l 493 171 l 522 171 l 522 178 l 428 192 l 522 184 l 522 200 l 485 200 l 522 200 l 522 208 b 521 208 519 208 518 209 b 513 210 510 213 509 216 l 530 216 l 530 221 l 522 221 l 538 221 l 538 229 l 509 236 l 538 229 l 538 244 l 485 244 l 522 244 l 538 244 b 540 244 541 244 542 245 b 545 246 546 248 546 252 l 538 252 l 530 252 b 522 252 516 258 509 258 l 546 258 l 546 265 l 485 265 l 546 265 l 546 281 l 516 281 l 546 281 l 552 281 l 552 286 l 546 286 b 541 286 538 286 536 287 b 528 288 521 291 516 294 b 531 286 545 286 552 286 l 552 294 l 558 294 b 558 296 557 298 555 300 b 554 301 553 301 552 301 l 516 301 l 552 301 l 552 309 l 558 309 l 558 317 l 509 323 l 552 323 l 552 332 l 558 332 l 558 338 l 566 338 l 566 346 l 566 354 l 574 354 l 574 360 l 574 367 l 581 367 l 581 375 l 587 382 l 581 382 l 581 388 l 530 388 l 581 388 b 582 388 583 388 584 389 b 586 390 587 392 587 395 l 581 395 b 574 395 547 404 516 404 l 552 404 l 574 404 l 587 404 b 589 404 590 404 591 405 b 594 406 595 409 595 412 l 587 412 b 591 412 593 413 594 416 b 595 417 595 418 595 419 l 587 419 b 587 426 581 425 558 425 l 595 425 l 595 433 l 493 441 l 603 441 l 603 448 l 558 448 l 603 448 l 603 456 l 611 456 b 614 456 617 457 618 458 b 619 459 619 460 619 461 l 611 468 l 581 468 l 619 468 l 619 477 l 611 477 l 619 477 l 619 485 l 625 485 l 625 491 l 595 497 l 625 491 l 625 497 b 632 497 631 497 631 505 l 625 513 l 595 513 l 625 513 l 625 521 l 631 521 l 631 527 l 595 527 l 631 527 l 631 535 l 631 542 l 639 542 l 639 556 l 611 556 l 631 556 l 639 556 l 639 564 l 631 564 l 611 564 l 639 564 l 639 578 l 625 578 l 647 578 l 647 586 l 632 589 b 625 590 614 592 603 592 l 647 592 l 647 600 l 647 607 l 654 607 l 654 615 l 654 623 l 654 629 l 660 629 l 660 637 l 639 637 l 631 637 l 647 637 l 654 637 b 655 637 656 637 657 638 b 659 640 660 642 660 645 l 660 657 l 647 657 l 669 657 l 669 665 l 669 673 l 639 673 l 676 673 l 676 688 l 639 688 l 676 688 l 676 695 l 676 702 l 683 702 l 683 709 l 683 717 b 676 725 660 725 639 725 l 683 725 l 683 731 l 689 731 l 689 738 l 683 738 l 683 746 l 689 746 l 689 754 l 660 759 b 672 759 680 757 687 757 l 697 754 l 697 759 l 705 759 b 705 764 704 766 701 767 b 700 768 699 768 697 768 z m 268 448 l 268 441 l 247 441 z m 306 258 l 334 258 l 318 258 l 318 252 l 283 252 l 306 252 z m 341 294 b 356 294 376 294 399 286 b 378 286 362 287 349 290 l 326 294 l 326 286 l 312 286 b 319 289 323 292 328 293 b 330 294 332 294 334 294 z m 341 281 l 354 281 z m 334 273 l 326 273 z m 334 252 l 362 244 l 334 244 z m 341 265 l 341 273 l 399 265 z m 326 221 l 378 221 l 349 221 l 334 221 l 283 221 z m 318 192 l 306 192 z m 341 171 l 391 171 z m 326 163 l 312 163 z m 354 127 l 341 127 z m 312 120 l 306 120 z m 312 142 l 283 142 z m 349 155 l 318 155 l 341 155 l 399 155 z m 334 184 l 399 184 z m 326 178 l 283 178 z m 326 229 l 326 244 l 334 244 l 334 236 l 415 229 z m 354 412 l 354 404 b 362 404 368 395 391 395 l 354 395 l 354 388 l 384 388 l 349 388 l 349 382 l 349 375 l 349 360 l 349 354 l 349 346 l 349 338 l 349 332 l 341 338 l 341 323 l 341 317 l 391 317 l 341 317 l 341 301 l 349 301 l 341 301 l 334 301 l 334 309 l 326 309 l 326 317 l 268 317 l 326 317 l 326 332 l 312 332 l 326 332 l 326 338 l 289 338 l 318 338 l 318 354 l 253 346 l 318 354 l 318 360 l 318 367 l 312 367 l 312 382 l 283 382 l 312 382 l 312 388 l 216 388 l 306 395 l 306 404 l 275 404 l 306 404 l 306 419 l 289 419 l 297 419 l 297 425 l 297 433 l 297 441 l 407 433 l 369 433 l 369 425 l 415 425 l 369 425 l 369 412 l 435 412 z"},"O":{"x_min":0,"x_max":782,"ha":782,"o":"m 698 355 l 747 355 l 747 362 l 753 362 l 753 368 l 747 368 l 747 377 l 725 377 l 747 377 l 747 384 l 753 384 l 753 390 l 753 397 l 753 390 l 753 397 l 747 404 l 747 410 l 753 410 l 753 417 l 747 417 l 711 417 l 740 417 l 747 417 l 747 423 l 753 423 l 753 432 l 747 432 b 742 432 739 432 737 431 b 732 430 724 428 711 423 l 753 439 l 753 446 l 747 446 l 747 452 l 733 452 l 753 452 l 753 459 l 669 452 l 753 465 l 753 472 l 747 472 l 747 479 l 650 465 l 740 488 l 740 494 l 698 494 l 740 507 l 747 507 l 747 514 l 643 494 l 740 521 l 733 527 l 705 521 l 733 534 l 733 543 l 623 501 l 608 501 l 725 543 l 718 549 l 678 543 l 718 556 l 718 563 l 733 569 l 725 576 l 636 534 l 574 507 l 705 598 l 705 611 l 643 569 l 705 618 l 698 625 l 650 598 l 692 631 l 685 638 l 588 569 l 643 638 l 663 660 l 656 660 l 663 667 l 656 673 l 608 631 l 650 673 l 643 680 l 588 631 l 636 686 l 630 693 l 539 625 l 608 715 l 601 722 l 594 722 l 588 722 b 588 715 574 701 559 686 l 588 728 l 581 735 l 539 673 l 574 742 l 568 742 l 559 735 l 559 742 l 559 748 l 552 748 b 552 741 539 723 532 700 b 532 709 532 715 539 722 b 539 725 540 728 542 731 l 546 735 l 546 742 l 552 742 b 552 743 551 745 549 747 b 548 748 547 748 546 748 l 539 748 l 513 709 l 532 755 l 526 764 l 513 735 l 526 764 l 519 764 l 504 748 l 504 755 l 513 764 l 497 770 l 484 735 l 497 777 l 484 777 b 481 777 479 776 478 773 b 477 772 477 771 477 770 b 477 763 471 742 464 715 l 477 770 l 471 770 l 471 777 l 464 777 l 457 784 l 442 735 l 448 784 l 435 784 l 435 777 l 429 784 l 422 742 l 429 784 l 422 784 l 409 784 l 402 784 l 402 790 l 393 790 l 387 693 l 387 686 l 393 790 l 380 790 l 380 748 l 373 790 l 367 790 l 367 755 l 367 784 l 360 790 l 353 790 l 353 728 l 353 709 b 353 722 354 742 347 755 l 347 777 l 347 784 l 347 790 l 338 790 l 338 784 l 338 770 l 338 784 l 325 784 l 318 784 l 318 755 l 311 784 l 305 784 l 311 735 b 311 742 312 741 305 748 l 305 770 l 305 777 b 305 778 305 779 304 780 b 303 783 301 784 298 784 l 298 777 l 298 764 l 292 777 l 283 777 l 283 755 l 283 770 l 269 770 l 276 742 b 276 748 275 753 272 758 l 269 764 l 269 770 l 269 777 l 263 777 l 256 777 l 256 770 b 256 769 256 767 257 766 b 258 763 259 759 263 755 l 256 770 l 250 764 l 256 722 l 243 764 l 236 764 l 236 755 l 227 755 b 227 753 227 751 228 750 b 229 747 231 742 236 735 b 227 748 228 755 221 764 l 221 770 l 214 770 l 208 770 l 208 764 b 215 764 214 748 221 735 l 214 755 l 201 748 l 250 660 b 250 653 249 644 256 644 l 243 660 l 243 667 l 214 723 l 201 748 l 188 742 l 194 728 l 188 742 l 181 735 l 208 693 l 214 660 l 208 673 l 172 728 l 166 722 l 159 728 l 152 722 l 208 653 l 221 631 l 214 644 l 139 722 l 132 715 l 152 693 l 132 709 l 132 700 l 188 653 l 188 644 l 117 709 l 117 700 l 159 653 l 126 686 l 117 686 l 104 693 l 97 686 l 166 631 b 166 638 166 638 159 638 b 132 661 104 680 97 680 l 90 680 l 90 673 l 97 673 b 104 666 125 654 152 631 b 159 624 165 625 172 618 l 84 667 l 77 660 l 126 631 l 84 644 l 77 638 b 77 639 76 641 74 643 b 73 644 72 644 71 644 l 62 644 l 62 638 b 71 631 103 618 146 605 l 55 631 l 55 625 l 90 611 l 62 618 l 62 611 l 42 618 l 42 611 l 152 576 l 126 576 l 35 598 l 35 589 l 48 583 l 146 563 l 15 583 l 7 569 l 194 534 l 159 534 l 7 569 l 29 543 l 22 543 l 15 543 l 15 534 l 22 534 l 42 534 l 42 527 l 7 534 l 7 521 l 55 514 l 0 521 l 0 514 l 0 501 l 7 501 l 29 494 l 42 494 l -7 494 l -7 488 l 90 472 l -7 479 l -7 472 l -7 459 l 22 459 l -13 459 l -13 446 l -13 452 l -13 439 l 22 439 l -13 439 l -13 423 l 7 423 l 0 423 l -7 423 l -13 423 l -13 417 l -13 410 l -13 404 b -11 404 -10 404 -9 403 l 0 397 l 35 397 l -7 397 l -7 390 l -13 390 b -15 390 -16 390 -17 389 b -19 388 -20 386 -20 384 l -13 384 l 15 384 l -7 384 l -7 368 l 7 368 l -13 368 l -13 362 l -7 362 l -7 355 l -7 348 l 55 355 l -13 348 l -13 335 l -13 328 l 22 335 l -7 328 l -7 322 l -7 313 l 15 313 l 7 313 l 0 313 l -7 313 l -7 306 l -7 300 l -7 293 l 22 293 l 0 293 l 0 280 l 7 286 l 84 286 l 7 273 l 7 267 l 29 267 l 7 258 l 7 251 l 36 254 b 53 257 76 258 97 258 l 104 258 l 44 248 b 33 245 24 245 15 244 l 22 231 l 30 234 b 36 237 42 238 48 238 b 41 234 35 233 30 232 b 28 231 25 231 22 231 l 22 225 l 117 244 l 29 211 l 35 196 l 97 218 l 35 196 l 35 183 l 52 188 b 63 191 75 195 90 202 b 77 195 62 189 55 189 b 55 186 54 185 51 184 b 50 183 49 183 48 183 l 42 183 l 42 176 l 48 176 l 62 176 l 48 176 l 55 163 l 97 183 l 55 163 l 62 156 l 139 183 l 62 147 l 62 134 l 146 176 l 84 141 l 84 134 l 126 147 l 90 121 l 90 114 l 159 156 l 97 114 l 104 107 l 126 121 l 104 107 l 110 101 l 132 114 l 110 101 l 117 92 l 146 114 l 126 92 l 132 85 l 181 127 l 132 79 l 139 72 l 194 127 l 146 72 l 152 65 l 181 101 l 152 65 l 159 59 l 172 72 l 159 59 l 166 52 l 214 107 l 172 52 l 181 46 l 227 107 l 194 46 l 201 37 l 208 52 l 201 37 l 208 30 l 227 65 l 208 30 l 221 30 l 250 79 l 227 30 l 236 24 b 237 28 239 31 240 33 l 250 59 l 236 24 l 250 17 l 263 52 b 259 41 257 33 254 26 l 250 17 l 256 17 l 292 101 l 269 17 l 276 10 l 292 52 l 283 10 l 292 10 l 298 37 l 292 10 l 305 10 l 311 37 l 305 10 l 311 4 l 325 59 l 318 10 l 325 4 l 325 10 l 338 4 l 347 101 l 347 107 l 338 4 l 347 4 l 353 52 l 360 4 l 367 4 l 373 121 l 373 127 l 373 121 l 367 4 l 380 4 l 380 52 l 387 4 l 402 4 l 393 17 l 402 4 l 409 4 l 415 4 l 415 24 l 422 4 l 429 4 l 415 85 l 429 10 l 442 10 b 440 12 439 14 438 16 b 436 20 435 27 435 37 l 441 16 b 442 14 442 12 442 10 l 448 10 l 457 10 l 457 17 l 457 10 l 464 10 b 464 17 464 25 463 33 b 462 49 460 66 457 85 b 460 61 466 39 470 23 b 473 14 474 5 477 -3 l 484 -3 l 477 30 l 484 17 l 490 17 l 464 121 l 457 121 l 490 17 l 504 24 b 503 25 501 26 500 29 b 498 32 497 37 497 46 l 497 37 b 504 30 504 31 504 24 b 504 17 504 17 513 17 l 513 24 l 513 37 b 516 34 517 31 518 28 b 519 27 519 26 519 24 l 526 30 l 519 46 l 526 30 l 539 30 l 532 37 l 546 37 l 538 50 b 534 58 529 68 526 79 b 526 72 532 66 532 59 b 535 59 537 58 538 55 b 539 54 539 53 539 52 l 546 46 l 552 46 l 552 52 b 545 59 547 64 532 79 l 539 79 l 559 46 l 568 52 l 559 46 l 568 37 l 601 79 l 608 85 l 594 101 l 614 85 l 623 85 l 588 134 l 623 92 l 630 101 l 608 121 l 636 101 l 643 107 l 623 127 l 643 107 l 650 114 b 648 114 647 114 646 115 b 644 116 643 118 643 121 l 650 114 l 650 121 l 656 121 l 656 127 l 636 147 l 630 147 b 641 144 647 141 654 138 b 656 137 659 135 663 134 l 669 141 l 630 163 l 630 169 l 669 141 l 678 147 l 669 156 b 672 156 675 154 677 151 b 678 150 678 149 678 147 l 685 163 b 684 163 682 163 680 164 b 676 165 670 166 663 169 b 670 166 676 165 680 164 b 682 163 684 163 685 163 l 692 169 l 698 176 l 636 202 l 698 183 l 705 189 l 685 196 l 711 196 l 711 202 l 718 211 l 718 218 l 718 225 l 630 251 l 718 231 l 718 238 l 685 251 b 687 248 690 246 694 245 b 695 244 696 244 698 244 l 718 244 l 718 238 l 725 238 l 725 244 l 725 251 b 718 251 705 251 685 258 l 733 251 l 733 258 l 733 267 l 643 286 l 740 273 l 740 280 l 685 286 l 740 286 l 747 286 l 747 293 l 669 306 l 650 306 l 747 300 l 753 306 l 705 313 l 747 313 l 747 322 l 725 328 l 747 328 l 753 328 l 753 335 l 678 342 l 760 342 l 760 348 z m 669 479 l 643 472 l 656 479 z m 650 423 l 623 417 z m 574 521 l 581 527 l 588 527 z m 608 563 l 643 583 l 581 534 l 552 521 z m 568 549 l 546 534 l 588 583 z m 601 611 l 559 576 l 574 589 z m 568 598 l 539 576 l 581 618 z m 552 625 l 513 583 l 519 598 z m 519 644 l 513 638 z m 539 638 l 513 605 l 504 598 b 513 605 512 611 519 611 z m 497 722 l 490 709 z m 477 700 l 477 693 z m 477 660 l 484 660 l 471 631 l 471 618 z m 422 625 l 422 618 l 415 611 z m 250 631 l 236 644 l 227 667 l 243 638 z m 250 589 l 243 589 z m 181 521 l 110 527 l 90 527 l 159 527 z m 201 472 l 132 479 l 159 479 z m 172 501 l 188 501 z m 132 404 l 126 404 l 117 404 z m 110 514 l 104 521 l 126 514 z m 55 543 l 42 543 l 35 549 l 97 543 z m 90 432 l 126 432 l 84 432 z m 90 368 l 117 368 l 104 368 l 77 368 z m 84 306 l 29 306 b 56 306 84 306 117 313 z m 110 300 l 166 300 l 152 293 l 90 293 z m 90 280 l 159 286 l 166 286 l 110 280 z m 104 267 b 117 267 131 273 146 273 l 110 267 z m 166 218 l 152 211 l 166 218 l 170 221 b 173 224 177 225 181 225 z m 201 196 l 194 189 l 201 196 l 243 218 z m 208 244 l 201 244 l 194 244 z m 201 273 l 208 273 z m 269 176 l 276 176 z m 276 218 l 250 196 l 256 202 z m 283 147 l 283 141 l 276 147 l 292 163 z m 360 121 l 360 114 l 360 134 l 367 169 z m 429 189 b 429 182 428 176 435 169 b 428 176 429 176 429 183 z m 448 202 l 448 211 l 442 202 l 448 189 l 448 183 l 442 202 l 435 196 l 435 202 l 422 196 l 429 189 b 429 192 428 194 425 195 b 424 196 423 196 422 196 l 415 196 l 409 196 l 409 189 l 402 189 l 393 189 l 402 147 l 387 189 l 380 189 l 373 189 l 373 183 l 373 189 l 367 189 l 360 189 l 347 189 l 347 163 l 338 163 l 347 189 l 338 189 l 331 183 l 331 196 l 325 196 l 318 176 l 325 196 l 318 196 l 318 202 l 311 202 l 305 211 l 298 202 l 305 211 l 298 218 l 292 211 l 292 218 l 298 218 l 292 225 l 283 225 l 283 231 l 276 231 l 283 231 l 276 238 l 269 238 l 263 244 l 263 238 l 269 244 l 269 251 l 243 244 l 256 251 l 250 258 l 250 267 l 214 258 l 208 258 l 250 273 l 250 280 l 243 280 l 236 286 l 188 280 l 236 286 l 236 300 l 227 300 l 236 300 l 236 306 l 194 306 l 227 313 l 227 322 l 208 322 l 221 322 l 221 328 l 236 328 l 221 342 l 227 342 l 221 355 l 227 355 l 221 362 l 214 362 l 221 362 l 221 377 l 221 384 l 221 390 l 181 390 l 221 390 l 221 404 l 214 404 l 221 404 l 221 410 l 221 417 l 201 417 l 221 417 l 221 423 l 221 432 l 188 439 l 221 432 l 221 439 l 227 439 l 227 452 l 221 452 l 227 452 l 227 459 l 227 465 l 201 465 l 227 465 l 227 472 l 236 479 l 236 488 l 201 494 l 236 494 l 243 501 l 221 505 b 208 508 191 510 172 514 l 243 507 l 243 521 l 227 521 l 250 521 l 256 527 l 132 556 l 256 534 l 263 543 l 269 543 l 269 549 l 276 549 l 276 556 l 283 563 l 276 563 l 269 569 l 276 569 l 283 569 l 283 576 l 292 569 l 298 576 l 305 583 l 305 589 l 305 583 l 318 583 l 318 589 l 325 589 l 331 598 l 325 644 l 325 653 l 331 644 l 331 605 l 338 598 l 347 598 l 347 605 l 353 605 l 360 605 l 360 611 l 367 611 l 367 605 l 373 605 l 380 605 l 387 605 l 393 644 l 393 638 l 393 611 l 393 605 l 402 605 l 409 644 l 409 660 l 409 605 l 415 598 l 415 611 l 415 605 l 415 598 l 422 598 l 429 598 l 429 589 l 435 589 l 442 618 l 442 611 l 448 605 l 464 631 l 448 583 l 457 576 l 464 569 l 471 589 l 477 583 b 478 586 478 590 481 593 b 484 600 487 607 490 618 l 497 631 l 464 563 l 471 563 l 477 569 l 484 569 l 497 576 l 477 549 l 484 543 l 539 598 l 484 543 l 490 534 l 497 534 l 532 563 l 497 521 l 504 514 l 574 576 l 497 501 l 504 494 l 559 534 l 504 494 l 513 479 l 519 488 l 513 488 l 519 479 l 513 472 l 513 465 l 532 472 l 519 465 l 526 459 l 513 459 l 519 452 l 513 452 l 519 446 l 574 459 l 519 439 l 519 432 l 526 432 l 519 423 l 519 417 l 581 423 l 519 410 l 519 404 l 532 404 l 526 404 l 526 390 b 528 390 529 390 530 391 b 533 392 536 394 539 397 b 532 393 527 392 524 391 b 523 390 521 390 519 390 l 519 384 l 519 377 l 519 368 l 519 355 l 519 348 l 546 348 l 519 348 l 519 342 l 513 335 l 519 335 l 519 328 l 519 322 l 581 313 l 513 322 l 513 306 l 519 306 l 504 306 b 502 306 501 306 500 305 b 498 304 497 302 497 300 l 504 300 l 509 296 b 512 294 515 293 519 293 b 526 293 539 287 559 280 l 539 286 l 504 293 l 504 286 l 497 280 l 594 251 l 601 251 l 497 273 l 490 267 l 513 258 l 490 267 l 490 251 l 513 238 l 490 251 l 484 244 l 490 238 l 484 244 l 477 238 l 484 225 l 477 211 l 471 225 l 464 218 l 471 202 l 464 202 l 464 211 l 457 211 l 457 218 l 448 218 l 448 211 z m 188 342 l 208 342 l 214 335 l 208 335 l 208 342 z m 497 611 l 490 598 z m 559 251 l 574 244 z m 559 127 l 559 134 z m 532 141 l 539 141 l 526 134 z m 519 176 l 519 183 l 532 169 z m 471 141 l 471 134 z m 457 163 l 448 176 l 457 176 l 457 169 b 464 162 464 156 471 141 z m 471 127 l 471 121 l 471 114 z m 471 196 l 477 196 z m 477 183 l 477 189 z m 490 218 l 497 211 l 490 202 l 484 211 z m 484 176 l 490 169 z m 490 92 b 490 85 490 79 497 79 b 495 79 494 79 493 80 b 491 81 490 82 490 85 z m 497 176 l 504 176 z m 513 196 l 519 189 l 513 189 l 504 189 z m 513 156 l 504 163 l 513 169 l 519 163 z m 519 141 l 513 147 l 526 147 z m 526 127 l 546 134 l 532 121 z m 552 127 l 559 121 l 539 114 z m 539 101 l 539 107 l 546 107 z m 568 114 l 574 107 b 567 100 553 101 546 92 z m 552 85 b 553 85 554 85 555 86 b 558 87 559 89 559 92 b 568 92 574 92 581 101 l 581 92 l 574 85 l 564 76 l 559 72 z m 568 52 l 568 65 l 581 72 z m 594 85 l 581 79 b 581 86 588 85 588 92 z m 568 196 l 581 196 l 623 176 l 623 169 z m 588 231 l 608 218 l 594 225 z m 614 163 b 616 163 617 163 618 162 b 621 160 623 158 623 156 z m 630 127 l 614 141 z m 705 202 b 692 202 679 211 656 211 b 649 218 650 218 643 218 l 636 218 l 594 238 z m 614 328 l 608 328 l 601 328 l 608 328 z m 614 397 l 630 397 z m 636 410 l 623 410 l 601 410 l 623 410 l 636 410 l 656 410 z m 663 390 l 669 390 z"},"C":{"x_min":0,"x_max":740,"ha":740,"o":"m 723 273 b 716 273 659 278 605 286 b 582 286 554 295 541 295 l 723 308 l 723 314 l 490 301 l 490 295 l 537 286 b 564 281 600 276 631 273 l 484 273 l 484 266 l 583 251 l 477 260 l 477 251 l 477 244 l 471 244 l 471 238 l 471 231 l 464 225 l 471 225 l 471 216 l 464 225 l 455 216 l 449 216 l 449 209 l 442 209 l 442 203 l 442 196 l 442 203 l 429 203 l 429 196 b 429 203 429 203 420 203 l 420 196 l 414 196 l 420 146 l 420 132 l 414 146 l 414 181 l 407 189 l 401 189 l 401 181 l 394 181 l 394 189 l 385 181 l 385 174 l 379 174 l 379 181 l 372 181 l 372 189 l 365 189 l 365 181 l 359 181 l 350 139 l 350 154 l 350 181 l 344 189 l 337 139 l 337 132 l 337 189 l 330 189 l 330 181 l 330 189 l 324 189 l 324 196 l 317 196 l 308 196 l 302 167 l 302 181 l 295 181 l 282 154 l 295 209 l 289 209 l 282 216 l 273 203 l 267 203 l 263 194 b 260 189 257 181 254 174 l 247 161 l 282 225 l 273 231 l 267 216 l 260 225 l 247 209 l 267 238 l 260 244 l 203 196 l 260 244 l 254 251 l 247 251 l 212 231 l 247 266 l 238 273 l 168 209 l 247 286 l 238 295 l 183 251 l 238 301 l 232 308 l 155 260 l 183 279 l 232 308 l 225 308 l 232 314 l 232 321 l 212 314 l 232 321 l 232 330 l 225 336 l 232 336 l 225 343 l 168 330 l 225 350 l 225 356 l 219 356 l 219 365 l 225 365 l 225 371 l 161 371 l 225 378 l 225 385 l 212 385 l 219 391 l 219 400 l 203 400 l 225 400 l 225 407 l 225 413 l 225 420 l 225 426 l 225 433 l 225 442 l 197 442 l 225 442 l 225 448 l 232 455 l 225 461 l 232 468 l 225 468 l 177 477 l 232 477 l 232 483 l 225 483 l 238 483 b 240 483 241 483 242 484 b 245 485 247 487 247 490 b 247 497 238 489 238 496 l 232 496 b 219 503 203 503 183 512 l 203 512 l 238 496 l 238 503 l 247 503 l 247 512 l 148 538 l 142 538 l 247 518 l 254 532 l 232 538 l 254 532 l 254 538 l 232 554 l 254 538 l 260 547 l 254 554 l 260 554 l 267 560 l 260 573 l 267 582 l 273 567 l 282 573 l 273 589 l 282 595 l 282 582 l 289 582 l 295 582 l 295 589 l 295 582 l 302 589 l 295 608 l 302 595 l 308 595 l 324 595 l 317 602 l 324 602 l 324 595 l 330 602 l 337 602 l 344 602 l 350 602 l 344 652 l 359 602 l 365 608 l 372 602 l 372 617 l 372 608 l 379 608 l 385 602 l 385 608 l 385 602 l 401 602 l 401 637 l 407 637 l 401 608 l 407 602 l 414 617 l 414 595 l 420 595 l 429 617 l 420 595 l 429 595 l 436 589 l 442 589 l 449 595 l 442 582 l 449 573 l 455 582 l 449 573 l 455 567 l 464 567 l 464 560 l 471 567 l 464 560 l 471 554 l 477 560 l 484 554 l 477 547 l 477 538 l 506 547 l 484 538 l 484 525 l 484 518 l 506 525 l 490 518 l 490 512 l 490 503 l 499 503 l 499 496 l 490 496 l 490 490 l 723 490 l 723 496 l 561 496 l 569 496 l 716 496 l 716 512 l 653 503 l 716 518 l 716 525 l 716 532 l 646 532 b 664 532 679 533 691 535 l 710 538 l 710 547 l 659 547 b 670 547 680 548 688 550 b 693 551 697 553 701 554 l 710 554 l 701 560 l 631 547 l 701 573 l 701 582 l 701 589 l 653 573 l 694 589 l 694 595 l 677 591 l 640 582 b 647 582 646 589 653 589 b 666 596 674 595 681 602 l 688 602 l 694 608 l 694 617 l 688 617 b 687 614 685 613 683 612 b 678 609 673 608 666 608 l 688 617 l 688 624 l 659 617 l 681 630 l 675 637 l 589 595 l 675 643 l 675 652 l 596 617 l 666 659 l 666 665 l 624 643 l 659 672 l 653 679 l 605 652 l 653 679 l 646 687 l 624 672 l 646 687 l 640 694 l 624 679 l 640 694 l 631 700 l 605 687 l 624 707 l 618 714 l 569 672 l 618 714 l 611 722 l 554 665 l 605 722 l 596 729 l 569 700 l 596 729 l 589 736 l 576 722 l 589 736 l 583 742 l 534 694 l 576 742 l 569 749 l 519 687 l 561 758 l 548 758 l 541 742 l 548 758 l 541 764 l 519 736 l 541 764 l 534 771 l 499 714 l 519 771 l 512 771 l 508 762 b 505 757 502 751 499 742 l 512 771 l 499 777 l 484 742 b 487 753 491 761 494 768 b 497 772 498 775 499 777 l 490 777 l 455 694 l 477 784 l 471 784 l 455 749 l 464 784 l 455 784 l 449 758 l 455 784 l 442 793 l 436 764 l 442 793 l 436 793 l 420 742 l 429 793 l 420 793 l 420 784 l 420 793 l 407 793 l 401 694 l 401 687 l 407 793 l 401 793 l 394 749 l 385 793 l 379 793 l 372 672 l 372 665 l 372 672 l 379 793 l 365 793 l 365 742 l 359 799 l 344 793 l 350 777 l 344 793 l 337 793 l 337 799 l 330 793 l 330 771 l 324 793 l 317 793 l 330 707 l 317 793 l 302 793 l 305 783 b 306 776 308 767 308 758 b 305 767 304 776 303 783 b 302 785 302 788 302 793 l 295 784 l 289 784 l 289 777 l 289 784 l 282 784 b 282 777 282 769 283 762 b 284 749 285 731 289 714 b 282 758 267 799 267 806 l 260 799 l 267 764 l 260 777 l 254 777 l 282 679 l 289 672 l 254 777 l 238 777 b 239 774 241 773 242 770 b 245 765 247 761 247 758 b 242 761 240 764 239 767 b 238 768 238 769 238 771 l 238 777 l 232 777 l 232 771 l 232 758 b 232 765 225 764 225 771 l 219 764 l 225 758 l 219 764 l 203 764 l 212 758 l 212 764 l 197 758 l 205 744 b 210 736 214 726 219 714 b 219 722 212 729 212 736 b 203 743 203 742 203 749 l 197 749 l 197 758 b 190 758 190 758 190 749 l 190 742 b 197 742 197 729 212 714 l 203 714 l 183 749 l 177 749 l 183 758 l 177 764 l 142 714 l 133 707 l 148 700 l 148 694 l 126 714 l 120 707 l 155 665 l 120 707 l 113 700 l 133 672 l 107 700 l 98 694 l 120 672 l 107 687 b 99 695 56 758 8 758 b 6 758 4 758 3 757 b 0 756 -3 753 -7 749 l 1 742 l 8 742 b 28 742 50 729 63 714 b 74 707 82 698 89 691 l 98 679 l 126 659 l 91 679 l 91 672 l 85 672 l 85 665 l 126 630 b 111 641 99 649 91 656 b 86 659 81 662 78 665 l 72 652 l 177 595 b 168 595 168 595 161 602 l 72 652 l 63 643 l 72 643 l 63 643 l 56 637 b 57 636 58 634 61 633 b 66 630 71 627 78 624 b 71 627 66 630 61 633 b 58 634 57 636 56 637 l 50 630 l 43 624 l 113 589 l 43 608 l 36 602 l 56 595 b 43 595 36 602 28 602 l 28 595 l 28 589 l 21 582 l 21 573 l 21 567 l 113 538 l 21 567 l 21 554 l 56 547 l 43 547 b 36 547 28 554 21 554 l 15 554 l 15 547 b 19 546 23 545 28 542 b 36 539 45 535 56 532 l 8 538 l 8 532 l 8 525 l 50 512 l 8 518 l 8 512 l 36 503 l 1 503 l 1 496 l 1 490 l 50 483 l 1 490 l -7 477 l 1 477 l -7 477 l -7 468 l 15 468 l -7 468 l -7 461 l -7 448 l 21 448 l -7 448 l -7 442 l 36 442 l -7 433 l -7 426 l -14 426 l -14 420 l -7 420 l -7 413 l 15 413 l -7 413 l -7 407 l -14 407 l -14 400 l -7 400 l -7 391 l -7 385 l -14 385 l -14 378 l -7 371 l 3 374 b 9 377 17 378 28 378 b 15 371 8 371 1 371 l -7 371 l -14 371 l -14 365 b -14 356 -14 365 -7 356 l 4 360 b 12 363 23 365 36 365 l -7 356 l -7 350 l -7 336 l 50 343 l -7 336 l -7 330 l 50 336 l 1 321 l 1 314 l -7 314 l 1 308 l 98 330 l 1 301 l 1 295 l 43 301 l 21 286 l 1 286 l 1 273 l 8 279 l 21 279 l 85 295 l 8 273 l 15 266 l 56 273 l 8 251 l 15 244 l 142 295 l 148 295 l 15 244 l 21 238 l 63 251 l 21 231 l 21 225 l 28 216 l 133 266 l 155 273 l 36 209 l 36 196 l 63 209 l 36 189 l 43 181 l 107 216 l 142 231 l 56 161 l 63 154 l 155 216 l 98 146 l 78 132 l 85 126 l 78 126 l 85 119 l 133 154 l 91 110 l 98 104 l 155 154 l 107 97 l 113 91 l 203 161 l 133 69 l 142 69 l 142 62 l 148 62 b 155 62 155 62 155 69 l 163 79 b 168 86 175 93 183 104 l 155 56 l 161 56 l 212 110 l 168 49 l 177 40 l 183 56 l 183 49 l 183 40 l 183 34 l 190 34 l 190 40 l 198 54 l 212 84 b 212 75 212 69 203 69 b 203 62 197 56 197 49 l 197 40 l 190 40 b 190 39 190 38 191 37 b 192 35 194 34 197 34 l 203 34 l 232 75 l 212 27 l 219 27 l 232 56 l 219 27 l 232 21 l 238 34 l 238 27 l 232 21 l 247 21 l 260 56 l 247 14 l 260 5 l 260 14 l 267 14 b 267 21 273 40 282 69 l 267 14 l 273 14 l 282 5 l 289 5 l 302 49 l 295 -1 l 308 -1 l 308 5 l 317 5 l 324 49 l 317 5 l 324 5 l 324 -1 l 337 -1 l 344 -1 l 350 -1 l 359 91 l 359 104 l 350 -1 l 365 -8 l 365 34 l 372 -8 l 379 -1 l 379 27 l 379 -1 l 385 -1 l 394 -1 l 394 56 l 394 84 b 394 61 401 40 401 27 l 401 5 l 401 -1 l 401 -8 b 403 -8 405 -7 406 -5 b 407 -4 407 -3 407 -1 l 407 14 l 407 -1 l 420 -1 l 429 -1 l 429 27 l 436 -1 l 442 -1 l 436 49 b 436 47 436 45 437 44 b 438 41 439 37 442 34 l 442 14 l 442 5 l 449 5 l 449 14 l 449 27 l 455 5 l 464 5 l 464 27 l 464 14 l 477 14 l 471 40 b 471 33 477 28 477 21 l 477 14 l 484 14 l 484 5 b 487 5 488 6 489 9 b 490 10 490 11 490 14 b 490 16 490 18 489 19 b 488 22 487 27 484 34 l 490 21 l 499 21 l 490 69 l 506 21 l 512 21 l 512 27 l 519 34 b 519 35 519 37 518 38 l 512 49 l 519 49 b 519 40 519 34 526 27 l 526 21 l 526 14 l 534 14 b 535 14 536 14 537 15 b 540 16 541 18 541 21 b 534 21 534 34 526 49 l 541 34 l 548 34 l 499 132 b 499 133 499 135 498 136 b 497 139 494 142 490 146 l 506 132 l 506 119 l 534 63 b 539 55 543 47 548 40 l 561 40 l 554 62 l 561 40 l 569 49 l 541 97 l 534 126 l 541 110 l 576 62 l 583 62 l 589 56 l 596 62 l 541 132 l 526 154 l 548 139 l 596 84 l 605 91 l 618 75 l 624 84 l 561 139 l 624 91 l 624 97 l 596 126 l 631 97 l 640 104 l 631 104 l 640 104 l 646 110 l 583 154 b 590 154 596 146 605 139 b 614 132 625 127 633 120 b 638 117 642 113 646 110 l 653 110 l 653 119 b 653 126 631 131 611 146 l 605 154 l 653 126 l 659 132 l 611 161 l 666 139 l 675 146 l 605 174 b 618 167 631 168 646 161 b 649 161 652 160 655 157 l 659 154 l 666 154 l 675 154 l 675 146 l 675 154 l 675 161 l 660 166 b 651 169 639 174 624 181 l 681 161 l 688 167 l 666 174 l 688 167 l 688 181 l 653 189 l 694 174 l 694 189 l 624 209 l 701 196 l 701 203 l 701 216 l 554 238 l 541 244 l 716 231 l 716 238 l 541 266 l 605 266 l 681 266 l 710 266 l 716 266 l 723 266 z m 177 314 l 190 321 l 168 308 z m 589 582 l 596 582 l 576 573 l 569 567 z m 554 518 l 618 518 l 605 518 l 526 518 l 541 518 l 548 518 z m 526 538 l 534 538 z m 548 554 b 548 551 549 549 551 548 b 552 547 553 547 554 547 l 541 547 z m 541 595 l 548 602 l 541 595 l 506 573 z m 477 624 l 471 617 z m 490 595 l 499 602 l 471 573 z m 464 652 l 471 652 l 455 630 z m 385 672 l 385 679 l 385 665 l 379 624 z m 317 608 b 317 610 317 612 316 614 b 315 617 313 622 308 630 b 317 623 317 617 317 608 z m 225 608 l 212 630 l 225 617 z m 203 652 l 219 659 l 212 652 z m 295 624 l 289 617 l 289 624 b 282 631 282 643 273 652 l 289 630 z m 273 665 l 273 672 l 273 687 z m 273 602 l 273 595 z m 247 589 l 254 589 l 260 589 l 254 573 z m 260 624 b 253 624 254 623 254 630 z m 254 707 l 254 714 b 252 714 251 714 250 715 b 248 716 247 718 247 722 b 250 718 252 714 253 711 b 254 710 254 708 254 707 z m 247 624 l 247 617 l 238 617 z m 232 595 l 225 602 l 232 608 l 238 602 z m 238 637 l 238 630 l 232 624 l 225 637 z m 225 659 l 232 643 l 219 643 z m 219 665 l 197 659 l 212 679 z m 190 665 l 190 672 l 203 679 z m 203 694 l 197 687 z m 177 742 l 177 736 l 161 729 z m 155 707 l 148 707 l 168 722 l 161 714 z m 164 704 b 167 707 168 711 168 714 b 172 714 176 715 179 718 b 182 719 182 721 183 722 l 190 707 l 183 707 b 176 700 168 700 161 700 z m 168 694 b 177 694 190 700 197 700 l 177 679 z m 183 659 l 183 665 z m 168 547 l 183 547 z m 133 573 l 148 573 l 155 567 z m 36 589 b 51 589 62 582 85 582 b 92 582 98 573 107 573 l 148 560 z m 72 400 l 78 400 z m 78 496 l 120 490 l 133 490 l 85 490 z m 126 391 l 120 391 l 113 391 z m 98 314 l 72 308 l 85 314 z m 120 378 l 107 378 l 85 378 l 113 378 b 113 379 113 380 114 381 b 115 384 117 385 120 385 l 142 385 z m 155 209 l 177 238 l 197 251 z m 113 238 l 72 216 l 85 225 z m 133 238 l 190 266 l 155 244 z m 142 174 l 183 209 l 168 196 z m 177 189 l 203 209 l 161 174 z m 190 161 l 232 203 l 225 189 z m 225 146 l 232 154 z m 225 174 b 232 181 231 189 238 189 l 232 181 l 203 146 z m 254 189 l 247 181 z m 247 62 l 254 84 z m 267 84 l 267 97 z m 267 126 l 260 132 l 273 161 l 273 167 z m 324 161 l 324 167 l 330 174 z m 506 146 b 506 154 499 154 499 161 l 512 139 l 519 126 z m 526 174 l 519 181 z m 548 231 l 561 231 l 583 225 l 554 231 z"},"W":{"x_min":0,"x_max":1016,"ha":1016,"o":"m 343 400 l 321 400 l 314 400 l 314 392 l 314 377 l 328 377 l 314 377 l 314 370 l 357 363 l 307 363 l 307 356 l 307 349 l 350 349 l 307 342 l 307 335 l 343 335 l 307 335 l 307 321 l 314 321 l 300 321 l 300 314 l 343 314 l 300 314 l 300 305 l 262 305 l 300 305 l 300 321 l 293 321 l 293 328 l 262 328 l 293 328 b 300 328 300 328 300 335 l 293 335 l 226 335 l 293 342 l 293 349 l 285 349 l 285 356 l 276 356 l 285 356 l 293 356 l 293 363 b 293 364 293 365 292 366 b 291 369 289 370 285 370 l 285 377 l 248 377 l 285 377 l 293 384 l 285 392 l 285 400 l 276 400 l 269 400 l 276 400 l 276 407 l 212 407 l 276 414 l 276 421 l 219 421 l 276 421 l 276 435 l 190 435 l 269 435 l 269 450 l 167 450 b 194 450 217 451 234 453 l 262 457 l 262 464 l 241 464 l 269 464 l 269 479 l 262 479 l 262 488 l 262 495 l 241 495 l 255 495 l 255 502 l 262 509 l 262 516 l 255 516 l 255 523 l 255 530 l 241 530 l 255 530 l 255 537 l 248 537 l 248 552 l 248 559 l 241 559 l 248 559 l 248 566 l 219 566 l 241 566 l 241 581 l 190 581 l 241 581 l 241 590 l 190 590 l 226 596 b 229 597 234 597 241 597 l 241 604 l 241 611 l 212 611 l 234 611 l 234 625 l 234 632 l 174 632 l 234 632 l 234 647 l 226 647 l 226 654 l 219 654 l 219 661 l 226 661 l 226 669 l 132 669 l 226 676 l 226 683 l 205 683 l 234 683 l 234 698 l 219 698 l 219 705 l 219 712 l 198 712 l 219 712 l 219 719 l 132 719 b 153 722 173 724 188 725 b 197 726 205 726 212 726 l 212 733 l 212 749 l 167 749 l 212 749 l 212 757 l 205 757 l 212 757 l 212 771 l 205 771 l 205 778 l 205 785 l 103 785 l 205 792 l 205 800 l -36 800 l -36 792 l -36 778 l 38 778 l -29 778 l -29 771 l -29 764 l -21 764 l -21 749 l 7 749 l -21 749 l -21 740 l 38 740 l 15 740 b 7 740 0 733 -7 733 l -14 733 l -21 733 l -21 726 l -14 726 l 45 726 l 24 726 l -7 726 l -14 726 b -16 726 -17 726 -18 725 b -20 724 -21 722 -21 719 l -14 712 l 31 712 l -7 712 l -7 705 l -7 690 l 0 690 l -7 690 l -7 683 l 0 683 l -7 683 l -7 676 l -7 669 l 81 661 l 7 661 l 7 654 l 7 639 l 31 647 l 24 639 l 15 639 l 7 639 l 7 632 l 24 632 l 24 625 l 15 625 l 15 618 l 15 611 l 15 604 l 24 604 l 24 597 l 81 597 l 59 597 l 31 597 l 24 597 b 15 597 15 597 15 590 b 15 587 16 586 19 587 l 24 590 l 24 581 l 52 581 l 31 581 l 31 574 l 59 574 l 31 574 l 31 559 l 38 559 l 31 559 l 31 552 l 73 552 l 66 552 l 45 552 l 38 552 l 31 552 l 31 545 l 66 545 l 38 537 l 38 530 l 66 530 b 59 526 52 525 47 524 b 45 523 42 523 38 523 l 38 516 l 117 516 l 45 509 l 45 502 l 45 495 l 52 495 l 45 495 l 45 488 l 59 488 l 52 488 l 52 479 l 59 479 l 52 479 l 52 464 l 103 464 l 66 464 l 59 464 l 59 457 l 66 457 l 132 457 b 117 457 103 457 95 450 l 73 450 l 66 450 b 64 450 63 450 62 449 b 60 448 59 446 59 443 l 66 443 l 146 443 b 131 435 110 435 95 435 l 73 435 l 66 435 b 64 435 63 435 62 434 b 60 433 59 431 59 428 l 66 428 b 77 428 86 428 97 427 b 116 426 137 424 160 421 l 66 414 l 73 407 l 146 407 l 81 400 l 81 392 l 73 392 l 73 384 l 81 384 l 81 377 l 81 370 l 103 370 l 103 363 l 95 363 l 88 363 b 86 363 85 363 84 362 b 82 361 81 359 81 356 l 88 356 l 107 352 b 119 350 134 349 153 349 l 88 349 l 88 342 l 132 342 l 95 335 l 95 328 l 95 321 l 167 321 l 95 314 l 95 305 l 117 305 l 103 305 l 110 297 l 146 297 l 103 290 l 103 282 l 110 282 l 110 275 l 110 268 l 110 261 l 153 261 l 117 254 l 117 247 l 139 247 l 124 247 l 117 247 b 115 247 114 247 113 246 b 111 245 110 243 110 240 b 113 240 115 239 116 236 b 117 235 117 234 117 233 l 139 233 l 124 233 l 124 226 l 124 219 l 132 219 l 132 210 l 132 195 l 124 195 l 124 188 l 153 188 l 139 188 l 139 173 l 153 173 l 146 173 l 139 173 l 132 173 l 132 166 l 139 166 l 139 159 l 153 159 l 139 159 l 139 145 l 146 145 l 146 138 l 205 138 l 174 138 b 167 138 160 138 153 131 l 146 131 l 139 131 b 139 129 139 128 140 127 b 141 125 143 124 146 124 l 226 124 l 183 124 b 174 115 167 115 160 115 l 153 115 b 151 115 150 115 149 114 b 147 113 146 111 146 108 l 153 108 l 248 108 l 160 101 l 160 87 l 262 87 l 167 87 l 160 80 l 226 73 l 190 73 l 174 73 l 167 73 l 160 73 l 160 66 l 167 66 l 187 62 b 199 60 215 59 234 59 l 167 59 l 167 44 l 174 44 l 167 44 l 167 36 l 205 36 l 198 36 l 183 36 l 174 36 l 167 36 l 167 27 b 167 20 167 27 174 20 l 219 20 l 174 20 l 174 13 l 415 6 l 415 20 l 379 20 l 415 20 l 415 27 l 394 27 l 408 27 l 415 27 l 415 36 l 422 36 b 422 38 422 39 421 40 b 420 43 418 44 415 44 l 357 44 l 415 44 l 415 59 l 422 59 l 422 66 l 343 73 l 422 73 l 422 80 l 343 87 l 429 94 l 429 101 l 387 101 l 401 101 l 422 101 l 429 101 l 429 108 l 429 115 l 415 115 l 429 115 l 429 124 l 379 131 l 429 131 l 429 138 l 415 138 l 436 138 l 436 152 l 415 152 l 436 152 l 436 159 l 387 166 l 436 166 l 436 173 l 394 173 l 436 180 l 436 188 l 364 188 l 443 195 l 443 203 l 401 203 l 443 210 l 443 219 l 429 219 l 429 226 l 450 226 l 450 233 l 394 240 l 450 240 l 450 247 l 401 254 l 459 254 l 459 261 l 422 261 l 459 268 l 459 275 l 429 275 l 459 275 l 459 290 l 394 290 l 459 290 l 459 305 l 429 305 l 459 305 l 459 314 l 415 321 l 436 321 l 459 321 l 467 321 l 467 328 l 467 335 l 436 342 l 467 342 l 467 349 l 450 349 l 474 349 l 474 356 l 474 363 l 429 370 l 474 370 l 474 377 l 429 384 l 474 384 l 474 392 l 481 392 l 481 400 l 467 400 l 481 400 l 481 414 l 321 414 l 321 400 z m 314 392 l 321 392 z m 314 188 l 350 180 l 314 180 z m 321 159 l 314 159 z m 307 219 l 314 219 z m 307 233 l 300 233 l 350 233 z m 307 261 l 300 261 z m 300 268 l 307 268 l 336 268 z m 321 247 l 300 247 z m 350 282 l 300 282 z m 300 297 l 343 297 z m 293 247 l 293 240 b 285 240 285 240 276 247 z m 293 254 l 276 254 z m 293 261 l 276 268 l 293 268 z m 285 297 l 262 290 z m 285 219 l 285 210 l 262 219 z m 262 101 l 269 101 z m 336 59 l 336 66 z m 262 115 l 234 115 l 241 115 b 269 124 299 124 314 124 l 357 124 z m 793 792 l 895 785 l 793 785 l 793 778 l 793 771 l 786 771 l 786 757 l 793 757 l 786 757 l 786 749 l 821 749 l 786 749 l 786 733 l 786 726 b 790 726 795 726 800 725 b 811 724 823 722 838 719 l 779 719 l 779 712 l 793 712 l 779 712 l 779 705 l 807 698 l 786 698 l 786 683 l 814 683 l 800 683 l 800 676 l 874 669 l 772 669 l 772 661 l 779 661 l 779 654 l 765 654 l 765 647 l 772 647 l 765 647 l 765 632 l 821 632 l 765 632 l 765 625 l 758 625 l 758 611 l 786 611 l 758 611 l 758 604 l 758 597 b 762 597 767 597 772 596 b 783 595 794 593 807 590 l 758 590 l 758 581 l 807 581 l 751 581 l 751 566 l 793 566 l 758 566 l 758 559 l 758 552 l 751 552 l 751 537 l 751 530 l 744 530 l 744 523 l 744 516 l 736 516 l 736 509 l 744 509 l 736 509 l 736 495 l 758 495 l 736 495 l 736 488 l 736 479 l 663 479 l 640 479 l 663 479 l 663 488 l 626 488 l 670 495 l 670 502 l 569 502 l 663 509 l 663 523 l 583 516 l 656 530 l 656 537 l 598 537 l 619 537 l 640 537 l 649 537 l 656 537 l 656 545 l 656 552 l 649 552 b 638 552 629 552 618 553 b 599 554 577 555 554 559 l 538 559 l 640 559 l 649 574 l 531 581 l 626 590 l 626 597 l 605 597 l 640 597 l 640 611 l 524 611 l 633 618 l 633 632 l 576 632 l 633 632 l 633 647 l 531 647 l 640 654 l 640 661 l 633 669 l 633 676 l 605 676 l 626 676 l 626 683 l 561 690 l 619 690 l 619 705 l 561 705 l 619 705 l 619 719 l 612 719 l 619 719 l 619 726 l 583 726 l 619 726 l 619 740 l 591 740 l 612 740 l 612 749 l 612 764 l 576 764 l 612 764 l 612 771 l 605 771 l 605 785 l 605 792 l 605 800 l 467 800 l 467 792 l 394 800 l 394 792 l 394 785 l 387 785 l 387 771 l 387 764 l 422 764 l 379 764 l 379 749 l 422 749 l 387 749 l 387 740 l 408 740 l 387 733 l 387 726 l 379 726 l 379 719 l 379 712 l 436 705 l 379 705 l 379 690 l 408 690 l 371 690 l 371 683 l 429 676 l 364 676 l 364 661 l 371 661 l 357 661 l 357 654 l 408 647 l 364 647 l 364 639 l 429 632 l 364 632 l 364 625 l 443 618 l 357 611 l 357 604 l 415 597 l 357 597 l 357 590 l 429 581 l 350 574 l 350 566 l 429 559 l 343 559 l 343 552 b 351 544 393 545 436 537 l 343 537 l 343 530 l 408 523 l 336 523 l 336 509 l 415 509 l 328 502 l 328 495 l 371 488 l 336 488 l 336 479 l 357 479 l 336 479 l 328 479 l 328 471 b 336 471 343 464 350 464 l 328 464 l 328 457 l 379 450 l 328 450 l 321 450 l 321 443 l 328 443 l 350 443 l 321 443 l 321 428 l 489 435 l 489 443 l 443 443 l 489 443 l 489 457 l 450 457 l 489 457 l 489 464 b 484 464 481 464 478 465 b 471 466 462 467 450 471 l 489 471 l 489 479 l 496 479 l 496 488 l 503 488 l 503 479 l 510 479 l 503 479 l 503 471 l 545 471 b 534 467 527 466 520 465 b 518 464 515 464 510 464 l 510 457 l 545 457 l 510 457 l 510 443 l 554 443 l 510 443 l 510 435 l 545 435 l 510 428 l 510 421 l 517 421 l 517 414 l 517 400 l 531 400 l 517 400 l 517 392 l 524 392 l 524 384 l 561 384 l 524 377 l 524 370 l 569 370 l 524 363 l 524 356 l 524 349 l 545 349 l 531 349 l 531 342 l 561 342 l 531 335 l 531 328 l 524 328 l 531 321 l 583 321 l 531 314 l 531 305 l 569 305 l 538 305 l 538 290 l 605 290 l 538 290 l 538 275 l 569 275 l 538 275 l 538 268 l 576 261 l 538 261 l 538 254 l 598 254 l 545 247 l 545 240 l 605 240 l 545 233 l 545 226 l 569 226 l 569 219 l 554 219 l 554 210 l 598 203 l 554 203 l 554 195 l 633 188 l 554 188 l 554 180 l 605 173 l 561 173 l 561 166 l 612 166 l 561 159 l 561 152 l 583 152 l 561 152 l 561 138 l 583 138 l 569 138 l 569 131 l 619 131 l 569 124 l 569 115 l 583 115 l 569 115 l 561 108 b 569 101 569 108 569 101 l 612 101 l 569 101 l 569 94 l 656 87 l 576 80 l 576 73 l 656 73 l 576 66 l 576 59 l 583 59 l 583 44 l 640 44 l 583 44 l 576 44 l 576 36 l 583 36 l 583 27 l 605 27 l 583 27 l 583 20 l 619 20 l 583 20 l 583 6 l 830 -15 l 830 -8 l 719 13 l 779 20 l 821 20 b 821 27 830 20 830 27 b 830 30 828 33 825 35 b 824 36 823 36 821 36 l 793 36 l 821 36 l 830 36 l 830 44 l 821 44 l 830 44 l 830 59 l 758 59 b 777 59 793 60 807 62 l 830 66 l 838 66 b 838 69 837 71 834 72 b 833 73 832 73 830 73 l 830 80 l 719 87 l 736 87 l 736 94 l 838 101 l 838 108 l 814 108 l 838 108 l 846 108 l 846 115 b 838 115 814 124 786 124 l 853 124 l 853 131 l 833 134 b 822 137 809 138 793 138 l 853 138 l 853 145 l 853 159 l 846 159 l 860 159 l 860 166 l 867 166 l 867 173 l 860 173 l 846 173 l 860 173 l 860 188 l 846 188 l 867 188 l 874 188 l 874 195 l 867 195 l 867 210 l 867 219 l 874 219 l 874 226 l 867 226 l 874 226 l 874 233 l 860 233 l 881 233 l 881 240 l 888 240 b 888 243 887 245 884 246 b 883 247 882 247 881 247 l 860 247 l 881 247 l 881 254 l 846 261 l 888 261 l 888 268 l 888 275 l 888 282 l 895 290 l 853 297 l 888 297 l 888 305 l 881 305 l 902 305 l 902 314 l 821 321 l 902 321 l 902 328 l 902 335 l 867 342 l 909 342 l 909 349 l 838 349 l 881 349 b 888 356 895 356 902 356 l 909 356 l 918 356 b 918 358 916 360 913 362 b 912 363 911 363 909 363 l 895 363 l 895 370 l 918 370 l 918 377 l 909 377 l 909 384 l 918 384 l 925 392 l 918 392 l 918 400 l 846 407 l 925 407 l 925 414 l 830 421 b 855 424 881 426 900 427 b 911 428 921 428 932 428 l 932 435 b 924 435 916 435 908 436 b 893 437 874 439 853 443 l 932 443 l 932 450 b 927 450 920 450 913 451 b 901 452 884 453 867 457 l 902 457 l 925 457 l 932 457 l 939 450 l 939 457 l 939 464 l 932 464 l 881 464 l 946 464 l 946 479 l 939 479 l 946 479 l 946 488 l 939 488 l 946 488 l 953 495 l 946 495 l 946 502 l 953 502 l 953 509 l 881 516 l 953 516 l 953 523 b 951 523 949 523 948 524 b 944 525 939 526 932 530 l 960 530 l 960 537 l 932 545 l 960 545 l 967 545 l 967 552 l 960 552 l 932 552 l 967 552 l 967 559 l 960 559 l 967 559 l 967 574 l 939 574 l 967 574 l 967 581 l 946 581 l 974 581 l 974 590 l 982 590 b 982 593 981 595 978 596 b 977 597 976 597 974 597 l 918 597 l 974 597 l 974 604 b 982 604 982 604 982 611 l 982 618 l 982 625 l 974 625 l 974 632 l 982 632 l 989 632 l 989 639 b 988 639 986 639 984 640 b 979 641 974 644 967 647 l 989 639 l 989 654 l 989 661 l 918 661 l 997 669 l 997 676 l 1004 683 l 997 683 l 1004 683 l 1004 690 l 997 690 l 1004 690 l 1004 705 l 1004 712 l 1013 712 l 1020 719 l 1013 726 l 902 726 b 874 733 853 733 830 740 l 1004 749 l 1020 749 l 1020 764 l 1027 764 l 1027 771 l 1027 778 l 960 778 l 1027 778 l 1027 792 l 1034 792 l 1034 800 l 793 800 z m 545 574 l 510 566 l 510 574 z m 510 618 l 524 618 z m 554 639 l 517 632 l 517 639 l 489 639 z m 510 683 l 503 683 l 489 683 z m 496 698 l 503 698 z m 517 654 l 517 661 l 545 661 z m 496 726 l 510 726 l 503 726 l 489 726 z m 496 712 l 538 712 l 503 712 l 459 712 z m 489 654 l 474 654 l 459 654 z m 459 669 l 450 669 z m 443 625 l 450 625 z m 422 604 l 436 604 l 545 604 l 510 597 z m 429 590 l 467 590 l 459 590 l 459 581 z m 459 566 l 450 566 z m 415 552 l 503 552 b 531 552 560 552 583 545 l 503 545 b 496 545 488 545 479 546 b 464 547 445 548 422 552 z m 415 495 l 474 495 z m 429 516 l 489 516 l 489 509 z m 496 502 l 496 509 l 554 509 z m 496 516 l 496 523 l 415 530 l 474 530 l 598 530 z m 640 124 l 663 124 z m 698 297 l 656 297 z m 698 282 l 649 282 z m 691 261 l 698 261 z m 698 247 l 677 247 z m 663 268 l 691 268 z m 691 233 l 649 233 z m 691 219 l 684 219 z m 684 188 l 684 180 l 649 180 z m 684 159 l 677 159 z m 663 66 l 663 59 z m 751 -1 l 640 13 l 691 13 z m 728 101 l 717 104 b 711 107 702 108 691 108 l 736 108 l 772 101 z m 758 131 l 705 131 z m 719 195 l 728 195 z m 712 210 l 712 219 l 736 219 z m 719 268 l 705 261 l 705 268 z m 712 297 l 728 290 z m 719 254 l 705 254 z m 719 247 b 716 244 712 242 709 241 b 708 240 706 240 705 240 l 705 247 z m 807 435 l 719 435 l 719 421 l 779 421 l 719 421 l 719 414 l 786 407 l 719 407 l 719 400 l 712 400 l 712 392 l 712 384 l 705 384 b 705 382 705 381 706 380 b 707 378 709 377 712 377 l 751 377 l 712 377 l 712 370 l 705 370 l 705 363 l 705 356 l 712 356 l 705 356 l 705 349 l 705 342 l 772 335 l 705 335 l 698 335 l 698 328 l 705 328 l 728 328 l 698 328 l 698 321 l 698 305 l 736 305 l 698 305 l 698 314 l 656 314 l 698 314 l 698 321 l 684 321 l 691 321 l 691 335 l 656 335 l 691 335 l 691 342 l 649 349 l 691 349 l 691 356 l 684 356 l 684 363 l 640 363 l 684 370 l 684 377 l 670 377 l 684 377 l 684 392 l 684 400 l 677 400 l 656 400 l 677 400 l 677 414 l 677 421 l 670 421 l 677 421 l 677 428 l 649 428 l 677 428 l 677 443 l 649 443 l 663 443 l 670 443 l 677 443 l 677 450 l 670 450 l 619 450 l 670 457 l 670 464 l 649 464 l 656 464 l 663 471 b 670 464 697 464 736 464 l 736 457 l 763 453 b 779 451 798 450 821 450 l 728 450 l 728 435 z m 939 443 l 932 443 z m 932 450 l 939 450 z m 939 443 l 939 450 z"},"A":{"x_min":0,"x_max":729,"ha":729,"o":"m 765 9 l 662 9 l 758 16 l 758 23 l 618 23 l 750 38 l 750 45 l 750 52 l 743 52 l 743 59 l 736 59 l 743 59 l 743 74 l 669 74 l 736 74 l 736 90 l 729 90 l 736 90 l 736 97 l 662 97 l 729 97 l 729 110 l 655 110 l 720 110 l 720 126 l 691 119 l 720 126 l 720 133 l 714 133 l 714 141 b 710 141 707 141 705 142 b 698 143 692 144 684 148 l 714 148 l 714 155 l 597 155 l 707 162 l 707 170 l 618 177 l 700 177 l 700 184 l 611 191 l 707 191 l 707 206 l 691 206 l 691 213 l 655 213 l 684 213 l 684 222 l 640 222 l 684 222 l 684 235 l 553 228 l 678 242 l 678 258 l 659 254 b 647 252 631 251 611 251 l 662 260 l 684 264 l 684 271 l 669 271 l 669 280 l 662 280 l 662 287 l 611 287 l 662 287 l 662 302 l 655 302 l 662 302 l 662 309 l 568 309 l 655 316 l 655 323 l 640 323 l 640 331 l 618 331 l 633 331 l 640 338 l 649 338 l 649 345 l 640 345 l 611 345 l 640 345 l 640 352 l 633 352 l 633 367 l 626 367 l 633 367 l 633 374 l 626 374 l 626 383 l 633 383 l 633 396 l 559 396 l 626 396 l 626 403 l 568 403 l 618 412 l 618 419 l 582 419 l 611 419 l 611 434 b 606 434 603 434 601 433 b 596 432 588 430 575 425 b 586 429 593 432 598 433 b 600 434 602 434 604 434 l 604 441 l 559 441 l 604 441 l 604 455 l 589 455 l 597 455 l 597 463 l 604 463 l 604 470 l 597 470 l 546 470 l 559 470 b 568 477 575 477 582 477 l 589 477 l 597 477 l 597 484 l 589 484 l 582 484 l 589 484 l 589 492 l 589 506 l 559 499 b 563 502 567 504 570 505 b 571 506 573 506 575 506 l 582 506 l 589 506 l 589 515 l 582 515 l 559 515 l 582 515 l 582 528 l 568 521 l 582 528 l 575 535 l 559 535 l 559 544 l 537 544 l 568 544 l 568 557 l 517 557 l 559 557 l 559 564 l 530 564 l 559 564 l 559 580 l 553 580 l 553 586 l 546 586 l 553 586 l 553 595 l 553 602 l 488 609 l 537 609 l 537 616 l 465 616 b 486 620 507 622 522 623 b 531 624 539 624 546 624 l 546 631 l 530 631 l 530 645 l 530 653 l 508 653 l 508 660 l 523 660 l 523 676 l 479 676 l 523 676 l 523 682 l 479 682 l 517 689 l 517 696 l 450 696 l 508 696 l 508 711 l 508 718 l 508 727 l 494 727 l 508 727 l 508 734 l 494 734 l 494 741 l 428 741 l 494 747 l 494 756 l 479 756 l 479 763 l 488 763 l 488 770 l 407 777 l 421 777 l 479 777 l 479 792 l 362 785 l 244 792 l 244 785 l 244 777 l 237 777 l 237 770 l 237 763 l 244 763 l 260 763 l 231 763 l 231 756 l 237 756 l 237 747 l 231 747 l 231 741 l 253 734 l 224 734 l 224 727 l 260 727 l 224 727 l 224 718 l 224 711 l 231 711 l 224 711 l 224 705 l 244 705 l 215 705 l 215 696 l 215 682 l 282 682 b 243 682 208 676 201 676 l 195 676 l 201 667 l 201 660 l 201 653 l 224 653 l 201 653 l 201 645 l 186 645 l 186 638 l 179 638 b 179 635 180 633 182 632 b 183 631 184 631 186 631 l 237 631 l 186 631 l 186 616 l 150 616 l 150 609 l 244 602 l 172 602 l 172 595 l 201 595 l 172 595 l 172 580 l 208 580 l 172 580 l 172 573 l 195 564 l 164 564 l 164 557 l 186 557 l 164 557 l 164 550 l 201 544 l 172 544 l 157 544 l 150 544 l 157 535 l 164 535 l 195 535 l 150 535 l 150 528 l 208 521 l 150 521 l 150 515 l 143 515 l 143 506 l 143 499 l 150 499 l 135 499 l 135 492 l 143 492 b 150 492 179 492 215 484 l 135 484 l 135 477 l 128 477 l 128 470 l 172 463 l 135 470 l 135 463 l 128 463 l 128 448 l 121 448 l 121 441 l 121 434 l 114 434 l 114 425 l 106 425 l 106 419 l 114 419 l 106 419 l 106 412 b 104 412 103 412 102 411 b 100 410 99 407 99 403 l 106 403 l 114 403 l 99 403 l 99 396 l 99 389 l 179 389 l 135 389 b 120 389 114 390 106 383 l 92 383 l 92 374 l 92 367 l 99 367 l 92 367 l 92 360 l 224 352 l 83 352 l 83 338 l 128 338 l 83 338 l 83 331 l 76 331 b 69 331 70 331 70 323 l 76 323 b 81 323 84 323 86 322 b 92 321 99 319 106 316 l 70 323 l 70 309 l 76 309 l 70 309 l 70 302 l 63 302 l 63 294 l 76 294 l 47 294 l 47 287 l 54 287 l 54 280 l 54 271 l 63 271 l 54 271 l 54 258 l 47 258 l 47 251 l 47 242 l 40 242 l 40 235 l 32 235 l 32 228 l 32 222 l 40 222 l 32 222 l 32 213 l 40 213 l 40 206 l 32 206 l 25 206 l 25 199 l 32 199 b 34 199 36 199 38 198 b 43 197 47 194 54 191 l 25 191 l 25 184 l 18 184 l 18 170 l 54 170 l 18 170 l 18 162 l 32 162 l 32 155 l 18 155 l 11 155 b 11 152 12 150 14 149 b 15 148 16 148 18 148 l 11 148 l 3 148 l 3 141 l 11 141 l 11 133 l 54 126 l 3 126 l 3 119 l -4 119 l -4 110 l 3 110 l -4 110 l -4 103 l 3 103 l 3 90 l -11 90 l -11 81 l -18 81 l -26 81 b -26 78 -25 76 -22 75 b -21 74 -20 74 -18 74 b -20 74 -21 74 -22 73 b -25 72 -26 70 -26 67 l -18 67 b -13 67 -8 67 -5 66 b 3 65 14 63 25 59 l -18 59 l -18 52 l -33 52 l -33 45 l -18 45 l -18 38 l -26 38 l -26 30 l 3 30 l -33 30 l -40 30 l -40 23 l -40 16 l -33 16 l -4 16 l -40 16 l -40 9 l -33 9 l -40 9 l -40 1 l 201 1 l 201 9 l 208 9 l 208 16 l 201 16 l 201 23 l 208 23 l 208 30 l 215 30 l 215 45 l 143 45 l 215 45 l 215 52 l 186 59 l 215 59 l 215 67 l 224 67 l 224 74 l 224 81 l 195 81 l 201 81 l 201 90 l 237 90 l 237 97 l 231 97 l 231 110 l 208 110 l 224 110 l 231 110 l 237 110 l 237 119 l 244 119 l 253 119 l 260 119 l 260 141 l 260 119 l 275 119 l 275 133 l 275 126 l 275 119 l 275 110 b 282 110 282 110 282 119 l 289 119 l 289 133 l 289 110 l 304 110 l 311 110 l 311 119 l 318 119 l 325 119 l 325 133 l 325 119 l 340 119 l 340 141 l 340 119 l 347 119 l 347 148 l 356 110 l 362 110 l 362 119 l 369 119 l 369 141 l 369 126 l 369 119 b 369 110 369 110 376 110 l 376 119 l 380 138 b 383 151 385 167 385 184 l 385 141 l 385 126 l 385 119 l 385 110 l 392 110 l 398 110 l 398 119 l 398 141 l 398 119 l 407 119 l 407 155 l 407 126 l 421 126 l 421 155 l 421 119 l 428 119 l 436 162 l 436 119 l 443 119 l 457 119 l 465 119 l 465 162 l 465 148 l 465 133 l 465 126 l 472 119 l 479 119 l 488 119 l 488 126 l 604 126 l 488 119 l 488 110 l 546 110 l 488 103 l 488 97 l 546 97 l 494 97 l 494 81 l 546 81 l 494 81 l 494 74 l 553 74 l 501 67 l 501 59 l 508 59 l 501 59 l 501 52 l 559 52 l 501 45 l 501 38 l 517 38 l 508 38 l 508 30 l 553 30 l 517 30 l 517 16 l 523 16 l 517 16 l 517 9 l 508 9 l 508 1 b 508 -42 537 -71 568 -94 b 589 -117 618 -138 618 -174 l 626 -174 b 626 -138 598 -110 575 -87 b 546 -64 523 -35 523 1 l 765 1 z m 568 264 l 494 258 l 494 264 z m 457 280 l 472 280 l 472 271 l 472 280 l 457 280 l 457 271 z m 472 251 l 472 264 z m 457 251 l 457 242 z m 488 228 l 488 235 z m 494 235 l 537 235 l 494 228 z m 494 242 l 501 242 z m 488 258 l 488 264 z m 488 271 l 488 280 z m 457 264 l 457 251 z m 494 222 l 501 222 z m 488 155 l 508 148 l 488 148 z m 488 177 l 537 177 z m 537 280 l 501 271 l 501 280 z m 311 573 l 340 573 l 356 573 l 407 573 b 396 568 384 566 376 565 b 371 564 366 564 362 564 z m 356 580 l 340 580 z m 369 602 l 385 602 l 369 595 z m 347 616 l 296 616 z m 347 660 l 340 660 z m 340 631 l 369 631 l 347 631 l 289 631 z m 362 624 l 376 624 z m 376 645 l 407 645 z m 356 602 l 289 609 z m 362 609 l 407 609 z m 362 557 l 362 550 l 369 550 l 362 550 l 362 544 l 325 544 l 356 544 l 356 550 l 282 557 z m 224 141 l 224 133 z m 157 119 l 224 126 l 224 119 z m 282 251 l 275 251 l 275 258 l 275 264 l 282 264 l 282 271 l 282 280 l 282 235 z m 428 280 l 414 280 l 407 280 l 407 228 l 398 280 l 392 280 l 392 235 l 392 280 l 376 280 l 369 280 l 369 287 l 362 287 l 356 235 l 356 280 l 347 280 l 347 222 l 340 280 l 333 280 l 333 287 l 325 287 l 325 280 l 311 280 l 311 271 l 311 280 l 304 280 l 304 271 l 296 271 l 296 287 l 289 287 l 231 294 l 296 287 l 296 302 l 296 309 l 289 309 l 296 309 l 296 316 b 291 316 284 316 277 317 b 265 318 250 319 231 323 l 296 323 l 296 331 l 244 331 l 289 331 l 296 331 l 304 331 l 304 338 l 421 338 l 421 345 l 267 352 l 311 352 l 311 367 l 244 367 l 318 367 l 318 374 l 318 389 l 237 389 l 325 389 l 325 403 l 318 403 l 325 403 l 325 419 l 296 419 l 333 419 l 333 425 l 333 434 l 340 434 l 340 441 l 340 448 l 340 455 l 333 455 l 333 463 l 318 463 l 347 463 l 347 470 l 296 477 l 347 477 l 347 484 l 333 484 l 356 484 l 356 492 b 347 492 340 492 333 499 l 289 499 l 362 499 l 362 506 l 333 506 l 356 506 l 356 521 l 296 521 l 356 521 l 356 528 l 369 528 l 369 535 l 407 535 l 385 535 l 385 528 l 362 528 l 362 521 l 376 521 l 362 521 l 362 506 l 407 506 l 376 506 l 376 499 l 369 499 l 369 484 l 376 484 l 385 484 l 376 484 l 376 477 l 385 477 l 385 470 l 385 463 l 421 463 l 392 463 l 392 448 l 421 448 l 392 448 l 392 441 l 457 441 l 398 434 l 398 425 l 407 425 l 398 425 b 397 425 396 425 395 424 b 393 423 392 421 392 419 l 398 419 l 398 412 l 392 412 l 392 396 l 472 396 l 414 396 l 414 383 l 457 383 l 407 383 l 407 374 l 443 374 l 414 374 l 414 360 l 414 352 l 450 352 l 421 352 l 421 345 l 428 345 l 421 345 l 421 331 l 428 331 l 428 323 l 428 316 l 494 316 l 428 309 l 428 302 l 457 302 l 428 302 l 428 294 l 501 294 l 436 287 l 436 280 l 436 242 l 436 280 z m 443 280 l 450 280 l 450 242 z m 488 141 l 530 141 z m 488 162 l 488 170 l 553 162 z"},"f":{"x_min":0,"x_max":635,"ha":635,"o":"m 607 782 l 599 782 l 599 774 l 599 782 l 595 782 l 587 716 l 587 782 l 578 782 l 570 782 l 558 782 l 558 716 l 558 782 l 541 782 l 541 723 l 541 782 l 536 782 l 519 782 l 512 782 l 512 723 l 512 782 l 499 782 l 499 716 l 499 774 l 490 774 l 482 782 l 478 782 l 478 774 l 470 774 l 470 782 l 461 782 l 461 774 l 453 774 l 449 774 l 449 791 l 441 791 l 441 782 l 432 782 l 432 745 l 424 745 l 424 711 l 412 636 l 424 782 l 420 782 l 412 723 l 404 782 l 395 782 l 395 657 l 395 774 l 383 774 l 383 762 l 383 791 l 375 791 l 375 762 l 375 782 l 361 782 l 361 791 l 354 791 l 354 723 l 354 782 l 337 782 l 337 740 l 337 782 l 332 782 l 332 745 l 324 791 l 317 791 l 317 745 l 317 791 l 300 791 l 300 740 l 300 782 l 295 782 l 295 762 l 288 782 l 278 782 l 271 782 l 271 762 l 271 791 l 266 791 l 266 745 l 258 791 l 249 791 l 249 782 l 249 791 l 242 791 l 242 774 l 237 774 l 237 782 l 220 782 l 191 782 l 8 791 l 8 782 l 142 774 l 17 769 l 17 762 l 96 753 l 25 753 l 25 745 l 96 740 l 8 740 l 8 733 l 17 733 l 17 716 l 67 716 l 8 716 l 8 711 l 37 711 l 8 703 l 8 694 l 67 694 l 8 694 l 8 682 l 4 682 l 4 674 l 37 674 l 4 674 l 4 665 l 67 665 l 4 657 l 4 653 l 4 645 l 67 636 l 4 636 l 4 628 l 103 628 b 78 625 54 624 35 624 b 24 623 13 623 4 624 l 4 616 l 83 616 l 4 607 l 4 599 l 62 599 l 4 595 l 4 587 l 62 587 l 4 587 l 4 570 l 4 565 l 33 565 l 4 565 l 4 558 l 62 548 l 4 548 l 4 541 l 33 541 l 4 541 l 4 529 l 25 529 l 4 529 l 4 519 l 25 519 l 4 519 l 4 507 l 103 499 l 4 499 l 4 490 l 125 482 l 4 482 l 4 470 l 67 470 l 4 470 l 4 461 l 149 446 l 4 446 l 4 432 l 67 432 l 4 432 l 4 424 l 133 412 l 4 412 l 4 404 l 133 404 l 4 387 l 4 383 l 125 375 l 120 375 l 37 375 l 8 375 l 4 375 b 2 375 1 375 0 374 b -3 373 -4 371 -4 366 l 4 358 l 96 358 l 8 358 l 8 346 l 8 337 l 91 337 l 4 337 l 4 324 l 37 324 l 4 324 l 4 317 l 103 308 l 4 308 l 4 300 l 113 295 l 37 295 b 25 295 17 288 8 288 l 4 288 l -4 288 b -4 277 -4 278 4 278 b 16 278 28 278 41 277 b 66 276 94 274 125 271 l 4 271 l 4 258 l 83 258 l -4 258 l -4 242 l 4 242 l 4 237 l 33 237 l 8 237 l 8 229 l 67 220 l 4 220 l 4 212 l 62 208 l -4 208 l -4 200 l 103 191 l 4 191 l 4 183 l 103 179 l 37 179 l 33 179 l 4 179 l 4 171 l 33 162 l 33 154 l 4 154 l 4 146 l 25 146 l 25 142 l 4 142 l 4 133 l 25 133 l 25 103 l 8 103 l 8 88 l 8 83 l 17 83 l 8 83 l 8 74 l 17 74 l 17 67 l 8 67 l 8 54 l 17 54 l 8 54 l 8 37 l 8 30 l 17 30 l 8 30 l 8 25 l 17 25 l 17 17 l 8 17 l 8 8 l 8 -4 l 37 -4 l 242 1 l 242 8 l 183 17 l 242 17 l 242 25 l 212 25 l 242 25 l 242 37 l 212 37 l 242 37 l 242 47 l 208 47 l 237 47 l 237 59 l 154 59 b 201 59 242 67 249 67 l 249 74 l 242 74 l 179 74 l 242 83 l 242 88 l 208 88 l 237 88 l 237 96 l 33 103 l 33 125 l 242 125 l 242 133 l 142 133 l 242 142 l 242 146 l 125 154 l 242 154 l 242 171 l 208 171 l 242 171 l 242 179 l 142 183 l 242 183 l 242 191 l 154 200 l 242 200 l 242 208 l 154 212 l 242 212 l 242 220 l 179 229 l 229 229 b 237 229 237 229 237 237 l 229 237 b 222 237 216 237 209 238 b 196 239 177 239 154 242 l 242 242 l 242 249 l 179 249 l 242 258 l 242 266 l 179 266 l 242 266 l 242 278 b 230 278 218 278 205 279 b 180 280 154 283 125 288 l 242 288 l 242 295 l 154 300 l 237 300 l 242 300 l 242 317 b 243 317 244 317 245 318 b 248 319 249 321 249 324 l 249 308 l 258 308 l 258 329 l 258 300 l 266 300 l 271 337 l 271 295 l 278 295 l 278 308 l 288 308 l 288 329 l 288 300 l 295 300 l 300 375 l 300 300 l 308 300 l 317 300 l 324 300 l 332 300 l 332 308 l 332 300 l 337 300 l 346 300 l 346 346 l 354 300 l 361 300 l 361 308 l 361 300 l 366 300 l 366 329 l 366 300 l 375 300 l 383 300 l 383 308 l 390 308 l 390 300 l 395 300 l 395 324 l 395 300 l 412 300 l 412 324 l 412 300 l 420 300 l 420 346 l 420 300 l 432 300 l 432 324 l 432 300 l 441 300 l 449 300 l 453 346 l 453 300 l 461 300 l 461 416 l 470 366 l 478 300 l 482 300 l 490 300 l 499 300 l 499 412 l 507 366 l 507 337 l 512 300 l 519 300 l 529 300 l 541 441 l 541 432 l 536 300 l 541 300 l 548 358 l 548 300 l 565 300 l 565 308 l 565 300 l 570 300 l 570 358 l 587 482 l 570 482 l 570 461 l 570 482 l 565 482 l 565 490 l 548 490 l 548 482 l 541 482 l 536 482 l 536 446 l 536 482 l 519 482 l 519 461 l 519 482 l 512 482 l 512 475 l 512 490 l 499 490 l 499 482 l 490 482 l 482 482 l 482 461 l 482 482 l 478 482 l 461 482 l 453 482 l 449 482 l 449 446 l 441 482 l 432 482 l 424 482 l 424 461 l 424 482 l 412 482 l 412 490 l 404 490 l 404 482 l 395 482 l 383 482 l 383 490 l 375 490 l 375 446 l 375 482 l 361 482 l 361 461 l 361 482 l 354 482 l 346 587 l 346 645 l 354 587 l 361 587 l 361 595 l 361 587 l 375 587 l 375 595 l 375 587 l 383 587 l 383 628 l 383 587 l 395 587 l 404 587 l 404 578 l 412 578 l 412 587 l 420 587 l 420 599 l 420 578 l 424 578 l 424 595 l 424 587 l 432 587 l 432 578 b 434 578 435 578 436 579 b 439 580 441 583 441 587 l 449 587 l 449 599 l 449 570 l 453 570 l 453 578 l 461 578 l 461 587 l 461 578 l 478 578 l 478 587 l 482 587 l 482 599 l 482 578 l 490 578 l 490 607 l 490 587 l 507 587 l 507 624 l 507 578 l 512 578 l 512 587 l 519 587 l 529 607 l 529 595 l 529 587 l 529 578 b 530 578 531 578 532 579 b 535 580 536 582 536 587 l 536 657 b 536 645 536 628 541 616 l 541 595 l 541 587 l 541 578 l 548 578 l 548 587 l 548 607 l 548 587 l 558 587 l 565 628 l 565 587 l 570 587 l 570 624 l 570 587 l 587 587 l 587 636 l 587 587 l 595 587 l 599 587 l 607 587 l 616 587 z m 25 30 l 37 30 z m 25 25 l 37 25 l 25 17 z m 37 8 l 25 8 l 74 8 z m 25 54 l 91 54 z m 33 67 l 33 74 b 54 67 90 67 125 67 z m 37 83 l 33 83 z m 37 142 l 37 146 l 103 142 z m 37 154 l 37 162 l 125 162 z m 512 375 l 519 329 z m 337 587 l 337 616 z m 242 745 l 237 745 l 237 753 l 242 753 z m 242 624 l 237 624 z m 220 636 l 229 636 l 229 628 l 220 628 z m 208 628 l 208 636 z m 237 716 l 242 716 l 242 711 z m 212 711 l 208 711 z m 212 694 l 208 694 z m 220 645 l 229 645 z m 220 624 l 229 624 z m 237 628 l 237 636 z m 242 733 l 242 740 l 237 740 l 242 740 z m 212 745 l 200 753 l 212 753 z m 183 694 l 179 694 z m 183 674 l 179 674 z m 208 657 l 200 657 z m 208 645 l 200 645 z m 191 645 l 179 645 z m 191 607 l 179 607 z m 200 607 l 212 607 z m 220 607 l 229 607 z m 237 607 l 242 607 z m 242 607 l 242 595 l 237 595 l 237 599 l 242 599 z m 242 769 l 242 762 l 237 762 l 237 769 z m 212 769 l 212 762 l 200 769 z m 183 753 l 162 753 z m 183 657 l 142 657 z m 229 599 l 229 595 l 142 595 z m 83 461 l 200 470 l 200 453 z m 212 346 l 183 346 z m 171 354 l 212 358 l 212 354 z m 220 329 l 162 329 z m 237 329 l 237 324 z m 220 354 l 220 358 z m 220 375 l 212 395 l 229 395 z m 242 412 l 237 432 l 242 432 z m 229 412 l 212 412 l 212 432 l 229 432 z m 208 453 l 208 470 l 229 470 l 229 453 z m 67 424 l 200 432 l 208 412 z m 67 387 l 208 395 l 212 375 z m 142 317 l 220 317 l 220 308 z m 229 308 l 229 317 l 237 317 l 237 308 z m 242 324 l 242 337 l 242 354 l 249 324 z m 337 482 l 332 482 l 332 475 l 332 482 l 324 482 l 324 490 l 317 490 l 317 461 l 317 490 l 300 490 l 300 482 l 295 482 l 288 482 l 278 461 l 278 482 l 271 482 l 271 461 l 271 482 l 266 482 l 249 482 l 242 482 l 242 453 l 237 453 l 237 470 l 242 470 l 242 482 l 208 482 l 242 482 l 242 490 l 237 490 l 242 499 l 200 499 l 200 507 l 191 507 l 191 499 l 54 512 l 154 519 l 242 519 l 242 529 l 242 541 l 242 548 l 154 558 l 242 558 l 242 565 l 212 570 l 242 570 l 242 578 l 183 578 l 242 578 l 242 587 l 249 587 l 249 645 l 258 595 l 266 595 l 266 587 l 271 587 l 278 587 l 278 628 l 288 587 l 295 587 l 295 616 l 295 595 l 300 595 l 300 587 l 317 587 l 317 628 l 317 587 l 324 587 l 324 628 l 332 587 l 346 482 z"},"Q":{"x_min":0,"x_max":817,"ha":817,"o":"m 762 406 l 782 406 l 782 414 l 762 414 l 782 422 l 782 428 l 774 428 l 782 428 l 782 434 l 721 434 l 782 441 l 782 448 l 782 454 l 749 454 l 774 454 l 774 461 l 782 461 l 782 476 l 774 476 l 782 476 l 782 483 l 774 483 l 774 489 l 749 489 l 774 495 l 774 503 l 768 503 l 701 503 l 694 503 l 762 509 l 762 524 l 742 524 l 768 524 l 768 537 l 735 534 b 715 531 689 531 666 531 l 726 540 l 755 544 l 755 550 l 721 550 b 732 550 740 551 746 553 l 755 557 l 755 566 l 652 544 l 742 572 l 742 578 l 742 586 l 672 566 l 742 592 l 733 598 l 719 594 b 710 591 695 589 678 586 b 694 593 706 591 713 598 b 721 598 720 598 727 605 l 727 612 l 721 612 b 719 612 717 612 716 611 b 713 610 710 608 707 605 l 721 612 l 713 620 l 672 605 l 713 627 l 707 633 l 630 598 l 713 640 l 707 647 l 624 605 l 685 647 l 685 653 l 652 640 l 685 659 l 678 675 l 611 627 l 672 675 l 666 681 l 646 669 l 666 681 l 658 688 l 640 675 l 658 688 l 652 695 l 624 675 l 646 695 l 640 701 l 591 659 l 640 708 l 630 716 l 569 659 l 624 716 l 617 724 l 591 688 l 617 724 l 611 730 l 597 716 l 611 730 l 604 736 l 556 681 l 597 736 l 591 736 l 543 681 l 575 743 l 569 750 l 563 730 l 569 750 l 563 750 l 543 724 l 563 756 l 549 756 l 521 701 l 543 756 l 534 762 b 534 755 528 750 521 730 l 534 762 l 521 762 l 508 730 b 515 750 521 762 521 771 l 514 771 l 480 688 l 502 771 l 494 778 l 480 736 l 488 778 l 480 778 l 473 743 l 473 778 l 466 778 l 460 750 l 466 778 l 460 778 l 447 730 l 453 778 l 447 778 l 440 771 l 440 778 l 431 778 l 419 688 l 419 675 l 431 785 l 419 785 l 411 736 l 411 778 l 399 778 l 399 659 l 392 659 l 399 785 l 392 785 l 383 730 l 376 785 l 370 785 l 370 762 l 370 785 l 356 785 l 350 785 l 350 762 l 350 785 l 338 778 l 350 695 l 338 778 l 328 778 l 328 743 b 328 752 326 761 325 768 l 322 778 l 315 778 l 309 771 l 315 762 b 312 766 311 770 310 773 b 309 774 309 776 309 778 l 303 771 l 315 701 l 297 764 l 289 791 l 281 791 l 289 756 l 281 771 l 273 762 l 309 669 l 309 659 l 273 762 l 261 762 l 264 757 b 265 754 267 750 267 743 l 267 750 b 267 751 266 753 264 755 b 263 756 262 756 261 756 l 261 762 l 254 771 l 254 762 l 254 750 b 254 751 254 752 253 753 b 251 755 249 756 248 756 l 241 756 l 248 743 l 241 756 l 232 750 l 232 743 l 232 750 l 220 743 l 227 734 b 232 727 236 719 241 708 b 241 712 239 716 236 719 l 232 724 b 229 726 228 729 227 732 b 226 733 226 734 226 736 b 219 736 220 736 220 743 l 212 743 l 212 736 b 220 729 220 716 232 701 l 226 701 l 206 736 l 200 736 l 206 743 l 200 750 l 165 708 l 158 701 l 171 688 l 165 688 l 145 701 l 145 695 l 186 653 l 139 695 l 129 688 l 158 659 l 129 688 l 123 681 l 145 659 l 123 681 l 117 675 b 117 674 117 673 118 672 b 119 670 120 669 123 669 l 117 669 l 110 669 l 103 659 l 129 640 l 129 633 b 117 648 110 646 103 653 l 97 647 l 139 627 l 139 620 l 90 640 l 90 633 l 82 633 l 82 627 b 84 627 86 627 87 626 b 90 625 93 623 97 620 b 90 620 84 621 80 623 b 78 624 76 625 74 627 l 74 620 l 68 612 l 129 586 l 129 578 l 62 605 l 62 598 l 82 586 b 75 589 68 590 63 591 b 61 592 58 592 55 592 b 48 592 48 593 48 586 l 55 586 l 48 586 l 48 578 l 42 572 l 48 572 l 48 566 l 48 557 l 139 537 l 48 557 l 42 550 l 82 537 b 74 537 69 537 62 544 l 48 544 l 42 544 l 36 544 l 36 537 l 42 537 l 51 534 b 57 532 65 531 74 531 l 36 531 l 27 524 l 123 503 l 27 517 l 20 509 l 74 495 l 27 503 l 20 503 l 13 489 l 97 483 l 110 476 l 13 483 l 13 476 l 62 469 l 20 476 l 20 461 l 42 461 l 20 461 l 13 461 l 7 454 l 90 441 l 7 448 l 7 434 l 68 434 l 13 434 l 13 422 l 7 422 l 7 414 l 13 414 l 13 406 l 42 406 l 13 406 l 13 399 l 7 399 l 7 393 l 13 393 l 13 386 l 13 379 l 13 373 l 55 373 l 48 373 b 41 373 27 367 20 367 l 13 367 b 12 367 11 367 10 366 b 8 365 7 362 7 357 l 13 357 l 55 357 l 7 351 l 7 345 l 13 345 l 13 338 l 27 338 l 7 332 l 7 325 l 97 332 l 13 318 l 13 310 l 20 310 l 20 304 l 117 325 l 27 296 l 27 290 l 68 296 l 27 284 l 20 277 l 20 270 l 123 296 l 27 264 l 27 255 l 55 264 l 27 249 l 27 242 l 145 284 l 158 284 l 42 242 l 42 235 l 82 249 l 42 229 l 42 223 l 36 223 l 36 207 l 129 249 l 193 277 l 55 187 l 62 181 l 123 215 l 62 168 l 68 159 l 117 187 l 74 152 l 82 146 l 178 215 l 123 146 l 103 132 l 103 126 l 110 120 l 158 159 l 117 113 l 123 104 l 178 152 l 123 97 l 129 91 l 226 159 l 158 71 l 165 65 l 171 65 l 178 65 b 178 72 193 85 206 104 l 178 56 l 186 49 l 232 113 l 193 49 l 200 43 l 206 56 l 206 49 l 206 43 l 200 43 l 206 43 l 206 36 l 212 36 l 212 43 l 220 56 b 224 64 229 74 232 85 b 232 77 233 71 226 71 b 226 56 220 56 220 49 l 220 43 l 212 43 l 212 36 l 220 36 l 226 36 l 226 43 b 227 47 229 50 231 52 b 234 59 240 66 248 77 l 220 8 l 226 2 l 232 30 l 241 30 l 254 56 l 241 23 l 254 23 l 261 36 l 261 30 l 261 23 l 267 16 l 281 56 l 273 16 l 281 8 l 281 16 l 289 16 b 289 23 295 43 303 71 l 289 16 l 295 16 l 303 8 l 303 16 l 303 8 l 309 8 l 322 49 l 322 2 l 328 2 l 328 8 l 338 8 l 344 49 l 344 8 l 350 2 l 356 2 l 364 2 l 376 2 l 376 91 l 383 104 l 376 -6 l 383 -6 l 392 36 l 392 -6 l 405 -6 l 405 36 l 405 2 l 419 2 l 419 56 l 419 85 l 419 30 l 419 8 l 419 2 b 419 0 419 -1 420 -2 b 421 -5 422 -6 425 -6 l 425 2 l 431 2 l 431 16 l 431 2 l 440 2 l 447 2 l 447 30 l 453 2 l 466 2 l 460 56 l 460 36 b 460 29 459 23 466 16 l 466 8 l 466 2 l 473 8 l 473 30 l 480 8 l 488 8 l 480 30 l 488 16 l 494 16 l 494 49 l 494 43 b 494 39 495 35 498 30 b 499 27 501 26 502 23 l 502 16 l 502 8 l 508 8 l 508 16 l 508 36 l 514 23 l 521 23 l 508 71 l 528 23 l 534 23 l 534 30 l 543 30 b 543 33 543 35 542 37 b 541 42 539 46 534 49 b 543 42 542 30 549 30 l 549 23 l 549 16 l 556 16 b 557 16 558 16 559 17 b 560 18 559 20 556 23 b 556 26 556 29 555 31 b 554 36 552 42 549 49 l 556 36 l 569 36 l 556 65 l 556 56 l 563 65 b 563 56 569 50 569 43 l 569 36 l 575 36 l 569 36 l 575 30 l 583 36 l 583 30 l 575 30 l 575 23 l 575 16 l 583 16 l 604 36 b 611 36 610 43 617 43 b 614 43 613 42 612 39 b 611 38 611 37 611 36 b 604 29 597 30 597 23 b 596 23 595 23 594 22 b 592 21 591 19 591 16 l 591 8 l 597 8 b 604 16 624 30 640 43 l 604 2 l 611 2 l 652 36 l 617 -6 l 624 -12 l 630 2 l 617 -18 l 624 -18 l 640 -6 l 624 -25 l 630 -32 l 672 8 l 630 -32 l 640 -38 l 678 -6 l 646 -38 l 652 -47 l 678 -18 l 652 -47 l 658 -53 l 694 -25 l 666 -60 l 672 -67 l 685 -47 b 678 -54 679 -60 672 -60 l 672 -67 b 671 -67 670 -67 669 -68 b 667 -69 666 -71 666 -73 l 672 -73 b 679 -73 678 -74 678 -67 b 693 -56 721 -34 745 -11 l 790 30 l 782 36 l 773 28 b 766 23 758 15 749 8 b 758 15 765 23 769 28 b 771 30 773 33 774 36 l 774 43 l 755 30 l 774 43 l 768 49 l 721 8 l 762 56 l 755 65 l 727 36 l 755 65 l 749 71 l 701 30 l 742 71 l 733 77 l 721 65 l 733 77 l 727 85 l 685 49 l 727 91 l 721 97 l 685 65 l 713 97 l 707 104 l 685 85 l 707 104 l 701 113 l 707 120 l 701 126 b 701 119 694 120 678 104 b 681 112 686 115 689 118 b 692 119 693 120 694 120 l 694 126 l 685 132 l 685 140 l 694 140 l 694 146 l 701 146 l 701 140 l 707 140 l 707 146 l 707 152 b 700 152 667 168 624 187 l 713 152 l 721 159 l 678 174 l 707 168 l 707 174 l 727 168 l 727 181 l 617 215 l 646 207 l 742 187 l 742 194 l 721 201 l 630 223 l 762 207 l 762 215 l 575 255 b 591 255 596 256 611 249 l 762 223 l 742 242 l 749 242 l 755 242 l 755 249 b 748 249 742 255 733 255 l 727 255 l 762 255 l 762 264 l 713 270 l 774 270 l 774 277 l 768 277 l 774 284 l 768 284 l 768 290 l 742 290 l 727 296 l 774 296 l 774 304 l 678 310 l 782 310 l 782 318 l 782 325 l 749 332 l 782 332 l 782 338 l 782 345 l 755 351 l 790 351 l 790 357 l 768 357 l 774 357 l 782 357 l 790 357 l 790 367 b 790 368 790 369 789 370 b 787 372 785 373 782 373 l 782 379 l 790 379 l 790 386 l 782 386 l 774 386 l 733 386 l 782 393 l 790 393 l 790 399 l 790 406 z m 762 469 l 694 461 l 678 461 b 701 461 727 469 742 469 b 749 469 755 469 755 476 z m 727 483 l 733 483 b 706 476 679 476 652 476 l 694 483 z m 658 489 l 604 489 l 617 489 l 678 489 z m 569 310 l 646 304 l 611 304 z m 597 284 l 583 284 z m 597 393 l 604 393 z m 617 338 l 617 332 z m 646 379 l 640 379 l 646 379 l 652 379 z m 672 517 l 658 517 l 652 517 z m 652 509 l 658 503 l 617 503 l 604 495 z m 630 517 l 617 517 z m 604 572 l 617 578 l 604 572 b 604 565 598 566 591 566 z m 569 592 l 575 592 l 563 586 l 528 566 z m 569 517 l 563 509 z m 494 572 l 521 592 l 514 586 z m 494 612 l 494 605 z m 488 640 l 494 640 l 480 620 z m 466 586 l 466 578 z m 447 612 l 447 592 l 453 586 l 447 586 z m 425 627 l 425 598 l 431 598 l 431 605 l 431 592 l 419 598 z m 473 572 l 473 566 l 480 557 l 480 566 l 488 557 l 494 557 l 488 550 l 494 544 l 502 550 l 502 544 l 508 544 l 502 537 l 502 531 l 528 544 l 514 531 l 514 524 l 521 517 l 556 531 l 556 524 l 563 531 l 521 517 l 521 503 l 528 509 l 528 503 l 583 503 l 534 495 l 534 489 l 543 489 l 534 489 l 534 476 l 575 483 l 543 476 l 543 469 l 569 469 l 549 469 l 549 454 l 566 457 b 576 460 591 461 611 461 b 596 457 584 456 576 455 b 571 454 566 454 563 454 l 563 448 l 583 448 l 549 441 l 405 592 z m 405 659 l 405 669 l 405 653 l 405 612 z m 338 620 l 338 598 l 338 605 z m 309 620 l 315 612 l 309 612 l 309 620 b 302 627 303 633 295 640 z m 303 659 l 295 659 l 295 669 l 295 675 z m 289 605 l 289 598 z m 273 586 l 281 578 l 273 572 l 267 578 z m 273 598 l 273 605 z m 281 612 l 273 620 z m 273 701 b 273 702 273 703 272 704 b 271 707 270 708 267 708 b 274 708 273 702 273 695 z m 267 612 l 261 612 z m 261 592 l 261 586 l 248 598 l 254 598 z m 261 627 l 261 620 l 248 627 z m 248 605 l 232 620 z m 226 647 l 241 647 l 232 640 z m 248 647 l 254 640 l 241 633 z m 232 695 l 241 695 z m 232 669 l 241 659 l 220 653 z m 212 659 l 206 659 l 226 675 z m 226 681 l 220 681 z m 200 669 l 193 681 b 200 688 212 688 220 688 z m 206 537 l 193 537 l 193 544 z m 200 724 l 186 716 l 200 730 z m 171 701 l 186 708 b 186 701 178 702 178 695 z m 186 688 b 186 692 187 695 189 697 l 193 701 b 200 708 206 708 206 716 l 212 701 b 212 700 211 698 209 696 b 208 695 207 695 206 695 b 203 695 199 694 194 691 z m 200 586 b 193 586 193 592 186 592 l 145 612 l 145 620 z m 178 557 l 158 566 l 158 572 l 165 566 z m 145 627 l 145 633 l 151 627 z m 151 647 l 129 659 b 133 659 136 658 138 656 b 139 655 139 654 139 653 z m 62 586 b 69 578 90 579 110 572 l 123 572 l 123 566 l 123 572 l 129 572 l 171 550 l 62 578 z m 145 454 l 158 454 l 165 454 l 158 454 z m 151 386 l 139 386 z m 90 393 l 97 393 z m 123 310 l 97 304 l 103 310 z m 110 357 l 145 367 z m 139 373 l 129 373 l 110 373 b 117 373 122 372 129 379 l 139 379 l 165 379 z m 178 255 l 186 264 l 193 270 z m 158 223 l 123 201 l 186 255 l 212 270 z m 200 235 l 220 255 l 178 207 z m 165 174 l 206 207 l 193 194 z m 200 187 l 226 207 l 186 174 z m 212 159 l 254 201 l 248 187 z m 248 146 l 254 152 z m 257 183 l 261 187 l 254 181 l 226 146 l 248 174 z m 267 65 l 273 85 z m 273 146 b 273 139 267 133 267 126 l 267 132 z m 289 85 l 295 97 z m 289 126 l 281 132 l 295 152 z m 350 126 l 350 132 z m 440 132 l 440 146 l 440 181 l 431 181 l 440 181 l 440 146 z m 431 187 l 425 187 l 453 207 z m 466 201 l 460 201 l 460 194 l 460 201 z m 473 207 l 466 207 z m 480 215 b 480 217 480 218 481 219 b 482 222 484 223 488 223 z m 488 235 l 494 242 l 494 235 z m 466 249 b 481 264 494 276 504 283 l 521 296 l 514 304 l 502 294 b 495 287 487 281 480 270 b 487 281 495 289 502 297 l 514 310 l 508 318 l 494 304 l 508 318 l 502 325 l 492 315 l 466 290 b 473 299 478 308 485 315 l 494 325 l 494 332 l 440 284 l 488 338 l 480 345 l 460 325 l 473 345 l 473 351 l 466 357 l 356 255 l 364 249 l 370 242 l 399 264 l 376 242 l 383 235 l 405 264 l 383 229 l 383 223 l 383 215 l 392 215 b 399 223 404 223 411 235 b 419 235 425 242 425 249 l 399 215 l 405 207 l 419 223 b 411 215 412 215 405 207 l 405 201 l 405 194 l 411 194 l 411 201 l 411 194 l 419 194 b 420 195 422 195 423 198 l 431 207 l 423 198 b 422 195 420 195 419 194 l 425 187 l 425 181 l 419 181 l 419 187 l 405 181 l 405 174 l 405 181 l 399 181 l 399 187 l 383 187 l 383 181 l 376 181 l 376 140 l 376 152 l 376 181 l 364 187 l 364 140 l 356 126 l 364 187 l 350 187 l 344 152 l 350 168 l 350 181 l 350 187 l 344 187 l 344 194 l 338 194 l 328 194 l 322 168 l 322 181 l 315 181 l 303 152 l 322 207 l 309 207 l 315 207 l 303 215 l 295 201 b 294 199 293 196 290 192 b 286 187 281 181 273 174 l 267 152 l 303 223 l 295 229 l 289 215 l 289 223 l 267 207 l 289 235 l 281 242 l 226 187 l 281 242 l 273 249 l 267 249 l 232 229 l 267 264 l 261 270 l 193 207 l 267 284 l 261 290 l 206 249 l 261 296 l 254 304 l 248 296 l 254 304 l 254 310 l 254 318 l 232 310 l 248 318 l 241 325 l 254 325 l 248 332 l 254 332 l 248 345 l 193 325 l 248 345 l 248 351 l 241 351 l 241 357 l 248 357 l 248 367 l 186 367 l 248 373 l 248 386 b 246 386 244 386 243 385 b 240 384 236 382 232 379 l 241 386 l 241 393 l 226 393 l 248 393 l 248 399 l 248 414 l 248 422 l 248 428 l 248 434 l 220 441 l 248 434 l 248 441 l 254 454 l 248 454 l 254 461 l 248 461 l 186 476 l 254 469 l 254 476 l 248 476 l 248 483 l 261 483 l 267 483 b 267 484 266 486 264 488 b 263 489 262 489 261 489 l 254 489 b 241 496 226 495 206 503 l 226 503 l 261 495 l 267 495 l 267 509 l 171 531 b 171 532 170 534 168 536 b 167 537 166 537 165 537 l 267 517 l 273 524 l 254 531 l 273 524 l 273 531 l 254 544 l 273 531 l 281 537 l 273 544 l 273 550 l 273 544 l 281 550 l 289 544 l 289 550 l 281 566 l 289 572 l 303 566 l 309 572 l 295 586 l 303 586 b 303 578 309 579 309 572 l 315 572 l 315 578 l 322 578 l 315 598 l 322 586 l 328 586 l 328 592 l 338 586 l 344 592 l 350 592 l 356 592 l 364 592 l 370 592 l 370 598 l 376 598 l 370 640 l 376 598 l 383 598 l 392 598 l 543 434 l 549 434 l 543 428 l 543 422 l 556 422 l 549 422 l 549 414 l 549 406 l 549 399 l 583 393 l 549 393 l 549 386 l 556 386 l 549 386 l 549 379 l 549 373 b 551 373 553 373 554 372 b 557 371 562 370 569 367 l 549 367 l 549 357 l 549 351 l 583 351 l 549 351 l 549 345 l 543 345 l 543 338 l 543 332 l 543 325 l 575 325 l 543 325 l 543 318 l 534 304 l 534 296 l 569 296 l 528 296 l 528 290 l 502 270 b 509 270 507 277 514 277 b 521 284 521 283 521 290 l 528 290 l 528 296 l 528 304 l 521 304 l 521 296 l 517 292 l 508 284 b 493 277 481 264 466 249 z m 267 181 l 273 187 z m 514 264 l 514 255 l 494 242 z m 521 126 l 521 132 l 517 137 b 515 140 514 143 514 146 l 521 132 z m 534 146 l 528 140 l 528 146 b 528 149 527 150 524 151 b 523 152 522 152 521 152 z m 521 249 b 524 249 526 250 527 252 b 528 253 528 254 528 255 l 534 255 b 534 248 535 249 528 249 z m 528 120 l 534 120 l 528 113 z m 543 85 l 534 104 b 543 104 542 98 549 91 z m 543 126 l 543 132 z m 549 77 l 549 85 b 552 81 554 78 555 75 b 556 74 556 72 556 71 l 556 65 z m 549 242 l 549 249 l 569 249 b 569 245 567 244 566 243 b 565 242 564 242 563 242 z m 569 132 l 575 126 l 569 120 l 563 132 z m 556 120 l 563 113 l 556 104 z m 563 91 l 569 97 l 575 91 l 569 85 z m 575 49 l 575 56 z m 575 71 l 575 77 l 583 85 l 583 77 z m 591 113 l 583 104 l 583 113 z m 583 65 l 591 71 z m 591 168 l 597 168 z m 597 91 l 604 97 z m 611 120 l 604 120 z m 611 146 l 604 152 z m 617 126 l 611 126 z m 630 113 l 630 120 z m 646 97 l 652 97 z m 672 104 l 678 104 z m 672 146 l 678 140 l 672 140 z m 685 126 l 672 120 b 672 127 671 126 678 126 z m 666 104 l 658 113 l 666 113 z m 666 132 l 658 126 z m 658 152 l 666 146 l 658 146 z m 658 104 l 652 97 z m 652 140 l 652 132 l 646 132 z m 652 152 l 646 152 z m 640 126 l 646 126 z m 630 152 l 640 146 l 640 140 l 630 146 z m 624 140 l 630 132 z m 617 152 b 614 152 613 153 612 155 b 611 156 611 157 611 159 z m 575 242 l 646 229 z m 549 277 l 543 284 l 543 277 l 528 277 l 528 270 l 521 270 l 534 284 b 543 284 569 277 597 270 z m 727 242 l 742 235 l 672 249 b 695 249 706 242 713 242 z m 678 255 b 658 255 630 255 611 264 l 591 264 l 658 264 b 666 255 671 255 678 255 z m 646 270 l 672 270 l 658 270 z m 678 351 l 646 357 l 694 351 z m 678 422 l 652 422 l 666 422 l 701 422 z"}}}
